<svg width="80" height="74" viewBox="0 0 80 74" fill="none" xmlns="http://www.w3.org/2000/svg">
<rect width="80" height="74" fill="white"/>
<path d="M29.733 38.5389L29.2884 38.644V37.0631H29.7329L29.733 38.5389ZM20.6421 32.1874H18.9941V30.6992H20.6421L20.6421 32.1874ZM20.1965 29.7229C19.9525 29.6004 19.8181 29.32 19.8181 29.32C19.8181 29.32 19.6837 29.6004 19.4397 29.7229C19.1956 29.8449 18.9395 29.9548 18.9395 30.4672H20.6968C20.6968 29.9548 20.4406 29.8449 20.1965 29.7229Z" stroke="#14306E" stroke-width="0.15" stroke-miterlimit="10" stroke-linecap="round" stroke-linejoin="round"/>
<path d="M21.0629 30.583C21.0629 30.6469 21.0111 30.6992 20.9472 30.6992H18.689C18.625 30.6992 18.5732 30.6469 18.5732 30.583C18.5732 30.5191 18.625 30.4673 18.689 30.4673H20.9472C21.0111 30.4673 21.0629 30.5191 21.0629 30.583ZM21.0629 32.3037C21.0629 32.3676 21.0111 32.4194 20.9472 32.4194H18.689C18.625 32.4194 18.5732 32.3676 18.5732 32.3037C18.5732 32.2398 18.625 32.1875 18.689 32.1875H20.9472C21.0111 32.1875 21.0629 32.2398 21.0629 32.3037ZM20.3264 31.9886H19.8869V31.2889C19.8869 31.1386 19.9494 31.0858 19.9969 31.0397C20.0763 30.9633 20.1067 30.9119 20.1067 30.9119C20.1067 30.9119 20.1367 30.9633 20.2163 31.0397C20.2639 31.0858 20.3264 31.1386 20.3264 31.2889L20.3264 31.9886ZM19.7366 31.9886H19.2968V31.2889C19.2968 31.1386 19.3594 31.0858 19.4072 31.0397C19.4865 30.9633 19.5166 30.9119 19.5166 30.9119C19.5166 30.9119 19.5469 30.9633 19.6266 31.0397C19.6741 31.0858 19.7366 31.1386 19.7366 31.2889V31.9886ZM20.4851 31.9886V31.2889C20.4851 31.1386 20.5299 31.0858 20.5638 31.0397C20.6204 30.9633 20.642 30.9119 20.642 30.9119V30.6992H18.9941V30.9119C18.9941 30.9119 19.0176 30.9633 19.0789 31.0397C19.1155 31.0858 19.1636 31.1386 19.1636 31.2889V31.9886H18.9941V32.1874H20.642V31.9886H20.4851Z" stroke="#14306E" stroke-width="0.15" stroke-miterlimit="10" stroke-linecap="round" stroke-linejoin="round"/>
<path d="M34.676 34.6359C34.2251 34.4107 33.9774 33.8925 33.9774 33.8925C33.9774 33.8925 33.7294 34.4107 33.2788 34.6359C32.8282 34.8611 32.355 35.0638 32.355 36.0103H35.5995C35.5995 35.0638 35.1263 34.8611 34.676 34.6359M18.8101 32.5848H18.6826V32.4196H18.8101V32.5848ZM19.0481 32.5848H18.9207V32.4196H19.0481V32.5848ZM19.2862 32.5848H19.1591V32.4196H19.2862V32.5848ZM19.5244 32.5848H19.3971V32.4196H19.5244V32.5848ZM19.7627 32.5848H19.6352V32.4196H19.7627L19.7627 32.5848ZM20.0008 32.5848H19.8733V32.4196H20.0007L20.0008 32.5848ZM20.2389 32.5848H20.1117V32.4196H20.2389V32.5848ZM20.4772 32.5848H20.3497V32.4196H20.4772V32.5848ZM20.7153 32.5848H20.5879V32.4196H20.7153V32.5848ZM20.9534 32.5848H20.8259V32.4196H20.9534V32.5848ZM35.4981 38.0801H32.4564V36.3052H35.4981V38.0801Z" stroke="#14306E" stroke-width="0.15" stroke-miterlimit="10" stroke-linecap="round" stroke-linejoin="round"/>
<path d="M32.7688 37.3943V38.0801H33.015V37.3943C33.015 37.1172 33.1302 37.0193 33.2182 36.9347C33.365 36.7935 33.4209 36.6985 33.4209 36.6985C33.4209 36.6985 33.4765 36.7935 33.6235 36.9347C33.7112 37.0193 33.8263 37.1172 33.8263 37.3943V38.0801H34.1042V37.3943C34.1042 37.1172 34.2196 37.0193 34.307 36.9347C34.4541 36.7935 34.5097 36.6985 34.5097 36.6985C34.5097 36.6985 34.5656 36.7935 34.7123 36.9347C34.8 37.0193 34.9155 37.1172 34.9155 37.3943V38.0801H35.2091V37.3943C35.2091 37.1172 35.2912 37.0193 35.3538 36.9347C35.4584 36.7935 35.498 36.6985 35.498 36.6985V36.3052H32.4563V36.6985C32.4563 36.6985 32.4992 36.7935 32.6125 36.9347C32.6801 37.0193 32.7688 37.1172 32.7688 37.3943ZM21.1787 37.3905C21.1787 37.4549 21.1267 37.5067 21.0627 37.5067H18.5731C18.509 37.5067 18.457 37.4549 18.457 37.3905C18.457 37.3271 18.509 37.2748 18.5731 37.2748H21.0627C21.1267 37.2748 21.1787 37.3271 21.1787 37.3905Z" stroke="#14306E" stroke-width="0.15" stroke-miterlimit="10" stroke-linecap="round" stroke-linejoin="round"/>
<path d="M18.6832 37.6718H18.5557V37.5066H18.6832L18.6832 37.6718ZM18.9213 37.6718H18.7941V37.5066H18.9213V37.6718ZM19.1596 37.6718H19.0322V37.5066H19.1596V37.6718ZM19.3977 37.6718H19.2706V37.5066H19.3977V37.6718ZM19.6358 37.6718H19.5086V37.5066H19.6358V37.6718ZM19.8739 37.6718H19.7468V37.5066H19.8739L19.8739 37.6718ZM20.1123 37.6718H19.9848V37.5066H20.1123V37.6718ZM20.3503 37.6718H20.2229V37.5066H20.3503V37.6718ZM20.5885 37.6718H20.461V37.5066H20.5884L20.5885 37.6718ZM20.8266 37.6718H20.6993V37.5066H20.8266V37.6718ZM21.0646 37.6718H20.9374V37.5066H21.0647L21.0646 37.6718ZM21.3316 41.8901C21.3316 41.954 21.2795 42.0059 21.2155 42.0059H18.4643C18.4003 42.0059 18.3486 41.954 18.3486 41.8901C18.3486 41.8263 18.4003 41.7744 18.4644 41.7744H21.2155C21.2795 41.7744 21.3316 41.8263 21.3316 41.8901Z" stroke="#14306E" stroke-width="0.15" stroke-miterlimit="10" stroke-linecap="round" stroke-linejoin="round"/>
<path d="M18.5962 42.1711H18.4688V42.0059H18.5962L18.5962 42.1711ZM18.8343 42.1711H18.7068V42.0059H18.8343V42.1711ZM19.0724 42.1711H18.9449V42.0059H19.0724V42.1711ZM19.3105 42.1711H19.183V42.0059H19.3105V42.1711ZM19.5485 42.1711H19.4214V42.0059H19.5485V42.1711ZM19.7869 42.1711H19.6595V42.0059H19.7869V42.1711ZM20.025 42.1711H19.8975V42.0059H20.025V42.1711ZM20.2631 42.1711H20.136V42.0059H20.2631L20.2631 42.1711ZM20.5014 42.1711H20.374V42.0059H20.5014V42.1711ZM20.7395 42.1711H20.6121V42.0059H20.7395V42.1711ZM20.9777 42.1711H20.8502V42.0059H20.9776L20.9777 42.1711ZM21.2157 42.1711H21.0885V42.0059H21.2157V42.1711ZM40.0011 39.0592C39.4759 39.9807 37.5001 39.7598 37.5001 42.0049V46.6211H42.5015V42.0049C42.5015 39.7598 40.5261 39.9807 40.0011 39.0592ZM34.1989 39.8502C33.9457 39.7239 33.7001 39.5303 33.7001 39.5303C33.7001 39.5303 33.4546 39.7239 33.2014 39.8502C32.9483 39.9769 32.5766 40.1181 32.5766 41.1007V42.6931H34.8238V41.1007C34.8238 40.1181 34.4519 39.9769 34.1989 39.8502ZM34.1989 43.7784C33.9457 43.6517 33.7001 43.4586 33.7001 43.4586C33.7001 43.4586 33.4546 43.6517 33.2014 43.7784C32.9483 43.9047 32.5766 44.0464 32.5766 45.0284V46.6211H34.8238V45.0284C34.8238 44.0464 34.4519 43.9047 34.1989 43.7784ZM30.781 39.8502C30.6279 39.7239 30.4795 39.5303 30.4795 39.5303C30.4795 39.5303 30.331 39.7239 30.1779 39.8502C30.0253 39.9769 29.8001 40.1181 29.8001 41.1007V42.6931H31.1588V41.1007C31.1588 40.1181 30.9337 39.9769 30.781 39.8502ZM30.781 43.7784C30.6279 43.6517 30.4795 43.4586 30.4795 43.4586C30.4795 43.4586 30.331 43.6517 30.1779 43.7784C30.0253 43.9047 29.8001 44.0464 29.8001 45.0284V46.6211H31.1588V45.0284C31.1588 44.0464 30.9337 43.9047 30.781 43.7784Z" stroke="#14306E" stroke-width="0.15" stroke-miterlimit="10" stroke-linecap="round" stroke-linejoin="round"/>
<path d="M35.6333 46.6211H44.3683L44.3683 36.6399H35.6333V46.6211ZM35.6333 46.6211H31.6798M35.6333 46.6211V38.0801H31.6798V46.6211M31.6798 46.6211H29.2891V38.6443L31.6798 38.08V46.6211Z" stroke="#14306E" stroke-width="0.15" stroke-miterlimit="10" stroke-linecap="round" stroke-linejoin="round"/>
<path d="M31.6792 38.4225V38.7385M31.6792 38.4225H35.6328V38.7385H31.6792M31.6792 38.4225L29.2885 38.9863V39.3023L31.6792 38.7385M42.9732 46.6211H37.0276V38.0801H42.9733L42.9732 46.6211ZM20.8496 42.1711V42.0059H20.9771V42.1711H20.8496ZM20.8262 37.6719H20.699V37.5067H20.8262L20.8262 37.6719ZM20.739 42.1711H20.6115V42.0059H20.739V42.1711ZM20.5881 37.6719H20.4606V37.5067H20.5881L20.5881 37.6719ZM20.5009 42.1711H20.3735V42.0059H20.5009V42.1711ZM20.35 37.6719H20.2225V37.5067H20.35V37.6719ZM20.2626 42.1711H20.1354V42.0059H20.2625L20.2626 42.1711ZM20.1119 37.6719H19.9845V37.5067H20.1119V37.6719ZM20.0244 42.1711H19.897V42.0059H20.0244V42.1711ZM19.8735 37.6719H19.7464V37.5067H19.8735V37.6719ZM19.7863 42.1711H19.6589V42.0059H19.7864L19.7863 42.1711ZM19.6354 37.6719H19.5083V37.5067H19.6354V37.6719ZM19.5479 42.1711H19.4208V42.0059H19.548L19.5479 42.1711ZM19.3974 37.6719H19.2702V37.5067H19.3974V37.6719ZM19.3099 42.1711H19.1825V42.0059H19.3099V42.1711ZM19.1593 37.6719H19.0319V37.5067H19.1593V37.6719ZM19.0719 42.1711H18.9443V42.0059H19.0718L19.0719 42.1711ZM18.921 37.6719H18.7937V37.5067H18.921V37.6719ZM18.8338 42.1711H18.7063V42.0059H18.8338V42.1711ZM20.6584 32.5848H20.5881V32.4196H20.4775V32.5848H20.35V32.4196H20.2391V32.5848H20.1119V32.4196H20.001V32.5848H19.8735V32.4196H19.7629V32.5848H19.6354V32.4196H19.5246V32.5848H19.3974V32.4196H19.2865V32.5848H19.1593V32.4196H19.0484V32.5848H18.9781L18.5942 42.0059H18.5957V42.1711H18.5876L18.4062 46.6211H21.2302L20.6584 32.5848ZM26.5894 35.6353H25.3353V34.5019H26.5894V35.6353ZM26.2503 33.759C26.0645 33.6658 25.9623 33.4526 25.9623 33.4526C25.9623 33.4526 25.8601 33.6658 25.6743 33.759C25.4886 33.8516 25.2932 33.9352 25.2932 34.3251H26.6309C26.6309 33.9352 26.436 33.8516 26.2503 33.759Z" stroke="#14306E" stroke-width="0.15" stroke-miterlimit="10" stroke-linecap="round" stroke-linejoin="round"/>
<path d="M26.9097 34.4136C26.9097 34.4621 26.87 34.502 26.8213 34.502H25.1028C25.0541 34.502 25.0146 34.4621 25.0146 34.4136C25.0146 34.3651 25.0541 34.3253 25.1028 34.3253H26.8213C26.87 34.3253 26.9097 34.3651 26.9097 34.4136ZM26.9097 35.7232C26.9097 35.7721 26.87 35.8115 26.8213 35.8115H25.1028C25.0541 35.8115 25.0146 35.7721 25.0146 35.7232C25.0146 35.6747 25.0541 35.6353 25.1028 35.6353H26.8213C26.87 35.6353 26.9097 35.6747 26.9097 35.7232Z" stroke="#14306E" stroke-width="0.15" stroke-miterlimit="10" stroke-linecap="round" stroke-linejoin="round"/>
<path d="M26.3492 35.4836H26.015V34.951C26.015 34.8367 26.0624 34.7964 26.0985 34.7618C26.1589 34.7032 26.1821 34.6643 26.1821 34.6643C26.1821 34.6643 26.2049 34.7032 26.2656 34.7618C26.3017 34.7964 26.3492 34.8367 26.3492 34.951V35.4836ZM25.9004 35.4836H25.5658V34.951C25.5658 34.8367 25.6133 34.7964 25.6494 34.7618C25.7101 34.7032 25.733 34.6643 25.733 34.6643C25.733 34.6643 25.7561 34.7032 25.8166 34.7618C25.8526 34.7964 25.9004 34.8367 25.9004 34.951V35.4836ZM26.4703 35.4836V34.951C26.4703 34.8367 26.5043 34.7964 26.5301 34.7618C26.5731 34.7032 26.5897 34.6643 26.5897 34.6643V34.502H25.3356V34.6643C25.3356 34.6643 25.353 34.7032 25.3999 34.7618C25.4278 34.7964 25.4643 34.8367 25.4643 34.951V35.4836H25.3356V35.6353H26.5897V35.4836H26.4703ZM25.1952 35.9373H25.0984V35.8115H25.1952V35.9373ZM25.3764 35.9373H25.2796V35.8115H25.3764V35.9373ZM25.5577 35.9373H25.461V35.8115H25.5577V35.9373ZM25.739 35.9373H25.6422V35.8115H25.739V35.9373ZM25.9202 35.9373H25.8234V35.8115H25.9202V35.9373ZM26.1015 35.9373H26.0047V35.8115H26.1014L26.1015 35.9373ZM26.2828 35.9373H26.1859V35.8115H26.2828V35.9373ZM26.464 35.9373H26.3673V35.8115H26.464V35.9373ZM26.6453 35.9373H26.5485V35.8115H26.6453V35.9373ZM26.8265 35.9373H26.7297V35.8115H26.8265V35.9373ZM26.9982 39.5952C26.9982 39.6442 26.9588 39.6836 26.9101 39.6836H25.0151C24.9664 39.6836 24.9268 39.6442 24.9268 39.5952C24.9268 39.5467 24.9664 39.5074 25.0151 39.5074H26.9101C26.9588 39.5074 26.9982 39.5467 26.9982 39.5952Z" stroke="#14306E" stroke-width="0.15" stroke-miterlimit="10" stroke-linecap="round" stroke-linejoin="round"/>
<path d="M25.0987 39.8092H25.0015V39.6834H25.0987V39.8092ZM25.2799 39.8092H25.1828V39.6834H25.2799V39.8092ZM25.4612 39.8092H25.364V39.6834H25.4612V39.8092ZM25.6425 39.8092H25.5457V39.6834H25.6424L25.6425 39.8092ZM25.8237 39.8092H25.7266V39.6834H25.8237L25.8237 39.8092ZM26.005 39.8092H25.9078V39.6834H26.0049L26.005 39.8092ZM26.1862 39.8092H26.0891V39.6834H26.1862L26.1862 39.8092ZM26.3676 39.8092H26.2707V39.6834H26.3676V39.8092ZM26.5488 39.8092H26.4516V39.6834H26.5488V39.8092ZM26.73 39.8092H26.6333V39.6834H26.73V39.8092ZM26.9113 39.8092H26.8145V39.6834H26.9113L26.9113 39.8092ZM27.1142 43.0195C27.1142 43.0685 27.0748 43.1079 27.0261 43.1079H24.9321C24.8831 43.1079 24.8438 43.0685 24.8438 43.0195C24.8438 42.971 24.8831 42.9317 24.9321 42.9317H27.0261C27.0748 42.9317 27.1142 42.971 27.1142 43.0195Z" stroke="#14306E" stroke-width="0.15" stroke-miterlimit="10" stroke-linecap="round" stroke-linejoin="round"/>
<path d="M25.0317 43.2344H24.9346V43.1081H25.0317V43.2344ZM25.2129 43.2344H25.1159V43.1081H25.2129V43.2344ZM25.3942 43.2344H25.2971V43.1081H25.3942V43.2344ZM25.5751 43.2344H25.4784V43.1081H25.5751V43.2344ZM25.7568 43.2344H25.6596V43.1081H25.7568V43.2344ZM25.9377 43.2344H25.841V43.1081H25.9377V43.2344ZM26.1193 43.2344H26.0222V43.1081H26.1193V43.2344ZM26.3005 43.2344H26.2034V43.1081H26.3005V43.2344ZM26.4818 43.2344H26.3848V43.1081H26.4818V43.2344ZM26.6628 43.2344H26.566V43.1081H26.6628V43.2344ZM26.8444 43.2344H26.7476V43.1081H26.8443L26.8444 43.2344ZM27.0255 43.2344H26.9288V43.1081H27.0255V43.2344Z" stroke="#14306E" stroke-width="0.15" stroke-miterlimit="10" stroke-linecap="round" stroke-linejoin="round"/>
<path d="M29.2739 37.0012C29.2739 36.8629 29.343 36.8331 29.4088 36.8004C29.4748 36.7673 29.5108 36.6914 29.5108 36.6914C29.5108 36.6914 29.5471 36.7673 29.6129 36.8004C29.6788 36.8331 29.748 36.8629 29.748 37.0012M29.2739 37.0012H29.748M29.2739 37.0012C29.2564 37.0012 29.2427 37.0151 29.2427 37.0324C29.2427 37.0497 29.2564 37.0636 29.2739 37.0636H29.748C29.7651 37.0636 29.7792 37.0497 29.7792 37.0324C29.7792 37.0151 29.7651 37.0012 29.748 37.0012M31.4425 36.397C31.4425 36.2587 31.5114 36.2289 31.5772 36.1963C31.6433 36.1631 31.6793 36.0873 31.6793 36.0873C31.6793 36.0873 31.7155 36.1631 31.7812 36.1963C31.847 36.2289 31.9162 36.2587 31.9162 36.397M31.4425 36.397H31.9162M31.4425 36.397C31.4251 36.397 31.4112 36.4109 31.4112 36.4282C31.4112 36.4455 31.425 36.4594 31.4424 36.4594H31.9162C31.9337 36.4594 31.9475 36.4455 31.9475 36.4282C31.9475 36.4109 31.9337 36.397 31.9162 36.397M26.7476 43.2345V43.1082H26.8444V43.2345H26.7476ZM26.7295 39.8095H26.6328V39.6837H26.7295V39.8095ZM26.6628 43.2345H26.566V43.1082H26.6628V43.2345ZM26.5483 39.8095H26.4512V39.6837H26.5483V39.8095ZM26.4818 43.2345H26.3848V43.1082H26.4818V43.2345ZM26.3671 39.8095H26.2703V39.6837H26.3671L26.3671 39.8095ZM26.3006 43.2345H26.2034V43.1082H26.3006V43.2345ZM26.1857 39.8095H26.0887V39.6837H26.1857V39.8095ZM26.1194 43.2345H26.0223V43.1082H26.1194V43.2345ZM26.0045 39.8095H25.9074V39.6837H26.0045V39.8095ZM25.9377 43.2345H25.841V43.1082H25.9377V43.2345ZM25.8232 39.8095H25.7262V39.6837H25.8232V39.8095ZM25.7568 43.2345H25.6597V43.1082H25.7568V43.2345ZM25.642 39.8095H25.5452V39.6837H25.642V39.8095ZM25.5752 43.2345H25.4785V43.1082H25.5752V43.2345ZM25.4607 39.8095H25.3636V39.6837H25.4608L25.4607 39.8095ZM25.3943 43.2345H25.2972V43.1082H25.3943V43.2345ZM25.2795 39.8095H25.1823V39.6837H25.2794L25.2795 39.8095ZM25.213 43.2345H25.116V43.1082H25.213V43.2345ZM26.6018 35.9374H26.5483V35.8116H26.4638V35.9374H26.3671V35.8116H26.2826V35.9374H26.1857V35.8116H26.1013V35.9374H26.0045V35.8116H25.92V35.9374H25.8232V35.8116H25.7388V35.9374H25.642V35.8116H25.5575V35.9374H25.4608V35.8116H25.3763V35.9374H25.3228L25.0306 43.1082H25.0317V43.2345H25.0255L24.8874 46.6212H27.0371L26.6018 35.9374ZM31.9015 38.0802H31.7018L31.4572 38.1331V36.4595H31.9015V38.0802ZM21.5766 49.312H18V46.6213H21.5766V49.312Z" stroke="#14306E" stroke-width="0.15" stroke-miterlimit="10" stroke-linecap="round" stroke-linejoin="round"/>
<path d="M21.5766 47.0596H18V46.8816H21.5766V47.0596ZM58.4237 49.312H21.5766V46.6213H58.4237V49.312Z" stroke="#14306E" stroke-width="0.15" stroke-miterlimit="10" stroke-linecap="round" stroke-linejoin="round"/>
<path d="M58.4233 47.0591H21.5762V46.8811H58.4233V47.0591ZM40.6138 46.6208V45.0192C40.6138 44.6805 40.3391 44.4058 40.0002 44.4058C39.6612 44.4058 39.3864 44.6805 39.3864 45.0192V46.6208H40.6138ZM34.0446 46.6208V45.7199C34.0446 45.5293 33.8898 45.3744 33.6992 45.3744C33.5086 45.3744 33.3539 45.5293 33.3539 45.7199V46.6208H34.0446ZM34.0446 42.7019V41.801C34.0446 41.6104 33.8898 41.4557 33.6992 41.4557C33.5086 41.4557 33.3539 41.6104 33.3539 41.801V42.7019H34.0446ZM50.2668 38.5388L50.7111 38.644V37.0631H50.2668V38.5388ZM59.3578 32.1873H61.0054V30.6991H59.3578V32.1873ZM59.8029 29.7228C60.0474 29.6004 60.1818 29.3199 60.1818 29.3199C60.1818 29.3199 60.3158 29.6004 60.5598 29.7228C60.8037 29.8448 61.0602 29.9548 61.0602 30.4672H59.3025C59.3025 29.9548 59.559 29.8448 59.8029 29.7228Z" stroke="#14306E" stroke-width="0.15" stroke-miterlimit="10" stroke-linecap="round" stroke-linejoin="round"/>
<path d="M58.9375 30.583C58.9375 30.6469 58.9894 30.6992 59.0532 30.6992H61.3117C61.3751 30.6992 61.4275 30.6469 61.4275 30.583C61.4275 30.5191 61.3751 30.4673 61.3117 30.4673H59.0532C58.9894 30.4673 58.9375 30.5191 58.9375 30.583ZM58.9375 32.3037C58.9375 32.3676 58.9894 32.4194 59.0532 32.4194H61.3117C61.3751 32.4194 61.4275 32.3676 61.4275 32.3037C61.4275 32.2398 61.3751 32.1875 61.3117 32.1875H59.0532C58.9894 32.1875 58.9375 32.2398 58.9375 32.3037ZM59.6742 31.289C59.6742 31.1387 59.7366 31.0858 59.7841 31.0397C59.8639 30.9634 59.8941 30.912 59.8941 30.912C59.8941 30.912 59.9244 30.9634 60.0036 31.0397C60.0511 31.0858 60.1136 31.1387 60.1136 31.289V31.9887H59.6742V31.289ZM60.2639 31.289C60.2639 31.1387 60.3263 31.0858 60.3739 31.0397C60.4536 30.9634 60.4838 30.912 60.4838 30.912C60.4838 30.912 60.5141 30.9634 60.5933 31.0397C60.6409 31.0858 60.7038 31.1387 60.7038 31.289V31.9887H60.2639V31.289ZM59.3587 31.9887V32.1875H61.0063V31.9887H60.8368V31.289C60.8368 31.1387 60.8848 31.0858 60.9218 31.0397C60.9833 30.9634 61.0063 30.912 61.0063 30.912V30.6993H59.3587V30.912C59.3587 30.912 59.3803 30.9634 59.4365 31.0397C59.4706 31.0858 59.5152 31.1387 59.5152 31.289V31.9887H59.3587Z" stroke="#14306E" stroke-width="0.15" stroke-miterlimit="10" stroke-linecap="round" stroke-linejoin="round"/>
<path d="M61.1899 32.5848H61.3171V32.4196H61.1899V32.5848ZM60.9517 32.5848H61.079V32.4196H60.9517V32.5848ZM60.7135 32.5848H60.8412V32.4196H60.7135V32.5848ZM60.4753 32.5848H60.603V32.4196H60.4753V32.5848ZM60.2376 32.5848H60.3649V32.4196H60.2376V32.5848ZM59.9994 32.5848H60.1267V32.4196H59.9994V32.5848ZM59.7612 32.5848H59.8885V32.4196H59.7612V32.5848ZM59.523 32.5848H59.6503V32.4196H59.523V32.5848ZM59.2848 32.5848H59.4121V32.4196H59.2848V32.5848ZM59.0466 32.5848H59.1739V32.4196H59.0466V32.5848ZM44.502 38.0801H47.5435V36.3052H44.502V38.0801ZM45.3242 34.6359C45.7747 34.4107 46.0227 33.8925 46.0227 33.8925C46.0227 33.8925 46.2708 34.4107 46.7214 34.6359C47.172 34.8611 47.6451 35.0638 47.6451 36.0103H44.4004C44.4004 35.0638 44.8736 34.8611 45.3242 34.6359Z" stroke="#14306E" stroke-width="0.15" stroke-miterlimit="10" stroke-linecap="round" stroke-linejoin="round"/>
<path d="M47.2309 37.3943V38.0801H46.985V37.3943C46.985 37.1172 46.8695 37.0193 46.7818 36.9347C46.635 36.7935 46.5791 36.6985 46.5791 36.6985C46.5791 36.6985 46.5232 36.7935 46.3766 36.9347C46.2888 37.0193 46.1733 37.1172 46.1733 37.3943V38.0801H45.8959V37.3943C45.8959 37.1172 45.7805 37.0193 45.6927 36.9347C45.546 36.7935 45.4901 36.6985 45.4901 36.6985C45.4901 36.6985 45.4344 36.7935 45.2875 36.9347C45.2001 37.0193 45.0845 37.1172 45.0845 37.3943V38.0801H44.7909V37.3943C44.7909 37.1172 44.7085 37.0193 44.6463 36.9347C44.5417 36.7935 44.502 36.6985 44.502 36.6985V36.3052H47.5435V36.6985C47.5435 36.6985 47.5008 36.7935 47.3875 36.9347C47.3198 37.0193 47.2309 37.1172 47.2309 37.3943ZM58.8214 37.3905C58.8214 37.4549 58.8733 37.5067 58.9371 37.5067H61.4271C61.491 37.5067 61.5428 37.4549 61.5428 37.3905C61.5428 37.3271 61.491 37.2748 61.4271 37.2748H58.9371C58.8733 37.2748 58.8214 37.3271 58.8214 37.3905Z" stroke="#14306E" stroke-width="0.15" stroke-miterlimit="10" stroke-linecap="round" stroke-linejoin="round"/>
<path d="M61.3169 37.6718H61.4447V37.5066H61.3169V37.6718ZM61.0787 37.6718H61.2065V37.5066H61.0787V37.6718ZM60.841 37.6718H60.9683V37.5066H60.841V37.6718ZM60.6028 37.6718H60.7301V37.5066H60.6028V37.6718ZM60.3646 37.6718H60.4919V37.5066H60.3646V37.6718ZM60.1264 37.6718H60.2537V37.5066H60.1264V37.6718ZM59.8882 37.6718H60.0155V37.5066H59.8882V37.6718ZM59.6501 37.6718H59.7773V37.5066H59.6501V37.6718ZM59.4119 37.6718H59.5391V37.5066H59.4119V37.6718ZM59.1737 37.6718H59.3014V37.5066H59.1737V37.6718ZM58.9355 37.6718H59.0632V37.5066H58.9355V37.6718ZM58.6689 41.8901C58.6689 41.954 58.7208 42.0059 58.7847 42.0059H61.5359C61.6003 42.0059 61.6521 41.954 61.6521 41.8901C61.6521 41.8263 61.6003 41.7744 61.5359 41.7744H58.7847C58.7208 41.7744 58.6689 41.8263 58.6689 41.8901Z" stroke="#14306E" stroke-width="0.15" stroke-miterlimit="10" stroke-linecap="round" stroke-linejoin="round"/>
<path d="M61.4041 42.1711H61.5318V42.0059H61.4041V42.1711ZM61.1659 42.1711H61.2932V42.0059H61.1659V42.1711ZM60.9282 42.1711H61.0554V42.0059H60.9282V42.1711ZM60.6895 42.1711H60.8173V42.0059H60.6895V42.1711ZM60.4518 42.1711H60.5791V42.0059H60.4518V42.1711ZM60.2136 42.1711H60.3409V42.0059H60.2136V42.1711ZM59.9754 42.1711H60.1027V42.0059H59.9754V42.1711ZM59.7372 42.1711H59.8645V42.0059H59.7372V42.1711ZM59.4995 42.1711H59.6263V42.0059H59.4995V42.1711ZM59.2608 42.1711H59.3881V42.0059H59.2608V42.1711ZM59.0226 42.1711H59.1499V42.0059H59.0226V42.1711ZM58.7845 42.1711H58.9117V42.0059H58.7845V42.1711ZM45.8017 39.8502C46.0548 39.7239 46.3004 39.5303 46.3004 39.5303C46.3004 39.5303 46.5459 39.7239 46.7987 39.8502C47.0519 39.9769 47.424 40.1181 47.424 41.1007V42.6931H45.1768V41.1007C45.1768 40.1181 45.5486 39.9769 45.8017 39.8502ZM45.8017 43.7784C46.0548 43.6517 46.3004 43.4586 46.3004 43.4586C46.3004 43.4586 46.5459 43.6517 46.7987 43.7784C47.0519 43.9047 47.424 44.0464 47.424 45.0284V46.6211H45.1768V45.0284C45.1768 44.0464 45.5486 43.9047 45.8017 43.7784ZM49.2196 39.8502C49.3726 39.7239 49.521 39.5303 49.521 39.5303C49.521 39.5303 49.6695 39.7239 49.8222 39.8502C49.9753 39.9769 50.2004 40.1181 50.2004 41.1007V42.6931H48.8416V41.1007C48.8416 40.1181 49.0665 39.9769 49.2196 39.8502ZM49.2196 43.7784C49.3726 43.6517 49.521 43.4586 49.521 43.4586C49.521 43.4586 49.6695 43.6517 49.8222 43.7784C49.9753 43.9047 50.2004 44.0464 50.2004 45.0284V46.6211H48.8416V45.0284C48.8416 44.0464 49.0665 43.9047 49.2196 43.7784Z" stroke="#14306E" stroke-width="0.15" stroke-miterlimit="10" stroke-linecap="round" stroke-linejoin="round"/>
<path d="M48.3208 46.6211H44.3672V38.0801H48.3208V46.6211ZM48.3208 46.6211H50.7115V38.6443L48.3208 38.08V46.6211Z" stroke="#14306E" stroke-width="0.15" stroke-miterlimit="10" stroke-linecap="round" stroke-linejoin="round"/>
<path d="M48.3208 38.4224V38.7384M48.3208 38.4224H44.3672V38.7384H48.3208M48.3208 38.4224L50.7115 38.9862V39.3022L48.3208 38.7384M59.023 42.1711V42.0059H59.1502V42.1711H59.023ZM59.1738 37.5066H59.3015V37.6718H59.1738V37.5066ZM59.2612 42.0059H59.3884V42.1711H59.2612V42.0059ZM59.412 37.5066H59.5392V37.6718H59.412V37.5066ZM59.4998 42.0059H59.6266V42.1711H59.4998V42.0059ZM59.6502 37.5066H59.7774V37.6718H59.6502V37.5066ZM59.7376 42.0059H59.8648V42.1711H59.7376V42.0059ZM59.8883 37.5066H60.0156V37.6718H59.8883V37.5066ZM59.9757 42.0059H60.103V42.1711H59.9757V42.0059ZM60.1265 37.5066H60.2538V37.6718H60.1265V37.5066ZM60.2139 42.0059H60.3412V42.1711H60.2139V42.0059ZM60.3647 37.5066H60.492V37.6718H60.3647V37.5066ZM60.4521 42.0059H60.5794V42.1711H60.4521V42.0059ZM60.6029 37.5066H60.7302V37.6718H60.6029V37.5066ZM60.6898 42.0059H60.8176V42.1711H60.6898V42.0059ZM60.8411 37.5066H60.9684V37.6718H60.8411V37.5066ZM60.9285 42.0059H61.0558V42.1711H60.9285V42.0059ZM61.0788 37.5066H61.2066V37.6718H61.0788V37.5066ZM61.1662 42.0059H61.2935V42.1711H61.1662V42.0059ZM58.7699 46.6211H61.5941L61.4126 42.1711H61.4044V42.0059H61.4063L61.0222 32.5848H60.9516V32.4196H60.8411V32.5848H60.7134V32.4196H60.6029V32.5848H60.4752V32.4196H60.3647V32.5848H60.2375V32.4196H60.1265V32.5848H59.9993V32.4196H59.8883V32.5848H59.7611V32.4196H59.6502V32.5848H59.5229V32.4196H59.412V32.5848H59.3418L58.7699 46.6211ZM53.4109 35.6352H54.665V34.5019H53.4109V35.6352ZM53.75 33.7589C53.9358 33.6657 54.038 33.4525 54.038 33.4525C54.038 33.4525 54.1402 33.6657 54.326 33.7589C54.5117 33.8516 54.7068 33.9351 54.7068 34.3251H53.3691C53.3691 33.9351 53.5642 33.8516 53.75 33.7589Z" stroke="#14306E" stroke-width="0.15" stroke-miterlimit="10" stroke-linecap="round" stroke-linejoin="round"/>
<path d="M53.0908 34.4136C53.0908 34.4621 53.1302 34.502 53.1789 34.502H54.8978C54.9465 34.502 54.9858 34.4621 54.9858 34.4136C54.9858 34.3651 54.9465 34.3253 54.8978 34.3253H53.1789C53.1302 34.3253 53.0908 34.3651 53.0908 34.4136ZM53.0908 35.7232C53.0908 35.7721 53.1302 35.8115 53.1789 35.8115H54.8978C54.9465 35.8115 54.9858 35.7721 54.9858 35.7232C54.9858 35.6747 54.9465 35.6353 54.8978 35.6353H53.1789C53.1302 35.6353 53.0908 35.6747 53.0908 35.7232Z" stroke="#14306E" stroke-width="0.15" stroke-miterlimit="10" stroke-linecap="round" stroke-linejoin="round"/>
<path d="M53.6507 34.951C53.6507 34.8367 53.6982 34.7964 53.7343 34.7618C53.795 34.7032 53.8178 34.6643 53.8178 34.6643C53.8178 34.6643 53.841 34.7032 53.9017 34.7618C53.9378 34.7964 53.9853 34.8367 53.9853 34.951V35.4836H53.6507V34.951ZM54.0998 34.951C54.0998 34.8367 54.1473 34.7964 54.1834 34.7618C54.2441 34.7032 54.2669 34.6643 54.2669 34.6643C54.2669 34.6643 54.2901 34.7032 54.3505 34.7618C54.3865 34.7964 54.4343 34.8367 54.4343 34.951V35.4836H54.0998V34.951ZM53.4105 35.4836V35.6353H54.6646V35.4836H54.5357V34.951C54.5357 34.8367 54.5723 34.7964 54.6003 34.7618C54.6469 34.7032 54.6646 34.6643 54.6646 34.6643V34.502H53.4105V34.6643C53.4105 34.6643 53.4271 34.7032 53.47 34.7618C53.4959 34.7964 53.5298 34.8367 53.5298 34.951V35.4836H53.4105ZM54.8047 35.9373H54.9018V35.8115H54.8047V35.9373ZM54.6235 35.9373H54.7205V35.8115H54.6234L54.6235 35.9373ZM54.4425 35.9373H54.5393V35.8115H54.4425V35.9373ZM54.2609 35.9373H54.358V35.8115H54.2609V35.9373ZM54.0797 35.9373H54.1767V35.8115H54.0797L54.0797 35.9373ZM53.8984 35.9373H53.9955V35.8115H53.8984V35.9373ZM53.7171 35.9373H53.8142V35.8115H53.7172L53.7171 35.9373ZM53.5358 35.9373H53.633V35.8115H53.5358V35.9373ZM53.3546 35.9373H53.4516V35.8115H53.3546L53.3546 35.9373ZM53.1733 35.9373H53.2704V35.8115H53.1734L53.1733 35.9373ZM53.002 39.5952C53.002 39.6442 53.0414 39.6836 53.09 39.6836H54.9851C55.0338 39.6836 55.0731 39.6442 55.0731 39.5952C55.0731 39.5467 55.0338 39.5074 54.9851 39.5074H53.0901C53.0414 39.5074 53.002 39.5467 53.002 39.5952Z" stroke="#14306E" stroke-width="0.15" stroke-miterlimit="10" stroke-linecap="round" stroke-linejoin="round"/>
<path d="M54.9026 39.8092H54.9994V39.6834H54.9026V39.8092ZM54.7213 39.8092H54.8181V39.6834H54.7213V39.8092ZM54.54 39.8092H54.6369V39.6834H54.54V39.8092ZM54.3588 39.8092H54.4556V39.6834H54.3588V39.8092ZM54.1775 39.8092H54.2743V39.6834H54.1775V39.8092ZM53.9963 39.8092H54.0933V39.6834H53.9963V39.8092ZM53.815 39.8092H53.9118V39.6834H53.815V39.8092ZM53.6334 39.8092H53.7305V39.6834H53.6334V39.8092ZM53.4524 39.8092H53.5493V39.6834H53.4524V39.8092ZM53.2712 39.8092H53.368V39.6834H53.2712V39.8092ZM53.09 39.8092H53.1867V39.6834H53.09V39.8092ZM52.8867 43.0195C52.8867 43.0685 52.9264 43.1079 52.9751 43.1079H55.0692C55.1178 43.1079 55.1572 43.0685 55.1572 43.0195C55.1572 42.971 55.1179 42.9317 55.0692 42.9317H52.9751C52.9264 42.9317 52.8867 42.971 52.8867 43.0195Z" stroke="#14306E" stroke-width="0.15" stroke-miterlimit="10" stroke-linecap="round" stroke-linejoin="round"/>
<path d="M54.9686 43.2344H55.0657V43.1081H54.9686L54.9686 43.2344ZM54.7873 43.2344H54.8841V43.1081H54.7873V43.2344ZM54.606 43.2344H54.7028V43.1081H54.606V43.2344ZM54.4248 43.2344H54.5216V43.1081H54.4248V43.2344ZM54.2435 43.2344H54.3406V43.1081H54.2436L54.2435 43.2344ZM54.0622 43.2344H54.159V43.1081H54.0622V43.2344ZM53.881 43.2344H53.9781V43.1081H53.881V43.2344ZM53.6997 43.2344H53.7965V43.1081H53.6997V43.2344ZM53.5184 43.2344H53.6156V43.1081H53.5184V43.2344ZM53.3372 43.2344H53.4339V43.1081H53.3372V43.2344ZM53.1559 43.2344H53.2527V43.1081H53.1559V43.2344ZM52.9746 43.2344H53.0715V43.1081H52.9746V43.2344Z" stroke="#14306E" stroke-width="0.15" stroke-miterlimit="10" stroke-linecap="round" stroke-linejoin="round"/>
<path d="M50.2526 37.0012H50.7263C50.7263 36.8629 50.6571 36.8331 50.5916 36.8004C50.5258 36.7673 50.4894 36.6914 50.4894 36.6914C50.4894 36.6914 50.4533 36.7673 50.3872 36.8004C50.3217 36.8331 50.2526 36.8629 50.2526 37.0012ZM50.2526 37.0012H50.7263C50.7437 37.0012 50.7575 37.0151 50.7575 37.0324C50.7575 37.0497 50.7437 37.0636 50.7263 37.0636H50.2526C50.2351 37.0636 50.2213 37.0497 50.2213 37.0324C50.2213 37.0151 50.2351 37.0012 50.2526 37.0012ZM48.5583 36.397C48.5583 36.2587 48.4889 36.2289 48.423 36.1963C48.3572 36.1631 48.3208 36.0873 48.3208 36.0873C48.3208 36.0873 48.2848 36.1631 48.219 36.1963C48.1532 36.2289 48.0839 36.2587 48.0839 36.397M48.5583 36.397H48.0839M48.5583 36.397C48.5755 36.397 48.5893 36.4109 48.5893 36.4282C48.5893 36.4455 48.5755 36.4594 48.5583 36.4594H48.0839C48.0669 36.4594 48.0527 36.4455 48.0527 36.4282C48.0527 36.4109 48.0669 36.397 48.0839 36.397M53.1561 43.2345V43.1082H53.2529V43.2345H53.1561ZM53.2709 39.6837H53.3677V39.8095H53.2709V39.6837ZM53.3374 43.1082H53.4341V43.2345H53.3374V43.1082ZM53.4521 39.6837H53.549V39.8095H53.4521V39.6837ZM53.5186 43.1082H53.6157V43.2345H53.5186V43.1082ZM53.6331 39.6837H53.7302V39.8095H53.6331V39.6837ZM53.6999 43.1082H53.7966V43.2345H53.6999V43.1082ZM53.8147 39.6837H53.9115V39.8095H53.8147V39.6837ZM53.8812 43.1082H53.9783V43.2345H53.8812V43.1082ZM53.996 39.6837H54.093V39.8095H53.996V39.6837ZM54.0624 43.1082H54.1592V43.2345H54.0624V43.1082ZM54.1772 39.6837H54.274V39.8095H54.1772V39.6837ZM54.2437 43.1082H54.3407V43.2345H54.2437L54.2437 43.1082ZM54.3585 39.6837H54.4553V39.8095H54.3585V39.6837ZM54.4249 43.1082H54.5217V43.2345H54.4249V43.1082ZM54.5398 39.6837H54.6366V39.8095H54.5398V39.6837ZM54.6062 43.1082H54.703V43.2345H54.6062V43.1082ZM54.721 39.6837H54.8178V39.8095H54.721V39.6837ZM54.7875 43.1082H54.8843V43.2345H54.7875V43.1082ZM52.9634 46.6212H55.1127L54.975 43.2345H54.9688V43.1082H54.9696L54.6774 35.9374H54.6239V35.8116H54.5398V35.9374H54.443V35.8116H54.3585V35.9374H54.2614V35.8116H54.1772V35.9374H54.0802V35.8116H53.996V35.9374H53.8989V35.8116H53.8147V35.9374H53.7176V35.8116H53.6335V35.9374H53.5363V35.8116H53.4521V35.9374H53.3987L52.9634 46.6212ZM48.099 38.0802H48.2986L48.5433 38.1331V36.4595H48.0991L48.099 38.0802ZM58.4237 49.312H62V46.6213H58.4237V49.312Z" stroke="#14306E" stroke-width="0.15" stroke-miterlimit="10" stroke-linecap="round" stroke-linejoin="round"/>
<path d="M39.7066 41.3175V42.8403M40.2837 41.3175V42.8403M40.0005 41.243V42.8403M39.3867 42.1886H40.6141M39.3867 42.5516H40.6141M39.3904 41.8208H40.6101M39.491 41.5138H40.5098M58.4236 47.0591H61.9998V46.8811H58.4236V47.0591ZM45.9552 46.6208V45.7199C45.9552 45.5293 46.1098 45.3744 46.3006 45.3744C46.4912 45.3744 46.6457 45.5293 46.6457 45.7199V46.6208H45.9552ZM45.9552 42.7019V41.801C45.9552 41.6104 46.1098 41.4557 46.3006 41.4557C46.4912 41.4557 46.6457 41.6104 46.6457 41.801V42.7019H45.9552ZM40.6141 42.8402V41.8567C40.6141 41.5177 40.3394 41.243 40.0005 41.243C39.6615 41.243 39.3867 41.5177 39.3867 41.8567V42.8402H40.6141ZM40.3381 27.0778C40.3381 27.2646 40.1869 27.4158 40.0005 27.4158C39.8135 27.4158 39.6627 27.2646 39.6627 27.0778C39.6627 26.8914 39.8135 26.7402 40.0005 26.7402C40.1869 26.7402 40.3381 26.8914 40.3381 27.0778Z" stroke="#14306E" stroke-width="0.15" stroke-miterlimit="10" stroke-linecap="round" stroke-linejoin="round"/>
<path d="M40.2634 26.5337C40.2634 26.6792 40.1458 26.7969 40.0006 26.7969C39.8551 26.7969 39.7373 26.6792 39.7373 26.5337C39.7373 26.3882 39.8551 26.2705 40.0006 26.2705C40.1458 26.2705 40.2634 26.3882 40.2634 26.5337ZM40.2634 25.7121C40.2634 25.8576 40.1458 25.9753 40.0006 25.9753C39.8551 25.9753 39.7373 25.8576 39.7373 25.7121C39.7373 25.5666 39.8551 25.4489 40.0006 25.4489C40.1458 25.4489 40.2634 25.5666 40.2634 25.7121Z" stroke="#14306E" stroke-width="0.15" stroke-miterlimit="10" stroke-linecap="round" stroke-linejoin="round"/>
<path d="M39.8975 25.9532V26.2928C39.9293 26.2788 39.9648 26.2707 40.0021 26.2707C40.0382 26.2707 40.0727 26.2779 40.104 26.2913V25.9547C40.0727 25.9676 40.0382 25.9753 40.002 25.9753C39.9648 25.9753 39.9293 25.9672 39.8975 25.9532M40.0021 27.416H40.104V27.4002C40.0718 27.4107 40.0375 27.416 40.002 27.416M40.0021 25.4491C40.0382 25.4491 40.0727 25.4567 40.104 25.4697V24.7935C40.104 24.7935 40.0934 24.6879 39.999 24.6879C39.905 24.6879 39.8975 24.7935 39.8975 24.7935V25.4711C39.9293 25.4572 39.9648 25.4491 40.0021 25.4491Z" stroke="#14306E" stroke-width="0.15" stroke-miterlimit="10" stroke-linecap="round" stroke-linejoin="round"/>
<path d="M39.8976 27.4159H40.0022C39.9656 27.4159 39.9307 27.4096 39.8976 27.3991V27.4159ZM40.001 34.0281C36.3198 34.0281 36.0625 34.3955 36.0625 34.3955V35.4443C36.0625 35.4443 36.3821 35.0539 40.001 35.0539C43.6198 35.0539 43.9393 35.4443 43.9393 35.4443V34.3955C43.9393 34.3955 43.6817 34.0281 40.001 34.0281Z" stroke="#14306E" stroke-width="0.15" stroke-miterlimit="10" stroke-linecap="round" stroke-linejoin="round"/>
<path d="M44.2289 31.1535C43.0697 29.2806 41.1317 28.5895 40.0935 27.4034C40.0643 27.4111 40.034 27.4159 40.0024 27.4159C39.97 27.4159 39.9386 27.4111 39.9092 27.4024C38.871 28.5895 36.9326 29.2801 35.7729 31.1535C34.5777 33.0845 36.0626 34.3955 36.0626 34.3955C36.0626 34.3955 36.3199 34.0281 40.0012 34.0281C43.6818 34.0281 43.9394 34.3955 43.9394 34.3955C43.9394 34.3955 45.4244 33.0845 44.2289 31.1535ZM40.0012 35.0539C36.3822 35.0539 36.0626 35.4444 36.0626 35.4444V36.6396H43.9394V35.4444C43.9394 35.4444 43.6199 35.0539 40.0012 35.0539Z" stroke="#14306E" stroke-width="0.15" stroke-miterlimit="10" stroke-linecap="round" stroke-linejoin="round"/>
</svg>
