<svg width="21" height="21" viewBox="0 0 21 21" fill="none" xmlns="http://www.w3.org/2000/svg">
<rect x="0.700195" y="0.699707" width="16.1" height="16.1" stroke="#999999"/>
<path d="M19.0588 15.5413C19.1369 15.6194 19.2635 15.6194 19.3416 15.5413L20.6144 14.2685C20.6925 14.1904 20.6925 14.0638 20.6144 13.9857C20.5363 13.9076 20.4097 13.9076 20.3316 13.9857L19.2002 15.1171L18.0688 13.9857C17.9907 13.9076 17.8641 13.9076 17.786 13.9857C17.7079 14.0638 17.7079 14.1904 17.786 14.2685L19.0588 15.5413ZM19.3416 0.0584812C19.2635 -0.0196238 19.1369 -0.0196238 19.0588 0.0584812L17.786 1.33127C17.7079 1.40938 17.7079 1.53601 17.786 1.61412C17.8641 1.69222 17.9907 1.69222 18.0688 1.61412L19.2002 0.482745L20.3316 1.61412C20.4097 1.69222 20.5363 1.69222 20.6144 1.61412C20.6925 1.53601 20.6925 1.40938 20.6144 1.33127L19.3416 0.0584812ZM19.2002 15.3999H19.4002V0.199903H19.2002H19.0002V15.3999H19.2002Z" fill="#999999"/>
<path d="M0.0587739 19.0583C-0.0193309 19.1364 -0.0193309 19.263 0.0587739 19.3411L1.33157 20.6139C1.40967 20.692 1.5363 20.692 1.61441 20.6139C1.69251 20.5358 1.69251 20.4092 1.61441 20.3311L0.483038 19.1997L1.61441 18.0683C1.69251 17.9902 1.69251 17.8636 1.61441 17.7855C1.5363 17.7074 1.40967 17.7074 1.33157 17.7855L0.0587739 19.0583ZM15.5416 19.3411C15.6197 19.263 15.6197 19.1364 15.5416 19.0583L14.2688 17.7855C14.1907 17.7074 14.0641 17.7074 13.986 17.7855C13.9079 17.8636 13.9079 17.9902 13.986 18.0683L15.1174 19.1997L13.986 20.3311C13.9079 20.4092 13.9079 20.5358 13.986 20.6139C14.0641 20.692 14.1907 20.692 14.2688 20.6139L15.5416 19.3411ZM0.200195 19.1997V19.3997H15.4002V19.1997V18.9997H0.200195V19.1997Z" fill="#999999"/>
</svg>
