<svg width="16" height="14" viewBox="0 0 16 14" fill="none" xmlns="http://www.w3.org/2000/svg">
<path d="M0.549524 8.77155H15.4348V8.16342C15.4348 8.01628 15.4062 7.87955 15.3554 7.75714C15.3007 7.62692 15.22 7.51103 15.1197 7.41076C15.0585 7.34956 14.9895 7.29356 14.9153 7.24408C14.8397 7.19329 14.759 7.14902 14.6744 7.11126C14.4465 7.06177 14.2199 7.01489 13.9946 6.97062C13.768 6.92634 13.5402 6.88467 13.311 6.84561C13.3006 6.84431 13.2927 6.843 13.2823 6.8404C13.1664 6.82087 13.0557 6.80264 12.9503 6.78571C12.8448 6.76878 12.7328 6.75185 12.6156 6.73362H12.613C11.8161 6.63205 11.0217 6.55392 10.2287 6.50183C9.43436 6.44974 8.64393 6.4237 7.85871 6.4224C7.39253 6.4224 6.92765 6.43021 6.46277 6.44844C6.00049 6.46667 5.53561 6.49272 5.07072 6.52918H5.06812C4.63319 6.56954 4.19956 6.62033 3.76463 6.67893C3.331 6.73753 2.89607 6.80654 2.45853 6.88337L2.41035 6.89509C2.40124 6.8977 2.39212 6.899 2.38431 6.899C2.3765 6.9003 2.36868 6.9003 2.36087 6.9003C2.15643 6.93676 1.94677 6.97713 1.73061 7.0201C1.52096 7.06177 1.3113 7.10605 1.10295 7.15162C1.05087 7.18027 1.00138 7.21283 0.954505 7.24668C0.907626 7.28184 0.862049 7.31961 0.821681 7.35997C0.734435 7.44722 0.665419 7.54749 0.61854 7.65948C0.574265 7.76495 0.549524 7.88215 0.549524 8.00977V8.77155ZM1.84911 0H13.9582C14.1157 0 14.2668 0.0312525 14.4048 0.0885489C14.5481 0.14845 14.677 0.235696 14.7851 0.342476C14.8931 0.450558 14.9804 0.579474 15.039 0.722715C15.0963 0.860747 15.1275 1.0118 15.1275 1.16937V6.72841C15.1939 6.76748 15.2591 6.81045 15.319 6.85733C15.3867 6.90942 15.4505 6.96411 15.5091 7.02271C15.6601 7.17376 15.7825 7.34956 15.8646 7.54749C15.9427 7.7337 15.9857 7.94075 15.9857 8.16473V8.95776C15.9896 8.97078 15.9935 8.9838 15.9961 8.99683V8.99943C15.9987 9.01636 16 9.03199 16 9.04761C16 9.06454 15.9987 9.08147 15.9948 9.0984C15.9922 9.11142 15.9883 9.12444 15.9844 9.13746V12.7393C15.9844 12.8148 15.9531 12.8839 15.9036 12.9333C15.8542 12.9828 15.7851 13.0141 15.7096 13.0141H15.1432C15.0794 13.0141 15.0208 12.9919 14.9739 12.9555C14.927 12.919 14.8918 12.8669 14.8775 12.807C14.7733 12.5075 14.6679 12.2705 14.5546 12.0856C14.4426 11.9033 14.3228 11.7731 14.1847 11.6806C14.0454 11.5882 13.8787 11.5296 13.6769 11.4944C13.4711 11.458 13.2315 11.4462 12.9464 11.4475L2.5601 11.4606H2.5549C2.35045 11.4567 2.18247 11.4827 2.04183 11.5374C1.9025 11.5921 1.78921 11.6741 1.69545 11.7796C1.58997 11.8968 1.50142 12.0466 1.42069 12.221C1.33865 12.3994 1.26443 12.6026 1.1902 12.8253C1.17197 12.8826 1.13551 12.9281 1.08993 12.9607C1.04696 12.9919 0.994873 13.0102 0.941483 13.0128C0.937576 13.0141 0.93367 13.0141 0.929763 13.0141H0.274762C0.199235 13.0141 0.130219 12.9828 0.0807357 12.9333C0.0312525 12.8839 0 12.8148 0 12.7393V8.01107C0 7.80662 0.0390657 7.61911 0.109384 7.44982C0.184911 7.27012 0.295597 7.10995 0.433629 6.97192C0.472695 6.93286 0.515667 6.89379 0.561244 6.85733C0.600309 6.82608 0.639375 6.79613 0.681045 6.76878V1.15765C0.681045 1.00008 0.712297 0.85033 0.769594 0.714902C0.829495 0.572963 0.916741 0.445349 1.02482 0.338569C1.1329 0.23179 1.26182 0.147147 1.40376 0.0885489C1.54179 0.0312525 1.69154 0 1.84911 0ZM13.9582 0.549524H1.84911C1.76447 0.549524 1.68373 0.566452 1.60951 0.596403C1.53268 0.627655 1.46496 0.673232 1.40767 0.729226C1.35167 0.783918 1.3061 0.851632 1.27484 0.924554C1.2462 0.996175 1.23057 1.07431 1.23057 1.15765V6.50444C1.26963 6.49141 1.3087 6.481 1.34907 6.47058C1.41288 6.45365 1.47668 6.43933 1.54049 6.42891C1.62904 6.41328 1.7254 6.39635 1.82958 6.37812C1.90771 6.3651 1.99105 6.35078 2.07699 6.33775V4.97306C2.07699 4.76731 2.11866 4.57068 2.19289 4.39098C2.27102 4.20347 2.38431 4.03548 2.52494 3.89485C2.66558 3.75421 2.83356 3.64092 3.02108 3.56279C3.20078 3.48856 3.39741 3.44689 3.60316 3.44689H6.1841C6.38984 3.44689 6.58647 3.48856 6.76618 3.56279C6.95369 3.64092 7.12167 3.75421 7.26231 3.89485C7.40295 4.03548 7.51624 4.20347 7.59437 4.39098C7.66859 4.57068 7.71026 4.76731 7.71026 4.97306V5.84423C7.80142 5.84292 7.89257 5.84292 7.98502 5.84292V4.97306C7.98502 4.76731 8.02669 4.57068 8.10092 4.39098C8.17905 4.20347 8.29234 4.03548 8.43298 3.89485C8.57361 3.75421 8.7416 3.64092 8.92911 3.56279C9.10881 3.48856 9.30544 3.44689 9.51119 3.44689H12.0921C12.2979 3.44689 12.4945 3.48856 12.6742 3.56279C12.8617 3.64092 13.0297 3.75421 13.1703 3.89485C13.311 4.03548 13.4243 4.20347 13.5024 4.39098C13.5766 4.57068 13.6183 4.76731 13.6183 4.97306V6.31952C13.716 6.33385 13.8201 6.35078 13.9321 6.36901C14.0558 6.38854 14.1743 6.40807 14.2889 6.42761C14.3475 6.43802 14.4074 6.44974 14.4673 6.46407C14.5051 6.47318 14.5415 6.4823 14.5767 6.49272V1.16937C14.5767 1.08603 14.5598 1.00659 14.5298 0.93367C14.4986 0.858143 14.4517 0.790429 14.3944 0.73183C14.3371 0.674534 14.2681 0.627655 14.1939 0.596403C14.1209 0.566452 14.0415 0.549524 13.9582 0.549524ZM5.62676 5.93277C5.8885 5.91324 6.15154 5.89631 6.41849 5.88329C6.6646 5.87027 6.91332 5.86115 7.16204 5.85464V4.97306C7.16204 4.84154 7.136 4.71523 7.08782 4.60063C7.03833 4.48083 6.96541 4.37405 6.87426 4.2829C6.78441 4.19305 6.67632 4.12013 6.55652 4.06934C6.44193 4.02116 6.31562 3.99512 6.1841 3.99512H3.60316C3.47164 3.99512 3.34532 4.02116 3.23073 4.06934C3.11093 4.11882 3.00415 4.19175 2.913 4.2829C2.82315 4.37275 2.75022 4.48083 2.69944 4.60063C2.65126 4.71523 2.62521 4.84154 2.62521 4.97306V6.25051C2.83617 6.21926 3.04973 6.19061 3.2685 6.16196C3.50419 6.13201 3.73859 6.10466 3.97037 6.07862C4.06023 6.0682 4.15659 6.05648 4.25686 6.04606C4.35061 6.03565 4.44828 6.02653 4.55245 6.01611C4.72955 5.99919 4.90535 5.98356 5.07854 5.96924C5.25694 5.95752 5.43924 5.94449 5.62676 5.93277ZM8.53455 5.84683C8.69211 5.84943 8.84968 5.85334 9.00724 5.85855C9.18174 5.86376 9.35623 5.87157 9.52942 5.87938H9.53072C9.8159 5.8898 10.0946 5.90282 10.3654 5.91845C10.6363 5.93408 10.9006 5.95361 11.1533 5.97575C11.5205 6.0083 11.876 6.04737 12.2132 6.09294C12.5153 6.13461 12.8018 6.18149 13.0701 6.23358V4.97306C13.0701 4.84154 13.044 4.71523 12.9958 4.60063C12.9464 4.48083 12.8734 4.37405 12.7823 4.2829C12.6924 4.19305 12.5844 4.12013 12.4646 4.06934C12.35 4.02116 12.2236 3.99512 12.0921 3.99512H9.51249C9.38097 3.99512 9.25466 4.02116 9.14007 4.06934C9.02027 4.11882 8.91349 4.19175 8.82233 4.2829C8.73248 4.37275 8.65956 4.48083 8.60877 4.60063C8.56059 4.71523 8.53455 4.84154 8.53455 4.97306V5.84683ZM15.4362 9.32237H0.549524V12.4646H0.735737C0.80866 12.2588 0.884187 12.0674 0.968829 11.8968C1.05998 11.7145 1.16286 11.553 1.28787 11.4137C1.43631 11.247 1.61081 11.1181 1.82046 11.0321C2.03011 10.9475 2.27492 10.9045 2.56922 10.911L12.9464 10.898C13.281 10.898 13.5675 10.9136 13.8175 10.9618C14.0715 11.01 14.2902 11.092 14.4869 11.2223C14.6692 11.3434 14.8254 11.5035 14.9661 11.7132C15.1002 11.9137 15.22 12.1598 15.3346 12.4633H15.4335V9.32237H15.4362Z" fill="#999999"/>
</svg>
