<svg width="30" height="25" viewBox="0 0 30 25" fill="none" xmlns="http://www.w3.org/2000/svg">
<path d="M1.03036 16.8501H28.9403V15.6819C28.9403 15.3992 28.8866 15.1366 28.7914 14.9014C28.6889 14.6513 28.5375 14.4287 28.3495 14.236C28.2347 14.1185 28.1053 14.0109 27.9661 13.9158C27.8245 13.8183 27.6732 13.7332 27.5144 13.6607C27.0872 13.5656 26.6623 13.4756 26.2399 13.3905C25.8151 13.3055 25.3878 13.2254 24.9581 13.1504C24.9386 13.1479 24.9239 13.1454 24.9044 13.1404C24.6871 13.1029 24.4795 13.0678 24.2818 13.0353C24.084 13.0028 23.874 12.9703 23.6543 12.9353H23.6494C22.1551 12.7401 20.6657 12.5901 19.1788 12.49C17.6894 12.3899 16.2074 12.3399 14.7351 12.3374C13.861 12.3374 12.9893 12.3524 12.1177 12.3874C11.2509 12.4225 10.3793 12.4725 9.50761 12.5425H9.50273C8.68723 12.6201 7.87418 12.7176 7.05868 12.8302C6.24563 12.9428 5.43013 13.0753 4.60975 13.2229L4.51941 13.2454C4.50232 13.2505 4.48523 13.253 4.47058 13.253C4.45593 13.2555 4.44128 13.2555 4.42663 13.2555C4.0433 13.3255 3.6502 13.403 3.24489 13.4856C2.85179 13.5656 2.4587 13.6507 2.06804 13.7382C1.97038 13.7933 1.87759 13.8558 1.7897 13.9209C1.7018 13.9884 1.61634 14.0609 1.54065 14.1385C1.37707 14.3061 1.24766 14.4987 1.15976 14.7138C1.07675 14.9164 1.03036 15.1416 1.03036 15.3867V16.8501ZM3.46708 0H26.1716C26.467 0 26.7502 0.060036 27.009 0.170102C27.2776 0.285171 27.5193 0.452772 27.722 0.657895C27.9246 0.865519 28.0882 1.11317 28.1981 1.38833C28.3055 1.65349 28.3641 1.94367 28.3641 2.24635V12.9253C28.4886 13.0003 28.6107 13.0828 28.723 13.1729C28.85 13.273 28.9696 13.378 29.0795 13.4906C29.3627 13.7808 29.5923 14.1185 29.7461 14.4987C29.8926 14.8564 29.9731 15.2542 29.9731 15.6844V17.2078C29.9805 17.2328 29.9878 17.2579 29.9927 17.2829V17.2879C29.9976 17.3204 30 17.3504 30 17.3804C30 17.4129 29.9976 17.4455 29.9902 17.478C29.9853 17.503 29.978 17.528 29.9707 17.553V24.4722C29.9707 24.6173 29.9121 24.7498 29.8193 24.8449C29.7265 24.94 29.5971 25 29.4555 25H28.3934C28.2738 25 28.1639 24.9575 28.076 24.8874C27.9881 24.8174 27.9222 24.7173 27.8953 24.6023C27.7 24.0269 27.5022 23.5716 27.2898 23.2164C27.0798 22.8662 26.8552 22.6161 26.5964 22.4385C26.3351 22.2609 26.0226 22.1483 25.6442 22.0807C25.2584 22.0107 24.8091 21.9882 24.2744 21.9907L4.8002 22.0157H4.79043C4.4071 22.0082 4.09213 22.0582 3.82844 22.1633C3.56718 22.2684 3.35477 22.426 3.17897 22.6286C2.9812 22.8537 2.81517 23.1414 2.66379 23.4766C2.50997 23.8193 2.3708 24.2095 2.23163 24.6373C2.19744 24.7473 2.12908 24.8349 2.04362 24.8974C1.96305 24.9575 1.86539 24.9925 1.76528 24.9975C1.75796 25 1.75063 25 1.74331 25H0.515179C0.373566 25 0.24416 24.94 0.15138 24.8449C0.0585985 24.7498 0 24.6173 0 24.4722V15.3892C0 14.9965 0.0732481 14.6363 0.205095 14.3111C0.346708 13.9659 0.554244 13.6582 0.813054 13.393C0.886303 13.318 0.966875 13.2429 1.05233 13.1729C1.12558 13.1129 1.19883 13.0553 1.27696 13.0028V2.22383C1.27696 1.92115 1.33556 1.63348 1.44299 1.37332C1.5553 1.10066 1.71889 0.855513 1.92154 0.65039C2.1242 0.445267 2.36592 0.28267 2.63205 0.170102C2.89086 0.060036 3.17164 0 3.46708 0ZM26.1716 1.05563H3.46708C3.30837 1.05563 3.157 1.08815 3.01782 1.14569C2.87377 1.20572 2.74681 1.29328 2.63937 1.40084C2.53439 1.5059 2.44893 1.63598 2.39033 1.77607C2.33662 1.91365 2.30732 2.06374 2.30732 2.22383V12.495C2.38056 12.47 2.45381 12.45 2.5295 12.43C2.64914 12.3974 2.76878 12.3699 2.88842 12.3499C3.05445 12.3199 3.23513 12.2874 3.43045 12.2524C3.57695 12.2273 3.73321 12.1998 3.89436 12.1748V9.55323C3.89436 9.15799 3.97249 8.78027 4.11166 8.43506C4.25816 8.07485 4.47058 7.75215 4.73427 7.48199C4.99796 7.21183 5.31293 6.9942 5.66452 6.84411C6.00146 6.70152 6.37015 6.62147 6.75592 6.62147H11.5952C11.981 6.62147 12.3496 6.70152 12.6866 6.84411C13.0382 6.9942 13.3531 7.21183 13.6168 7.48199C13.8805 7.75215 14.0929 8.07485 14.2394 8.43506C14.3786 8.78027 14.4567 9.15799 14.4567 9.55323V11.2267C14.6277 11.2242 14.7986 11.2242 14.9719 11.2242V9.55323C14.9719 9.15799 15.0501 8.78027 15.1892 8.43506C15.3357 8.07485 15.5481 7.75215 15.8118 7.48199C16.0755 7.21183 16.3905 6.9942 16.7421 6.84411C17.079 6.70152 17.4477 6.62147 17.8335 6.62147H22.6727C23.0585 6.62147 23.4272 6.70152 23.7641 6.84411C24.1157 6.9942 24.4307 7.21183 24.6944 7.48199C24.9581 7.75215 25.1705 8.07485 25.317 8.43506C25.4562 8.78027 25.5343 9.15799 25.5343 9.55323V12.1398C25.7174 12.1673 25.9128 12.1998 26.1227 12.2348C26.3547 12.2724 26.5769 12.3099 26.7917 12.3474C26.9016 12.3674 27.0139 12.3899 27.1262 12.4174C27.197 12.435 27.2654 12.4525 27.3313 12.4725V2.24635C27.3313 2.08625 27.2996 1.93366 27.2434 1.79358C27.1848 1.64849 27.0969 1.51841 26.9895 1.40584C26.8821 1.29578 26.7527 1.20572 26.6135 1.14569C26.4768 1.08815 26.3278 1.05563 26.1716 1.05563ZM10.5502 11.3968C11.0409 11.3593 11.5341 11.3268 12.0347 11.3018C12.4961 11.2768 12.9625 11.2593 13.4288 11.2467V9.55323C13.4288 9.30058 13.38 9.05793 13.2897 8.8378C13.1969 8.60767 13.0601 8.40254 12.8892 8.22744C12.7208 8.05483 12.5181 7.91475 12.2935 7.81719C12.0786 7.72463 11.8418 7.6746 11.5952 7.6746H6.75592C6.50932 7.6746 6.27248 7.72463 6.05762 7.81719C5.83299 7.91225 5.63278 8.05233 5.46187 8.22744C5.2934 8.40004 5.15667 8.60767 5.06145 8.8378C4.97111 9.05793 4.92228 9.30058 4.92228 9.55323V12.0072C5.31782 11.9472 5.71824 11.8921 6.12843 11.8371C6.57036 11.7796 7.00985 11.727 7.44445 11.677C7.61292 11.657 7.7936 11.6345 7.98161 11.6145C8.1574 11.5945 8.34052 11.5769 8.53585 11.5569C8.86791 11.5244 9.19753 11.4944 9.52226 11.4669C9.85676 11.4444 10.1986 11.4194 10.5502 11.3968ZM16.0023 11.2317C16.2977 11.2367 16.5931 11.2442 16.8886 11.2543C17.2158 11.2643 17.5429 11.2793 17.8677 11.2943H17.8701C18.4048 11.3143 18.9273 11.3393 19.4352 11.3693C19.943 11.3993 20.4387 11.4369 20.9123 11.4794C21.6009 11.5419 22.2674 11.617 22.8998 11.7045C23.4663 11.7846 24.0034 11.8746 24.5064 11.9747V9.55323C24.5064 9.30058 24.4576 9.05793 24.3672 8.8378C24.2744 8.60767 24.1377 8.40254 23.9668 8.22744C23.7983 8.05483 23.5957 7.91475 23.371 7.81719C23.1562 7.72463 22.9193 7.6746 22.6727 7.6746H17.8359C17.5893 7.6746 17.3525 7.72463 17.1376 7.81719C16.913 7.91225 16.7128 8.05233 16.5419 8.22744C16.3734 8.40004 16.2367 8.60767 16.1415 8.8378C16.0511 9.05793 16.0023 9.30058 16.0023 9.55323V11.2317ZM28.9428 17.9082H1.03036V23.9444H1.37951C1.51624 23.5491 1.65785 23.1814 1.81655 22.8537C1.98747 22.5035 2.18035 22.1933 2.41475 21.9257C2.69309 21.6055 3.02027 21.3578 3.41336 21.1927C3.80646 21.0301 4.26548 20.9476 4.81729 20.9601L24.2744 20.9351C24.9019 20.9351 25.4391 20.9651 25.9079 21.0576C26.384 21.1502 26.7942 21.3078 27.1629 21.5579C27.5047 21.7906 27.7977 22.0983 28.0614 22.501C28.3129 22.8862 28.5375 23.359 28.7523 23.9419H28.9379V17.9082H28.9428Z" fill="#999999"/>
</svg>
