<svg width="38" height="35" viewBox="0 0 38 35" fill="none" xmlns="http://www.w3.org/2000/svg">
<path fill-rule="evenodd" clip-rule="evenodd" d="M0 30.9461H4.55208V0.485514C4.55208 0.219564 4.77165 0 5.0376 0H20.4565C20.7225 0 20.9421 0.219564 20.9421 0.485514V11.9059H34.5859C34.8519 11.9059 35.0715 12.1255 35.0715 12.3914V30.943H38V34.9601H0V30.9461ZM8.44857 4.58301H11.6029C11.6987 4.58301 11.7791 4.66341 11.7791 4.75928V8.58154C11.7791 8.67741 11.6987 8.75781 11.6029 8.75781H8.44857C8.3527 8.75781 8.2723 8.67741 8.2723 8.58154V4.75928C8.2723 4.66341 8.3527 4.58301 8.44857 4.58301ZM13.7923 23.5954H16.9466C17.0425 23.5954 17.1229 23.6758 17.1229 23.7716V27.5939C17.1229 27.6898 17.0425 27.7702 16.9466 27.7702H13.7923C13.6965 27.7702 13.616 27.6898 13.616 27.5939V23.7716C13.616 23.6727 13.6965 23.5954 13.7923 23.5954ZM8.44857 23.5954H11.6029C11.6987 23.5954 11.7791 23.6758 11.7791 23.7716V27.5939C11.7791 27.6898 11.6987 27.7702 11.6029 27.7702H8.44857C8.3527 27.7702 8.2723 27.6898 8.2723 27.5939V23.7716C8.2723 23.6727 8.3527 23.5954 8.44857 23.5954ZM13.7923 17.2559H16.9466C17.0425 17.2559 17.1229 17.3363 17.1229 17.4321V21.2544C17.1229 21.3503 17.0425 21.4307 16.9466 21.4307H13.7923C13.6965 21.4307 13.616 21.3503 13.616 21.2544V17.4352C13.616 17.3363 13.6965 17.2559 13.7923 17.2559ZM8.44857 17.2559H11.6029C11.6987 17.2559 11.7791 17.3363 11.7791 17.4321V21.2544C11.7791 21.3503 11.6987 21.4307 11.6029 21.4307H8.44857C8.3527 21.4307 8.2723 21.3503 8.2723 21.2544V17.4352C8.2723 17.3363 8.3527 17.2559 8.44857 17.2559ZM13.7923 10.9194H16.9466C17.0425 10.9194 17.1229 10.9998 17.1229 11.0957V14.918C17.1229 15.0138 17.0425 15.0942 16.9466 15.0942H13.7923C13.6965 15.0942 13.616 15.0138 13.616 14.918V11.0957C13.616 10.9998 13.6965 10.9194 13.7923 10.9194ZM8.44857 10.9194H11.6029C11.6987 10.9194 11.7791 10.9998 11.7791 11.0957V14.918C11.7791 15.0138 11.6987 15.0942 11.6029 15.0942H8.44857C8.3527 15.0942 8.2723 15.0138 8.2723 14.918V11.0957C8.2723 10.9998 8.3527 10.9194 8.44857 10.9194ZM13.7923 4.58301H16.9466C17.0425 4.58301 17.1229 4.66341 17.1229 4.75928V8.58154C17.1229 8.67741 17.0425 8.75781 16.9466 8.75781H13.7923C13.6965 8.75781 13.616 8.67741 13.616 8.58154V4.75928C13.616 4.66341 13.6965 4.58301 13.7923 4.58301ZM7.1652 2.26367H18.2733C18.465 2.26367 18.6227 2.45231 18.6227 2.68115V29.236C18.6227 29.4648 18.465 29.6535 18.2733 29.6535H7.1652C6.97347 29.6535 6.81576 29.4648 6.81576 29.236V2.68115C6.81576 2.45231 6.97347 2.26367 7.1652 2.26367ZM22.4543 16.5229H25.6086C25.7044 16.5229 25.7848 16.6034 25.7848 16.6992V20.5215C25.7848 20.6173 25.7044 20.6978 25.6086 20.6978H22.4543C22.3584 20.6978 22.278 20.6173 22.278 20.5215V16.6992C22.278 16.6034 22.3584 16.5229 22.4543 16.5229ZM27.798 23.5954H30.9523C31.0482 23.5954 31.1286 23.6758 31.1286 23.7716V27.5939C31.1286 27.6898 31.0482 27.7702 30.9523 27.7702H27.798C27.7021 27.7702 27.6217 27.6898 27.6217 27.5939V23.7716C27.6217 23.6727 27.7021 23.5954 27.798 23.5954ZM22.4543 23.5954H25.6086C25.7044 23.5954 25.7848 23.6758 25.7848 23.7716V27.5939C25.7848 27.6898 25.7044 27.7702 25.6086 27.7702H22.4543C22.3584 27.7702 22.278 27.6898 22.278 27.5939V23.7716C22.278 23.6727 22.3584 23.5954 22.4543 23.5954ZM27.798 16.5229H30.9523C31.0482 16.5229 31.1286 16.6034 31.1286 16.6992V20.5215C31.1286 20.6173 31.0482 20.6978 30.9523 20.6978H27.798C27.7021 20.6978 27.6217 20.6173 27.6217 20.5215V16.6992C27.6217 16.6034 27.7021 16.5229 27.798 16.5229ZM21.2946 14.1696H32.4027C32.5944 14.1696 32.7521 14.3582 32.7521 14.5871V29.236C32.7521 29.4648 32.5944 29.6535 32.4027 29.6535H21.2946C21.1029 29.6535 20.9452 29.4648 20.9452 29.236V14.5871C20.9452 14.3582 21.1029 14.1696 21.2946 14.1696Z" fill="#999999"/>
</svg>
