<svg width="20" height="19" viewBox="0 0 20 19" fill="none" xmlns="http://www.w3.org/2000/svg">
<path d="M1.88498 2.25098H18.115C18.6337 2.25098 19.1051 2.46294 19.4465 2.80438C19.788 3.14584 19.9999 3.61719 19.9999 4.13594V16.6298C19.9999 17.1485 19.788 17.6199 19.4465 17.9613C19.1051 18.3028 18.6337 18.5147 18.115 18.5147H1.88498C1.36622 18.5147 0.894863 18.3028 0.553407 17.9613C0.211961 17.6199 0 17.1485 0 16.6298V4.13594C0 3.61719 0.211961 3.14584 0.553407 2.80438C0.894868 2.46294 1.36623 2.25098 1.88498 2.25098ZM18.115 3.02245H1.88498C1.57916 3.02245 1.30084 3.14785 1.09885 3.34983C0.89687 3.55183 0.77147 3.83013 0.77147 4.13594V16.6298C0.77147 16.9356 0.89687 17.2139 1.09885 17.4159C1.30084 17.6179 1.57916 17.7433 1.88498 17.7433H18.115C18.4208 17.7433 18.6991 17.6179 18.9011 17.4159C19.1031 17.2139 19.2285 16.9356 19.2285 16.6298V4.13594C19.2285 3.83013 19.1031 3.55183 18.9011 3.34983C18.6991 3.14785 18.4208 3.02245 18.115 3.02245Z" fill="white"/>
<path d="M0.385737 6.25244C0.172709 6.25244 0 6.42515 0 6.63818C0 6.85121 0.172709 7.02392 0.385737 7.02392H19.6143C19.8273 7.02392 20 6.85121 20 6.63818C20 6.42515 19.8273 6.25244 19.6143 6.25244H0.385737Z" fill="white"/>
<path d="M3.83712 3.33691C4.19619 3.33691 4.52132 3.4825 4.75668 3.71785C4.99202 3.95322 5.13762 4.27835 5.13762 4.63742C5.13762 4.99649 4.99202 5.32164 4.75668 5.55698C4.52132 5.79233 4.19619 5.93792 3.83712 5.93792C3.47804 5.93792 3.1529 5.79232 2.91756 5.55698C2.68221 5.32161 2.53662 4.99648 2.53662 4.63742C2.53662 4.27835 2.68222 3.95322 2.91756 3.71785C3.1529 3.48252 3.47804 3.33691 3.83712 3.33691ZM4.21123 4.2633C4.11553 4.1676 3.98324 4.10839 3.83712 4.10839C3.69099 4.10839 3.55871 4.1676 3.46301 4.2633C3.36731 4.359 3.3081 4.49129 3.3081 4.63742C3.3081 4.78355 3.36731 4.91583 3.46301 5.01153C3.55871 5.10723 3.69099 5.16644 3.83712 5.16644C3.98324 5.16644 4.11553 5.10723 4.21123 5.01153C4.30694 4.91583 4.36615 4.78355 4.36615 4.63742C4.36615 4.49129 4.30694 4.359 4.21123 4.2633Z" fill="white"/>
<path d="M16.1628 3.33691C16.5219 3.33691 16.847 3.48252 17.0824 3.71785C17.3177 3.95322 17.4633 4.27835 17.4633 4.63742C17.4633 4.99648 17.3177 5.32161 17.0824 5.55698C16.847 5.79231 16.5219 5.93792 16.1628 5.93792C15.8037 5.93792 15.4786 5.79233 15.2432 5.55698C15.0079 5.32164 14.8623 4.99649 14.8623 4.63742C14.8623 4.27835 15.0079 3.95322 15.2432 3.71785C15.4786 3.4825 15.8037 3.33691 16.1628 3.33691ZM16.5369 4.2633C16.4412 4.1676 16.3089 4.10839 16.1628 4.10839C16.0167 4.10839 15.8844 4.1676 15.7887 4.2633C15.693 4.359 15.6338 4.49129 15.6338 4.63742C15.6338 4.78355 15.693 4.91583 15.7887 5.01153C15.8844 5.10723 16.0167 5.16644 16.1628 5.16644C16.3089 5.16644 16.4412 5.10723 16.5369 5.01153C16.6326 4.91583 16.6918 4.78355 16.6918 4.63742C16.6918 4.49129 16.6326 4.359 16.5369 4.2633Z" fill="white"/>
<path d="M4.22313 0.385737C4.22313 0.172709 4.05043 0 3.8374 0C3.62437 0 3.45166 0.172709 3.45166 0.385737V3.72439C3.45166 3.93742 3.62437 4.11013 3.8374 4.11013C4.05043 4.11013 4.22313 3.93742 4.22313 3.72439V0.385737Z" fill="white"/>
<path d="M16.5483 0.385737C16.5483 0.172709 16.3756 0 16.1626 0C15.9496 0 15.7769 0.172709 15.7769 0.385737V3.72439C15.7769 3.93742 15.9496 4.11013 16.1626 4.11013C16.3756 4.11013 16.5483 3.93742 16.5483 3.72439V0.385737Z" fill="white"/>
<path d="M8.93554 8.24951C8.72251 8.24951 8.5498 8.42222 8.5498 8.63525C8.5498 8.84828 8.72251 9.02099 8.93554 9.02099H10.3149C10.5279 9.02099 10.7006 8.84828 10.7006 8.63525C10.7006 8.42222 10.5279 8.24951 10.3149 8.24951H8.93554Z" fill="white"/>
<path d="M12.6235 8.24951C12.4105 8.24951 12.2378 8.42222 12.2378 8.63525C12.2378 8.84828 12.4105 9.02099 12.6235 9.02099H14.0028C14.2159 9.02099 14.3886 8.84828 14.3886 8.63525C14.3886 8.42222 14.2159 8.24951 14.0028 8.24951H12.6235Z" fill="white"/>
<path d="M16.1221 8.24951C15.909 8.24951 15.7363 8.42222 15.7363 8.63525C15.7363 8.84828 15.909 9.02099 16.1221 9.02099H17.5014C17.7144 9.02099 17.8871 8.84828 17.8871 8.63525C17.8871 8.42222 17.7144 8.24951 17.5014 8.24951H16.1221Z" fill="white"/>
<path d="M2.49853 10.7485C2.2855 10.7485 2.11279 10.9212 2.11279 11.1343C2.11279 11.3473 2.2855 11.52 2.49853 11.52H3.87784C4.09087 11.52 4.26358 11.3473 4.26358 11.1343C4.26358 10.9212 4.09087 10.7485 3.87784 10.7485H2.49853Z" fill="white"/>
<path d="M5.71728 10.7485C5.50425 10.7485 5.33154 10.9212 5.33154 11.1343C5.33154 11.3473 5.50425 11.52 5.71728 11.52H7.09661C7.30963 11.52 7.48234 11.3473 7.48234 11.1343C7.48234 10.9212 7.30963 10.7485 7.09661 10.7485H5.71728Z" fill="white"/>
<path d="M8.93554 10.7485C8.72251 10.7485 8.5498 10.9212 8.5498 11.1343C8.5498 11.3473 8.72251 11.52 8.93554 11.52H10.3149C10.5279 11.52 10.7006 11.3473 10.7006 11.1343C10.7006 10.9212 10.5279 10.7485 10.3149 10.7485H8.93554Z" fill="white"/>
<path d="M12.6235 10.7485C12.4105 10.7485 12.2378 10.9212 12.2378 11.1343C12.2378 11.3473 12.4105 11.52 12.6235 11.52H14.0028C14.2159 11.52 14.3886 11.3473 14.3886 11.1343C14.3886 10.9212 14.2159 10.7485 14.0028 10.7485H12.6235Z" fill="white"/>
<path d="M16.1221 10.7485C15.909 10.7485 15.7363 10.9212 15.7363 11.1343C15.7363 11.3473 15.909 11.52 16.1221 11.52H17.5014C17.7144 11.52 17.8871 11.3473 17.8871 11.1343C17.8871 10.9212 17.7144 10.7485 17.5014 10.7485H16.1221Z" fill="white"/>
<path d="M2.49853 13.2471C2.2855 13.2471 2.11279 13.4198 2.11279 13.6328C2.11279 13.8458 2.2855 14.0185 2.49853 14.0185H3.87784C4.09087 14.0185 4.26358 13.8458 4.26358 13.6328C4.26358 13.4198 4.09087 13.2471 3.87784 13.2471H2.49853Z" fill="white"/>
<path d="M5.71728 13.2471C5.50425 13.2471 5.33154 13.4198 5.33154 13.6328C5.33154 13.8458 5.50425 14.0185 5.71728 14.0185H7.09661C7.30963 14.0185 7.48234 13.8458 7.48234 13.6328C7.48234 13.4198 7.30963 13.2471 7.09661 13.2471H5.71728Z" fill="white"/>
<path d="M8.93554 13.2471C8.72251 13.2471 8.5498 13.4198 8.5498 13.6328C8.5498 13.8458 8.72251 14.0185 8.93554 14.0185H10.3149C10.5279 14.0185 10.7006 13.8458 10.7006 13.6328C10.7006 13.4198 10.5279 13.2471 10.3149 13.2471H8.93554Z" fill="white"/>
<path d="M12.6235 13.2471C12.4105 13.2471 12.2378 13.4198 12.2378 13.6328C12.2378 13.8458 12.4105 14.0185 12.6235 14.0185H14.0028C14.2159 14.0185 14.3886 13.8458 14.3886 13.6328C14.3886 13.4198 14.2159 13.2471 14.0028 13.2471H12.6235Z" fill="white"/>
<path d="M16.1221 13.2471C15.909 13.2471 15.7363 13.4198 15.7363 13.6328C15.7363 13.8458 15.909 14.0185 16.1221 14.0185H17.5014C17.7144 14.0185 17.8871 13.8458 17.8871 13.6328C17.8871 13.4198 17.7144 13.2471 17.5014 13.2471H16.1221Z" fill="white"/>
<path d="M2.49853 15.7461C2.2855 15.7461 2.11279 15.9188 2.11279 16.1318C2.11279 16.3449 2.2855 16.5176 2.49853 16.5176H3.87784C4.09087 16.5176 4.26358 16.3449 4.26358 16.1318C4.26358 15.9188 4.09087 15.7461 3.87784 15.7461H2.49853Z" fill="white"/>
<path d="M5.71728 15.7461C5.50425 15.7461 5.33154 15.9188 5.33154 16.1318C5.33154 16.3449 5.50425 16.5176 5.71728 16.5176H7.09661C7.30963 16.5176 7.48234 16.3449 7.48234 16.1318C7.48234 15.9188 7.30963 15.7461 7.09661 15.7461H5.71728Z" fill="white"/>
<path d="M8.93554 15.7461C8.72251 15.7461 8.5498 15.9188 8.5498 16.1318C8.5498 16.3449 8.72251 16.5176 8.93554 16.5176H10.3149C10.5279 16.5176 10.7006 16.3449 10.7006 16.1318C10.7006 15.9188 10.5279 15.7461 10.3149 15.7461H8.93554Z" fill="white"/>
</svg>
