<svg width="30" height="28" viewBox="0 0 30 28" fill="none" xmlns="http://www.w3.org/2000/svg">
<path d="M2.82746 3.37646H27.1724C27.9506 3.37646 28.6576 3.69441 29.1698 4.20658C29.6819 4.71877 29.9999 5.42578 29.9999 6.20391V24.9447C29.9999 25.7228 29.6819 26.4298 29.1698 26.942C28.6576 27.4542 27.9506 27.7721 27.1724 27.7721H2.82746C2.04933 27.7721 1.34229 27.4542 0.830111 26.942C0.317942 26.4298 0 25.7228 0 24.9447V6.20391C0 5.42578 0.317942 4.71876 0.830111 4.20658C1.3423 3.69441 2.04934 3.37646 2.82746 3.37646ZM27.1724 4.53368H2.82746C2.36875 4.53368 1.95127 4.72178 1.64828 5.02475C1.3453 5.32774 1.1572 5.7452 1.1572 6.20391V24.9447C1.1572 25.4034 1.3453 25.8208 1.64828 26.1238C1.95127 26.4268 2.36875 26.6149 2.82746 26.6149H27.1724C27.6311 26.6149 28.0486 26.4268 28.3516 26.1238C28.6546 25.8208 28.8427 25.4034 28.8427 24.9447V6.20391C28.8427 5.7452 28.6546 5.32774 28.3516 5.02475C28.0486 4.72178 27.6311 4.53368 27.1724 4.53368Z" fill="#999999"/>
<path d="M0.578606 9.37891C0.259064 9.37891 0 9.63797 0 9.95751C0 10.2771 0.259064 10.5361 0.578606 10.5361H29.4214C29.7409 10.5361 30 10.2771 30 9.95751C30 9.63797 29.7409 9.37891 29.4214 9.37891H0.578606Z" fill="#999999"/>
<path d="M5.75592 5.00537C6.29452 5.00537 6.78222 5.22375 7.13527 5.57678C7.48828 5.92983 7.70668 6.41753 7.70668 6.95613C7.70668 7.49474 7.48828 7.98246 7.13527 8.33546C6.78222 8.68849 6.29452 8.90687 5.75592 8.90687C5.21731 8.90687 4.72959 8.68847 4.37659 8.33546C4.02356 7.98242 3.80518 7.49472 3.80518 6.95613C3.80518 6.41753 4.02358 5.92983 4.37659 5.57678C4.72959 5.22377 5.21731 5.00537 5.75592 5.00537ZM6.3171 6.39495C6.17354 6.2514 5.97511 6.16258 5.75592 6.16258C5.53672 6.16258 5.33831 6.2514 5.19476 6.39495C5.05121 6.5385 4.96239 6.73694 4.96239 6.95613C4.96239 7.17532 5.05121 7.37374 5.19476 7.51729C5.33831 7.66084 5.53672 7.74966 5.75592 7.74966C5.97511 7.74966 6.17355 7.66084 6.3171 7.51729C6.46065 7.37374 6.54947 7.17533 6.54947 6.95613C6.54947 6.73694 6.46065 6.5385 6.3171 6.39495Z" fill="#999999"/>
<path d="M24.2442 5.00537C24.7828 5.00537 25.2705 5.22377 25.6235 5.57678C25.9766 5.92983 26.195 6.41753 26.195 6.95613C26.195 7.49472 25.9766 7.98242 25.6235 8.33546C25.2705 8.68847 24.7828 8.90687 24.2442 8.90687C23.7056 8.90687 23.2179 8.68849 22.8649 8.33546C22.5119 7.98246 22.2935 7.49474 22.2935 6.95613C22.2935 6.41753 22.5119 5.92983 22.8649 5.57678C23.2179 5.22375 23.7056 5.00537 24.2442 5.00537ZM24.8054 6.39495C24.6618 6.2514 24.4634 6.16258 24.2442 6.16258C24.025 6.16258 23.8266 6.2514 23.683 6.39495C23.5395 6.5385 23.4507 6.73694 23.4507 6.95613C23.4507 7.17532 23.5395 7.37374 23.683 7.51729C23.8266 7.66084 24.025 7.74966 24.2442 7.74966C24.4634 7.74966 24.6618 7.66084 24.8054 7.51729C24.9489 7.37374 25.0377 7.17533 25.0377 6.95613C25.0377 6.73694 24.9489 6.5385 24.8054 6.39495Z" fill="#999999"/>
<path d="M6.33446 0.578606C6.33446 0.259064 6.07539 0 5.75585 0C5.43631 0 5.17725 0.259064 5.17725 0.578606V5.58659C5.17725 5.90613 5.43631 6.16519 5.75585 6.16519C6.07539 6.16519 6.33446 5.90613 6.33446 5.58659V0.578606Z" fill="#999999"/>
<path d="M24.8227 0.578606C24.8227 0.259064 24.5637 0 24.2441 0C23.9246 0 23.6655 0.259064 23.6655 0.578606V5.58659C23.6655 5.90613 23.9246 6.16519 24.2441 6.16519C24.5637 6.16519 24.8227 5.90613 24.8227 5.58659V0.578606Z" fill="#999999"/>
<path d="M13.4033 12.374C13.0838 12.374 12.8247 12.6331 12.8247 12.9526C12.8247 13.2722 13.0838 13.5312 13.4033 13.5312H15.4723C15.7918 13.5312 16.0509 13.2722 16.0509 12.9526C16.0509 12.6331 15.7918 12.374 15.4723 12.374H13.4033Z" fill="#999999"/>
<path d="M18.9355 12.374C18.616 12.374 18.3569 12.6331 18.3569 12.9526C18.3569 13.2722 18.616 13.5312 18.9355 13.5312H21.0045C21.3241 13.5312 21.5831 13.2722 21.5831 12.9526C21.5831 12.6331 21.3241 12.374 21.0045 12.374H18.9355Z" fill="#999999"/>
<path d="M24.1829 12.374C23.8633 12.374 23.6042 12.6331 23.6042 12.9526C23.6042 13.2722 23.8633 13.5312 24.1829 13.5312H26.2518C26.5714 13.5312 26.8304 13.2722 26.8304 12.9526C26.8304 12.6331 26.5714 12.374 26.2518 12.374H24.1829Z" fill="#999999"/>
<path d="M3.74804 16.123C3.4285 16.123 3.16943 16.3821 3.16943 16.7017C3.16943 17.0212 3.4285 17.2803 3.74804 17.2803H5.81701C6.13655 17.2803 6.39562 17.0212 6.39562 16.7017C6.39562 16.3821 6.13655 16.123 5.81701 16.123H3.74804Z" fill="#999999"/>
<path d="M8.57568 16.123C8.25613 16.123 7.99707 16.3821 7.99707 16.7017C7.99707 17.0212 8.25613 17.2803 8.57568 17.2803H10.6447C10.9642 17.2803 11.2233 17.0212 11.2233 16.7017C11.2233 16.3821 10.9642 16.123 10.6447 16.123H8.57568Z" fill="#999999"/>
<path d="M13.4033 16.123C13.0838 16.123 12.8247 16.3821 12.8247 16.7017C12.8247 17.0212 13.0838 17.2803 13.4033 17.2803H15.4723C15.7918 17.2803 16.0509 17.0212 16.0509 16.7017C16.0509 16.3821 15.7918 16.123 15.4723 16.123H13.4033Z" fill="#999999"/>
<path d="M18.9355 16.123C18.616 16.123 18.3569 16.3821 18.3569 16.7017C18.3569 17.0212 18.616 17.2803 18.9355 17.2803H21.0045C21.3241 17.2803 21.5831 17.0212 21.5831 16.7017C21.5831 16.3821 21.3241 16.123 21.0045 16.123H18.9355Z" fill="#999999"/>
<path d="M24.1829 16.123C23.8633 16.123 23.6042 16.3821 23.6042 16.7017C23.6042 17.0212 23.8633 17.2803 24.1829 17.2803H26.2518C26.5714 17.2803 26.8304 17.0212 26.8304 16.7017C26.8304 16.3821 26.5714 16.123 26.2518 16.123H24.1829Z" fill="#999999"/>
<path d="M3.74804 19.8706C3.4285 19.8706 3.16943 20.1297 3.16943 20.4492C3.16943 20.7688 3.4285 21.0278 3.74804 21.0278H5.81701C6.13655 21.0278 6.39562 20.7688 6.39562 20.4492C6.39562 20.1297 6.13655 19.8706 5.81701 19.8706H3.74804Z" fill="#999999"/>
<path d="M8.57568 19.8706C8.25613 19.8706 7.99707 20.1297 7.99707 20.4492C7.99707 20.7688 8.25613 21.0278 8.57568 21.0278H10.6447C10.9642 21.0278 11.2233 20.7688 11.2233 20.4492C11.2233 20.1297 10.9642 19.8706 10.6447 19.8706H8.57568Z" fill="#999999"/>
<path d="M13.4033 19.8706C13.0838 19.8706 12.8247 20.1297 12.8247 20.4492C12.8247 20.7688 13.0838 21.0278 13.4033 21.0278H15.4723C15.7918 21.0278 16.0509 20.7688 16.0509 20.4492C16.0509 20.1297 15.7918 19.8706 15.4723 19.8706H13.4033Z" fill="#999999"/>
<path d="M18.9355 19.8706C18.616 19.8706 18.3569 20.1297 18.3569 20.4492C18.3569 20.7688 18.616 21.0278 18.9355 21.0278H21.0045C21.3241 21.0278 21.5831 20.7688 21.5831 20.4492C21.5831 20.1297 21.3241 19.8706 21.0045 19.8706H18.9355Z" fill="#999999"/>
<path d="M24.1829 19.8706C23.8633 19.8706 23.6042 20.1297 23.6042 20.4492C23.6042 20.7688 23.8633 21.0278 24.1829 21.0278H26.2518C26.5714 21.0278 26.8304 20.7688 26.8304 20.4492C26.8304 20.1297 26.5714 19.8706 26.2518 19.8706H24.1829Z" fill="#999999"/>
<path d="M3.74804 23.6191C3.4285 23.6191 3.16943 23.8782 3.16943 24.1977C3.16943 24.5173 3.4285 24.7764 3.74804 24.7764H5.81701C6.13655 24.7764 6.39562 24.5173 6.39562 24.1977C6.39562 23.8782 6.13655 23.6191 5.81701 23.6191H3.74804Z" fill="#999999"/>
<path d="M8.57568 23.6191C8.25613 23.6191 7.99707 23.8782 7.99707 24.1977C7.99707 24.5173 8.25613 24.7764 8.57568 24.7764H10.6447C10.9642 24.7764 11.2233 24.5173 11.2233 24.1977C11.2233 23.8782 10.9642 23.6191 10.6447 23.6191H8.57568Z" fill="#999999"/>
<path d="M13.4033 23.6191C13.0838 23.6191 12.8247 23.8782 12.8247 24.1977C12.8247 24.5173 13.0838 24.7764 13.4033 24.7764H15.4723C15.7918 24.7764 16.0509 24.5173 16.0509 24.1977C16.0509 23.8782 15.7918 23.6191 15.4723 23.6191H13.4033Z" fill="#999999"/>
</svg>
