<svg width="80" height="74" viewBox="0 0 80 74" fill="none" xmlns="http://www.w3.org/2000/svg">
<rect width="80" height="74" fill="white"/>
<path d="M46.1437 57H44.9952V39.2134C44.9952 39.1728 44.9944 39.1336 44.9929 39.0937L44.9952 39.0967L45.8811 39.0966H46.1437V42.8276H45.7332L45.8811 43.1845V43.5421H46.1437V43.9194H45.8811V44.2763H46.1437M46.1437 57V44.2763M46.1437 57H54.3901V53.869M46.1437 57V53.869M46.1437 44.2763V52.9367M46.1437 44.2763H54.3901V52.9367M46.1437 53.869H54.3901M46.1437 53.869V52.9367M54.3901 53.869V52.9367M46.1437 52.9367H54.3901M35.0509 39.0967H33.9023V42.8277H34.3129L34.165 43.1846V43.5422H33.9023V43.9194H34.165V44.2764H33.9023V56.9999H35.0509V39.2134C35.0509 39.1727 35.0516 39.1335 35.0524 39.0936L35.0509 39.0967ZM40.2094 32.122H33.9023V38.0252H34.3129V38.3828L34.165 38.7397L34.1982 38.6599H35.0848C35.3588 36.4537 37.2438 34.7445 39.5295 34.7445H40.5165C42.8023 34.7445 44.6873 36.4537 44.9605 38.6599H45.8479L45.8811 38.7397L45.7332 38.3828V38.0252H46.1437V32.122H40.2094Z" stroke="#14306E" stroke-width="0.2" stroke-miterlimit="10" stroke-linecap="round" stroke-linejoin="round"/>
<path d="M45.7603 43.2094V43.5722H54.7287V43.2094M45.7603 43.2094H54.7287M45.7603 43.2094L45.6104 42.8473H54.8786L54.7287 43.2094M45.7603 38.7004V39.0625H54.7287V38.7004M45.7603 38.7004H54.7287M45.7603 38.7004L45.6104 38.3383H54.8786L54.7287 38.7004M54.7287 44.3169H45.7603V43.9548H54.7287V44.3169ZM54.8786 38.3383H45.6104V37.9754H54.8786V38.3383Z" stroke="#14306E" stroke-width="0.2" stroke-miterlimit="10" stroke-linecap="round" stroke-linejoin="round"/>
<path d="M25.9071 30.1217V30.4431H54.5811V30.1217M25.9071 30.1217H54.5811M25.9071 30.1217L25.6104 29.8002H54.8786L54.5811 30.1217M54.4794 43.8291H46.1851V43.4528H54.4794V43.8291ZM54.4794 39.0184H46.1851V42.74H54.4794V39.0184ZM54.4794 32.061H46.1851V37.9495H54.4794V32.061ZM53.9603 29.8002H26.528V26.8769H53.9603V29.8002ZM53.1588 26.8769H27.3302V23.9545H53.1588V26.8769ZM51.1262 23.9545H29.3621V19.3631H51.1262V23.9545ZM45.9392 19.3631H34.549V18.4632H45.9392V19.3631Z" stroke="#14306E" stroke-width="0.2" stroke-miterlimit="10" stroke-linecap="round" stroke-linejoin="round"/>
<path d="M47.4972 53.8728V57H52.9379V53.8728M47.4972 53.8728H52.9379M47.4972 53.8728V52.9416M52.9379 53.8728V52.9416M47.4972 52.9416H52.9379M47.4972 52.9416V44.2915H52.9379V52.9416M47.2389 43.2011V43.5583H53.2691V43.2011M47.2389 43.2011H53.2691M47.2389 43.2011L47.0923 42.8446H53.415L53.2691 43.2011M47.2389 38.7617V39.1181H53.2691V38.7617M47.2389 38.7617H53.2691M47.2389 38.7617L47.0923 38.4052H53.415L53.2691 38.7617M47.2389 36.1798V36.537H53.2691V36.1798M47.2389 36.1798H53.2691M47.2389 36.1798L47.0923 35.8225H53.415L53.2691 36.1798M44.3086 18.5365C43.251 17.5813 41.8547 17 40.3252 17C38.795 17 37.3994 17.5813 36.3418 18.5365H44.3086ZM53.2691 44.2915H47.2389V43.935H53.2691V44.2915ZM53.415 38.4051H47.0923V38.0479H53.415V38.4051Z" stroke="#14306E" stroke-width="0.2" stroke-miterlimit="10" stroke-linecap="round" stroke-linejoin="round"/>
<path d="M52.9274 43.8291H47.5615V43.4475H52.9274V43.8291ZM52.9274 38.9511H47.5615V42.7248H52.9274V38.9511Z" stroke="#14306E" stroke-width="0.2" stroke-miterlimit="10" stroke-linecap="round" stroke-linejoin="round"/>
<path d="M52.081 41.8779H48.4079V39.9151H52.081V41.8779ZM52.9274 36.5121H47.5615V38.0405H52.9274V36.5121Z" stroke="#14306E" stroke-width="0.2" stroke-miterlimit="10" stroke-linecap="round" stroke-linejoin="round"/>
<path d="M51.9517 37.4878H48.5371V36.7186H51.9517V37.4878ZM51.4823 33.8574C51.4823 34.5454 50.9602 35.1042 50.3161 35.1042C49.6733 35.1042 49.1513 34.5454 49.1513 33.8574C49.1513 33.1678 49.6733 32.6097 50.3161 32.6097C50.9602 32.6097 51.4823 33.1678 51.4823 33.8574Z" stroke="#14306E" stroke-width="0.2" stroke-miterlimit="10" stroke-linecap="round" stroke-linejoin="round"/>
<path d="M51.1575 34.0861C51.1575 34.618 50.7382 35.0488 50.2199 35.0488C49.7031 35.0488 49.2832 34.618 49.2832 34.0861C49.2832 33.5535 49.7031 33.1227 50.2199 33.1227C50.7382 33.1227 51.1575 33.5535 51.1575 34.0861ZM53.903 31.7361H26.5859V30.6586H53.903V31.7361Z" stroke="#14306E" stroke-width="0.2" stroke-miterlimit="10" stroke-linecap="round" stroke-linejoin="round"/>
<path d="M28.3087 31.6343H27.0732V30.6587H28.3087V31.6343ZM30.5908 31.6343H29.3553V30.6587H30.5908V31.6343ZM32.8736 31.6343H31.6382V30.6587H32.8736V31.6343ZM35.1557 31.6343H33.9203V30.6587H35.1557V31.6343ZM37.4378 31.6343H36.2031V30.6587H37.4378V31.6343ZM39.7206 31.6343H38.4852V30.6587H39.7206V31.6343ZM42.0027 31.6343H40.7681V30.6587H42.0027V31.6343ZM44.2848 31.6343H43.0502V30.6587H44.2848V31.6343ZM46.5677 31.6343H45.3322V30.6587H46.5677V31.6343ZM48.8505 31.6343H47.6151V30.6587H48.8505V31.6343ZM51.1326 31.6343H49.8979V30.6587H51.1326V31.6343ZM53.4147 31.6343H52.18V30.6587H53.4147V31.6343Z" stroke="#14306E" stroke-width="0.2" stroke-miterlimit="10" stroke-linecap="round" stroke-linejoin="round"/>
<path d="M44.8465 39.119L44.61 38.6828H45.6949L45.728 38.7626V39.119H44.8465ZM44.8465 39.119H45.9893V39.3762H44.8465V39.119ZM33.8092 53.8729V57H25.6034V53.8729M33.8092 53.8729H25.6034M33.8092 53.8729V52.9418M25.6034 53.8729V52.9418M33.8092 52.9418H25.6034M33.8092 52.9418V44.2921H25.6034V52.9418M34.0705 43.2018V43.559H25.27V43.2018M34.0705 43.2018H25.27M34.0705 43.2018L34.2177 42.8453H25.1221L25.27 43.2018M34.0705 38.7626V39.119H25.27V38.7626M34.0705 38.7626H25.27M34.0705 38.7626L34.2177 38.4061H25.1221L25.27 38.7626M54.1944 32.1529H26.0178L25.8218 31.5919H54.3904L54.1944 32.1529ZM34.9595 21.8262C34.9595 22.4977 34.4159 23.0422 33.7454 23.0422C33.0749 23.0422 32.5313 22.4977 32.5313 21.8262C32.5313 21.1546 33.0749 20.6102 33.7454 20.6102C34.4159 20.6102 34.9595 21.1546 34.9595 21.8262ZM47.6929 21.8262C47.6929 22.4977 47.1501 23.0422 46.4796 23.0422C45.8083 23.0422 45.2655 22.4977 45.2655 21.8262C45.2655 21.1546 45.8083 20.6102 46.4796 20.6102C47.1501 20.6102 47.6929 21.1546 47.6929 21.8262ZM44.8315 23.2385H35.3935V20.4146H44.8315V23.2385ZM25.27 44.2921H34.0705V43.9357H25.27V44.2921ZM25.1221 38.406H34.2177V38.0488H25.1221V38.406Z" stroke="#14306E" stroke-width="0.2" stroke-miterlimit="10" stroke-linecap="round" stroke-linejoin="round"/>
<path d="M32.5304 53.869V57H26.9837V53.869M32.5304 53.869H26.9837M32.5304 53.869V52.9367M26.9837 53.869V52.9367M32.5304 52.9367H26.9837M32.5304 52.9367V44.2763H26.9837V52.9367M25.6104 43.9194H33.903V43.5422H25.6104V43.9194ZM25.6104 39.0967H33.903V42.8277H25.6104V39.0967ZM25.6104 32.122H33.903V38.0252H25.6104V32.122Z" stroke="#14306E" stroke-width="0.2" stroke-miterlimit="10" stroke-linecap="round" stroke-linejoin="round"/>
<path d="M32.7811 43.1864V43.5567H26.7323V43.1864M32.7811 43.1864H26.7323M32.7811 43.1864L32.9274 42.8168H26.5859L26.7323 43.1864M32.7811 38.5837V38.9532H26.7323V38.5837M32.7811 38.5837H26.7323M32.7811 38.5837L32.9274 38.2141H26.5859L26.7323 38.5837M32.7811 35.9068V36.2771H26.7323V35.9068M32.7811 35.9068H26.7323M32.7811 35.9068L32.9274 35.5364H26.5859L26.7323 35.9068M26.7323 44.3169H32.7811V43.9473H26.7323V44.3169ZM26.5859 38.214H32.9274V37.8436H26.5859V38.214Z" stroke="#14306E" stroke-width="0.2" stroke-miterlimit="10" stroke-linecap="round" stroke-linejoin="round"/>
<path d="M27.0732 43.8291H32.4391V43.4475H27.0732V43.8291ZM27.0732 38.9511H32.4391V42.7248H27.0732V38.9511Z" stroke="#14306E" stroke-width="0.2" stroke-miterlimit="10" stroke-linecap="round" stroke-linejoin="round"/>
<path d="M27.9189 41.8779H31.5927V39.9151H27.9189V41.8779ZM27.0732 36.5121H32.4391V38.0405H27.0732V36.5121Z" stroke="#14306E" stroke-width="0.2" stroke-miterlimit="10" stroke-linecap="round" stroke-linejoin="round"/>
<path d="M28.0488 37.4878H31.4635V36.7186H28.0488V37.4878ZM28.5189 33.8574C28.5189 34.5454 29.0408 35.1042 29.6842 35.1042C30.3275 35.1042 30.8494 34.5454 30.8494 33.8574C30.8494 33.1678 30.3275 32.6097 29.6842 32.6097C29.0408 32.6097 28.5189 33.1678 28.5189 33.8574Z" stroke="#14306E" stroke-width="0.2" stroke-miterlimit="10" stroke-linecap="round" stroke-linejoin="round"/>
<path d="M34.8992 39.1784L35.1391 38.7366H34.0383L34.0048 38.8173V39.1784H34.8992ZM34.8992 39.1784H33.7396V39.439H34.8992V39.1784ZM28.5371 33.8931C28.5371 34.4225 28.9668 34.8514 29.4963 34.8514C30.0257 34.8514 30.4554 34.4225 30.4554 33.8931C30.4554 33.3628 30.0257 32.934 29.4963 32.934C28.9668 32.934 28.5371 33.3628 28.5371 33.8931ZM46.0981 32.1219H33.7396V33.0924H39.4519L39.5852 34.3943H40.2815L40.4148 33.0924H46.0981V32.1219Z" stroke="#14306E" stroke-width="0.2" stroke-miterlimit="10" stroke-linecap="round" stroke-linejoin="round"/>
<path d="M45.6097 38.4634L45.4944 38.1998V37.8539C45.2472 35.4596 43.0017 33.5853 40.2959 33.5853H40.2034L40.117 34.381H39.4239L39.3382 33.5853H39.2161C36.5103 33.5853 34.2648 35.4596 34.0176 37.8539V38.1998L33.9023 38.4634H34.8033C35.1104 36.3284 36.988 34.7391 39.26 34.7391H40.252C42.524 34.7391 44.4016 36.3284 44.7087 38.4634H45.6097Z" stroke="#14306E" stroke-width="0.2" stroke-miterlimit="10" stroke-linecap="round" stroke-linejoin="round"/>
</svg>
