<svg width="30" height="30" viewBox="0 0 30 30" fill="none" xmlns="http://www.w3.org/2000/svg">
<path fill-rule="evenodd" clip-rule="evenodd" d="M8.75 3.4375C6.73129 3.4375 4.90581 3.94204 3.58082 5.17237C2.24327 6.4144 1.5625 8.25881 1.5625 10.625V19.375C1.5625 21.7412 2.24327 23.5856 3.58082 24.8276C4.90581 26.058 6.73129 26.5625 8.75 26.5625H21.25C23.2687 26.5625 25.0942 26.058 26.4191 24.8276C27.7567 23.5856 28.4375 21.7412 28.4375 19.375V10.625C28.4375 8.25881 27.7567 6.4144 26.4191 5.17237C25.0942 3.94204 23.2687 3.4375 21.25 3.4375H8.75ZM24.0356 10.4529C24.4452 10.1363 24.5207 9.54752 24.2041 9.13782C23.8876 8.72811 23.2989 8.65262 22.8891 8.96921L15.9552 14.327C15.3926 14.7619 14.6072 14.7619 14.0445 14.327L7.11075 8.96921C6.70104 8.65262 6.11227 8.72811 5.79569 9.13782C5.4791 9.54752 5.55459 10.1363 5.9643 10.4529L12.8981 15.8107C14.1361 16.7672 15.8637 16.7672 17.1017 15.8107L24.0356 10.4529Z" fill="white"/>
</svg>
