<svg width="13" height="12" viewBox="0 0 13 12" fill="none" xmlns="http://www.w3.org/2000/svg">
<path d="M0.400391 2.375H2.48372" stroke="#374151" stroke-width="0.8" stroke-linecap="round" stroke-linejoin="round"/>
<path d="M7.06738 2.375H12.484" stroke="#374151" stroke-width="0.8" stroke-linecap="round" stroke-linejoin="round"/>
<path d="M0.400391 9.0415H6.65039" stroke="#141414" stroke-width="0.8" stroke-linecap="round" stroke-linejoin="round"/>
<path d="M11.2344 9.0415H12.4844" stroke="#141414" stroke-width="0.8" stroke-linecap="round" stroke-linejoin="round"/>
<path d="M6.65039 2.375C6.65039 3.41053 5.81092 4.25 4.77539 4.25C3.73986 4.25 2.90039 3.41053 2.90039 2.375C2.90039 1.33947 3.73986 0.5 4.77539 0.5C5.81092 0.5 6.65039 1.33947 6.65039 2.375Z" stroke="black" stroke-linecap="round" stroke-linejoin="round"/>
<path d="M10.8174 9.0415C10.8174 10.077 9.97792 10.9165 8.94238 10.9165C7.90685 10.9165 7.06738 10.077 7.06738 9.0415C7.06738 8.00597 7.90685 7.1665 8.94238 7.1665C9.97792 7.1665 10.8174 8.00597 10.8174 9.0415Z" stroke="black" stroke-linecap="round" stroke-linejoin="round"/>
</svg>
