<svg width="16" height="12" viewBox="0 0 16 12" fill="none" xmlns="http://www.w3.org/2000/svg">
<path d="M3.08113 0L1.50422 0.421407C2.69661 3.69018 4.27665 6.78649 5.94876 10.1063L10.4528 10.5509C10.4398 9.457 10.3006 8.11036 9.932 6.86839C11.0761 5.24954 11.9781 3.25212 13.0542 1.12835L11.7424 0.223701C10.9655 2.02393 10.1785 3.84241 8.97452 5.56064C8.67052 5.92358 5.89508 5.85262 5.63192 5.61974C4.62147 3.57603 3.66631 1.95213 3.08113 0ZM6.97883 1.3885C6.93576 1.38816 6.89272 1.39076 6.85003 1.39629C6.50738 1.44059 6.2082 1.66944 5.99896 2.05423C5.78965 2.43902 5.6884 2.96985 5.76717 3.53726C5.84593 4.10474 6.08839 4.59111 6.39523 4.90918C6.70203 5.22726 7.0531 5.37206 7.39576 5.32779C7.73842 5.28348 8.03752 5.05464 8.2468 4.66988C8.45604 4.28509 8.55725 3.75425 8.47849 3.18684C8.39973 2.61936 8.1574 2.133 7.85056 1.81492C7.58211 1.53662 7.27976 1.39091 6.97883 1.3885ZM3.94918 7.18428L0 10.7164L0.667729 10.7828L12.9234 12L16 7.32445L10.6643 7.20969C10.7176 7.40573 10.7637 7.60227 10.8045 7.79916L14.9097 7.88747L12.6118 11.3796L1.39778 10.2657L4.19441 7.76436C4.11147 7.57106 4.02967 7.37768 3.94918 7.18428Z" fill="#999999"/>
</svg>
