<svg width="20" height="17" viewBox="0 0 20 17" fill="none" xmlns="http://www.w3.org/2000/svg">
<g clip-path="url(#clip0_120_99)">
<path d="M5.45247 0.642955H0.628255V4.43239H5.4541L5.45247 0.642955ZM6.03841 0H19.3701C19.4466 0 19.5199 0.0149912 19.5866 0.0449735C19.6549 0.0749559 19.7184 0.118264 19.7705 0.171566L19.7738 0.174897C19.8258 0.228199 19.8682 0.293161 19.8958 0.36312C19.9235 0.431413 19.9398 0.506369 19.9398 0.584656V4.49402C19.9398 4.57231 19.9251 4.64727 19.8958 4.71723C19.8665 4.78885 19.8242 4.85215 19.7721 4.90711L19.7656 4.91211C19.7135 4.96375 19.6533 5.00539 19.5866 5.03371C19.5199 5.06202 19.4466 5.07868 19.3701 5.07868H14.0055C13.9811 5.07868 13.9632 5.05869 13.9632 5.03537V0.642955H11.2386V1.79228L13.2406 4.12257C13.2975 4.1892 13.3236 4.27249 13.3187 4.35577C13.3138 4.43739 13.278 4.51734 13.2129 4.57731L13.2096 4.57897C13.1803 4.60396 13.1494 4.62395 13.1152 4.63561C13.0811 4.64893 13.0436 4.65559 13.0078 4.65559H6.99382C6.90755 4.65559 6.8278 4.61895 6.77246 4.56065C6.7155 4.50235 6.67969 4.4224 6.67969 4.33412C6.67969 4.28748 6.68945 4.24417 6.70736 4.20419C6.72526 4.16255 6.7513 4.12591 6.78385 4.09592L8.8444 1.79061V0.642955H6.08236V5.03037C6.08236 5.05536 6.06283 5.07368 6.04004 5.07368H0.569661C0.493164 5.07368 0.419922 5.05869 0.35319 5.02871C0.283203 4.99873 0.221354 4.95542 0.167643 4.90212C0.11556 4.84881 0.0732422 4.78385 0.0439453 4.71223C0.0146484 4.6456 0 4.57064 0 4.49236V0.58299C0 0.504703 0.0146484 0.429747 0.0439453 0.359788C0.0716146 0.288164 0.113932 0.224868 0.167643 0.171566C0.169271 0.168234 0.170898 0.166569 0.172526 0.166569C0.224609 0.114932 0.284831 0.0732902 0.351563 0.0449735C0.419922 0.0149912 0.493164 0 0.569661 0H6.03841ZM0.569661 8.71654H19.4303C19.5068 8.71654 19.5801 8.7332 19.6468 8.76151C19.7168 8.79149 19.7786 8.8348 19.8324 8.88811L19.834 8.88977C19.8861 8.94307 19.9268 9.00637 19.9561 9.07633C19.9837 9.14462 20 9.21958 20 9.29953V16.4053C20 16.4836 19.9837 16.5586 19.9561 16.6269C19.9284 16.6952 19.8877 16.7568 19.8389 16.8101C19.8372 16.8118 19.8356 16.8151 19.834 16.8168L19.8324 16.8184C19.7803 16.8717 19.7184 16.9151 19.6484 16.9434C19.5817 16.9717 19.5085 16.9883 19.432 16.9883H14.3213C14.3083 16.9917 14.2952 16.995 14.2806 16.9983C14.2643 17.0017 14.248 17.0017 14.2318 17.0017C14.2155 17.0017 14.1992 17 14.1829 16.9983C14.1683 16.9967 14.1553 16.9933 14.1423 16.9883H5.85775C5.84473 16.9917 5.83171 16.995 5.81706 16.9983C5.80078 17.0017 5.78451 17.0017 5.76823 17.0017C5.75195 17.0017 5.73568 17 5.7194 16.9983C5.70475 16.9967 5.69173 16.9933 5.67871 16.9883H0.569661C0.493164 16.9883 0.419922 16.9733 0.35319 16.9434C0.286458 16.9151 0.224609 16.8734 0.174154 16.8218C0.170898 16.8201 0.169271 16.8184 0.167643 16.8151C0.11556 16.7618 0.0732422 16.6968 0.0439453 16.6269C0.0146484 16.5586 0 16.4836 0 16.4053V9.29953C0 9.22124 0.0146484 9.14629 0.0439453 9.07633C0.0732422 9.0047 0.11556 8.94141 0.167643 8.88644C0.169271 8.88477 0.170898 8.88311 0.174154 8.88144C0.226237 8.82981 0.286458 8.78816 0.35319 8.75985C0.419922 8.73153 0.493164 8.71654 0.569661 8.71654ZM19.3717 9.35949H14.5459V16.3454H19.3717V9.35949ZM13.9176 9.35949H6.08236V10.9152H13.9176V9.35949ZM5.4541 9.35949H0.628255V16.3454H5.4541V9.35949ZM6.08236 16.3437H13.9176V11.5599H6.08236V16.3437ZM10.6104 0.642955H9.47266V1.91221C9.47266 1.91554 9.47266 1.91887 9.47103 1.92387C9.4694 1.95885 9.46289 1.99549 9.44987 2.02881C9.43685 2.06545 9.41569 2.09877 9.38965 2.12875L7.70508 4.01264H12.3112L10.695 2.13208C10.6689 2.10376 10.6462 2.06878 10.6315 2.03214C10.6169 1.99549 10.6087 1.95385 10.6087 1.91221V0.642955H10.6104ZM15.2962 9.71928C15.3418 9.71928 15.3857 9.72928 15.4248 9.74593L15.4264 9.7476C15.4671 9.76426 15.5029 9.79091 15.5339 9.82089C15.5648 9.85254 15.5892 9.89085 15.6071 9.93249C15.6234 9.97247 15.6331 10.0174 15.6331 10.0641C15.6331 10.1107 15.6234 10.154 15.6071 10.1957C15.5892 10.2373 15.5648 10.2756 15.5339 10.3073L15.5306 10.3089C15.4997 10.3389 15.4639 10.3639 15.4232 10.3806C15.3841 10.3972 15.3402 10.4072 15.2946 10.4072C15.249 10.4072 15.2051 10.3972 15.166 10.3806C15.127 10.3639 15.0911 10.3389 15.0602 10.3089L15.0553 10.3056C15.0244 10.274 15 10.2356 14.9837 10.194L14.9821 10.1923C14.9658 10.1524 14.9577 10.1091 14.9577 10.0624C14.9577 10.0158 14.9674 9.9708 14.9837 9.93082C15 9.88918 15.026 9.85087 15.057 9.81922C15.0879 9.78758 15.1253 9.76259 15.166 9.74427L15.1676 9.7426C15.21 9.72761 15.2523 9.71928 15.2962 9.71928ZM3.59538 0.966098C3.64095 0.966098 3.6849 0.976092 3.72396 0.992749C3.76465 1.00941 3.80208 1.03606 3.83301 1.06771C3.86393 1.09935 3.88997 1.13766 3.90625 1.17931C3.92253 1.21928 3.93229 1.26426 3.93229 1.3109C3.93229 1.35753 3.92253 1.40251 3.90625 1.44248C3.88997 1.48413 3.86556 1.52077 3.83626 1.55075L3.83138 1.55575C3.80046 1.58573 3.76465 1.61072 3.72396 1.62738C3.6849 1.64403 3.64095 1.65403 3.59538 1.65403C3.5498 1.65403 3.50749 1.64403 3.4668 1.62738C3.42611 1.61072 3.38867 1.58407 3.35775 1.55242L3.35449 1.54909C3.3252 1.51744 3.30078 1.4808 3.28451 1.44082C3.26823 1.40084 3.25846 1.35587 3.25846 1.30923C3.25846 1.26259 3.26823 1.21762 3.28451 1.17764L3.28613 1.17597C3.30241 1.13433 3.32845 1.09769 3.35775 1.06604C3.38867 1.03439 3.42611 1.00941 3.4668 0.991084L3.46842 0.989418C3.50911 0.976092 3.55143 0.966098 3.59538 0.966098ZM14.6126 0.642955H14.5915V4.43239H19.3132V0.642955H14.6126ZM16.11 1.06437C16.141 1.03439 16.1768 1.00941 16.2174 0.992749C16.2565 0.976092 16.3005 0.966098 16.346 0.966098C16.3916 0.966098 16.4355 0.976092 16.4746 0.992749L16.4762 0.994415C16.5169 1.01107 16.5527 1.03772 16.5837 1.06771C16.6146 1.09935 16.639 1.13766 16.6569 1.17931C16.6732 1.21928 16.6829 1.26426 16.6829 1.3109C16.6829 1.35753 16.6732 1.40251 16.6569 1.44248L16.6553 1.44415C16.639 1.48413 16.6146 1.52077 16.5853 1.55075L16.5804 1.55575C16.5495 1.58573 16.5137 1.61072 16.4746 1.62738C16.4355 1.64403 16.3916 1.65403 16.346 1.65403C16.3005 1.65403 16.2565 1.64403 16.2174 1.62738C16.1768 1.61072 16.1393 1.58407 16.1084 1.55242C16.0775 1.52077 16.0531 1.48246 16.0352 1.44082C16.0189 1.40084 16.0091 1.35587 16.0091 1.30923C16.0091 1.26259 16.0189 1.21928 16.0352 1.17764C16.0531 1.136 16.0775 1.09769 16.1084 1.06604L16.11 1.06437ZM4.63053 9.71928C4.67611 9.71928 4.72005 9.72928 4.75911 9.74593L4.76074 9.7476C4.80143 9.76592 4.83724 9.79091 4.86816 9.82089L4.86979 9.82422C4.89909 9.85587 4.9235 9.89251 4.93978 9.93249L4.94141 9.93416C4.95768 9.97413 4.96582 10.0174 4.96582 10.0641C4.96582 10.1107 4.95605 10.154 4.93978 10.1957C4.92188 10.2373 4.89746 10.2756 4.86654 10.3073L4.86328 10.3089C4.83236 10.3389 4.79655 10.3639 4.75586 10.3806C4.7168 10.3972 4.67285 10.4072 4.62728 10.4072C4.58171 10.4072 4.53776 10.3972 4.4987 10.3806C4.45801 10.3639 4.42057 10.3373 4.38965 10.3056C4.35872 10.274 4.33431 10.2356 4.31641 10.194L4.31478 10.1923C4.2985 10.1524 4.29036 10.1091 4.29036 10.0624C4.29036 10.0158 4.30013 9.9708 4.31641 9.93082C4.33268 9.88918 4.35872 9.85087 4.38965 9.81922C4.42057 9.78758 4.45801 9.76259 4.4987 9.74427C4.54264 9.72928 4.58496 9.71928 4.63053 9.71928Z" fill="#999999"/>
</g>
<defs>
<clipPath id="clip0_120_99">
<rect width="20" height="17" fill="white"/>
</clipPath>
</defs>
</svg>
