<svg width="30" height="30" viewBox="0 0 30 30" fill="none" xmlns="http://www.w3.org/2000/svg">
<g clip-path="url(#clip0_864_4072)">
<path d="M25.6539 17.1655C25.6552 17.152 25.6577 17.1373 25.659 17.1252C25.9197 15.6699 25.6577 10.3985 25.2621 9.18101C24.839 7.87338 24.2823 6.4079 23.0751 5.47671C22.7555 4.46307 22.2014 3.5076 21.4012 2.70168C18.7259 0.00909013 14.3729 -0.00497061 11.6797 2.66908C9.74953 4.58578 9.20309 7.36273 10.0282 9.77411L8.88417 10.9098L9.75592 11.788L9.73867 11.8039L7.88587 11.8832L8.10126 13.4305L7.8699 13.6599L5.94552 13.727L6.16282 15.3542L5.97173 15.5447L4.24868 15.4124L4.39503 17.1111L4.0742 17.4294L2.36713 17.4492L2.0661 19.4247L1.5676 19.9181L0.240795 19.3928L0.000488281 21.4756L0.477906 21.9563L0.838366 22.3186L10.5932 12.6303L11.0795 13.1205L1.32473 22.8101L2.78319 24.2782L12.538 14.5905L13.1074 15.1631L14.2508 14.0287C16.1758 14.701 18.3316 14.4831 20.1083 13.3953C20.2834 13.8382 20.4649 14.285 20.6471 14.7311C20.7832 15.0621 20.9072 15.3651 21.0139 15.6329C21.1066 15.8642 21.1941 16.1531 21.2887 16.4605C21.3686 16.7206 21.4523 16.9916 21.5444 17.2569L15.9125 19.3845L18.5041 20.1955L16.5478 26.4448L25.7612 29.3284L27.7182 23.0792L30.0005 23.7924L25.6539 17.1655ZM20.1089 6.59899C19.8028 6.90385 19.4161 7.0713 19.0186 7.11859C19.0231 6.66674 19.1068 6.29925 19.2979 6.0583C19.7171 5.53231 20.1626 5.25941 20.6496 5.20189C20.6713 5.70615 20.4956 6.2168 20.1089 6.59899ZM17.4943 3.96712C18.2216 3.24556 19.3963 3.2494 20.1172 3.97607C20.2917 4.15183 20.4227 4.35506 20.5116 4.57108C19.8801 4.6612 19.3081 5.01846 18.7968 5.66013C18.5214 6.00653 18.3987 6.49609 18.3891 7.08919C18.0567 7.01378 17.7404 6.8508 17.4828 6.59132C16.7638 5.86401 16.767 4.68932 17.4943 3.96712ZM21.8991 16.272C21.7994 15.946 21.7048 15.6405 21.607 15.3938C21.4996 15.1248 21.3737 14.8206 21.2376 14.4869C21.0631 14.0587 20.8605 13.5653 20.6522 13.0381C20.9008 12.8514 21.1411 12.6495 21.3673 12.4239C22.9594 10.8421 23.6081 8.67675 23.3262 6.61177C23.973 7.40939 24.3494 8.43581 24.6543 9.37722C24.9643 10.3359 25.1988 14.4064 25.0978 16.318L24.8844 15.9927L22.1407 17.028C22.0525 16.775 21.9719 16.5136 21.8991 16.272ZM24.7968 18.19C24.7514 18.3044 24.699 18.4098 24.6236 18.4878C24.4613 18.6597 24.1993 18.6942 24.0069 18.6942C23.5761 18.6942 23.0693 18.5127 22.799 18.2622C22.7721 18.2373 22.7472 18.2047 22.7216 18.1753L24.3763 17.5496L24.7968 18.19ZM26.8784 21.475L24.9221 27.7249L18.1475 25.6062L20.1038 19.3557L19.829 19.2701L22.0972 18.4124C22.1797 18.5306 22.2672 18.6393 22.365 18.7306C22.7523 19.0911 23.4131 19.3333 24.0069 19.3333C24.4613 19.3333 24.8345 19.1927 25.0857 18.9281C25.126 18.886 25.1522 18.8329 25.186 18.7843L26.9685 21.5025L26.8784 21.475Z" fill="#999999"/>
</g>
<defs>
<clipPath id="clip0_864_4072">
<rect width="30" height="30" fill="white"/>
</clipPath>
</defs>
</svg>
