<svg width="68" height="82" viewBox="0 0 68 82" fill="none" xmlns="http://www.w3.org/2000/svg">
<path fill-rule="evenodd" clip-rule="evenodd" d="M32.1032 81.4026C32.2277 81.4735 32.3255 81.5282 32.3948 81.5665L32.5099 81.6296C33.4284 82.1251 34.5677 82.1213 35.4871 81.6312L35.6052 81.5665C35.6745 81.5282 35.7723 81.4735 35.8968 81.4026C36.1457 81.2609 36.5015 81.0542 36.9487 80.7836C37.8429 80.2426 39.1052 79.4447 40.6129 78.3981C43.6234 76.3083 47.6402 73.2077 51.6658 69.1576C59.6779 61.0967 68 48.9855 68 33.4098C68 14.9581 52.7777 0 34 0C15.2223 0 0 14.9581 0 33.4098C0 48.9855 8.32206 61.0967 16.3342 69.1576C20.3598 73.2077 24.3766 76.3083 27.3871 78.3981C28.8948 79.4447 30.1571 80.2426 31.0513 80.7836C31.4985 81.0542 31.8543 81.2609 32.1032 81.4026ZM34 45.5588C40.8282 45.5588 46.3636 40.1195 46.3636 33.4098C46.3636 26.7001 40.8282 21.2608 34 21.2608C27.1718 21.2608 21.6364 26.7001 21.6364 33.4098C21.6364 40.1195 27.1718 45.5588 34 45.5588Z" fill="white"/>
</svg>
