<svg width="12" height="15" viewBox="0 0 12 15" fill="none" xmlns="http://www.w3.org/2000/svg">
<path fill-rule="evenodd" clip-rule="evenodd" d="M5.51774 14.2382C5.53913 14.2506 5.55595 14.2602 5.56786 14.2669L5.58764 14.2779C5.7455 14.3646 5.94133 14.3639 6.09935 14.2782L6.11964 14.2669C6.13155 14.2602 6.14837 14.2506 6.16976 14.2382C6.21255 14.2134 6.27369 14.1773 6.35056 14.13C6.50425 14.0353 6.7212 13.8958 6.98035 13.7127C7.49777 13.3472 8.18816 12.8049 8.88005 12.0964C10.2571 10.6865 11.6875 8.56811 11.6875 5.84375C11.6875 2.61634 9.07116 0 5.84375 0C2.61634 0 0 2.61634 0 5.84375C0 8.56811 1.43035 10.6865 2.80745 12.0964C3.49935 12.8049 4.18973 13.3472 4.70715 13.7127C4.9663 13.8958 5.18325 14.0353 5.33694 14.13C5.41381 14.1773 5.47495 14.2134 5.51774 14.2382ZM5.84375 7.96875C7.01735 7.96875 7.96875 7.01735 7.96875 5.84375C7.96875 4.67015 7.01735 3.71875 5.84375 3.71875C4.67015 3.71875 3.71875 4.67015 3.71875 5.84375C3.71875 7.01735 4.67015 7.96875 5.84375 7.96875Z" fill="#999999"/>
</svg>
