<svg width="80" height="74" viewBox="0 0 80 74" fill="none" xmlns="http://www.w3.org/2000/svg">
<rect width="80" height="74" fill="white"/>
<path d="M28.6506 52.7154V52.3942H28.8585V52.0729H29.0134L29.27 50.9949L29.1178 50.9796V50.6583H29.3247V50.3371H29.4853V50.0159H29.6933V40.0437H16.6495V53.0366H28.3824V52.7154H28.6506ZM29.648 38.333H15.555L15.0645 37.7207H29.648V38.333Z" stroke="#14306E" stroke-width="0.15" stroke-miterlimit="10" stroke-linecap="round" stroke-linejoin="round"/>
<path d="M17.4727 40.0437H17.0273V38.333H17.4727V40.0437ZM18.7192 40.0437H18.2739V38.333H18.7192V40.0437ZM19.9661 40.0437H19.5208V38.333H19.9661V40.0437ZM21.213 40.0437H20.7676V38.333H21.213V40.0437ZM22.4598 40.0437H22.0145V38.333H22.4598V40.0437ZM23.7067 40.0437H23.2614V38.333H23.7067V40.0437ZM24.9532 40.0437H24.5083V38.333H24.9532V40.0437ZM26.2002 40.0437H25.7548V38.333H26.2002V40.0437ZM27.447 40.0437H27.0016V38.333H27.447V40.0437ZM28.6938 40.0437H28.2481V38.333H28.6938V40.0437ZM28.666 40.5663H20.9625V40.0437H28.666V40.5663ZM28.4435 40.5663H21.1848V40.9674H28.4434L28.4435 40.5663ZM28.155 40.9674H21.4733V53.0366H28.155V40.9674Z" stroke="#14306E" stroke-width="0.15" stroke-miterlimit="10" stroke-linecap="round" stroke-linejoin="round"/>
<path d="M26.5243 42.672V45.7316M25.8063 42.1669V45.7316M25.0887 41.9108V45.7316M24.371 41.9519V45.7316M23.6531 42.2578V45.7316M22.9355 42.8439V45.7316M27.5629 44.9168H22.0637M27.416 44.1994H22.2102M27.131 43.4814H22.4956M26.6165 42.7634H23.0101M27.0844 53.0366H22.5422V46.2487H27.0843L27.0844 53.0366ZM22.2586 46.802H21.8184V46.2487H22.2586L22.2586 46.802ZM22.2586 47.5594H21.8184V47.0061H22.2586L22.2586 47.5594ZM22.2586 48.3173H21.8184V47.764H22.2586L22.2586 48.3173ZM22.2586 49.0747H21.8184V48.5214H22.2586L22.2586 49.0747ZM22.2586 49.8326H21.8184V49.2788H22.2586L22.2586 49.8326ZM22.2586 50.5899H21.8184V50.0367H22.2586L22.2586 50.5899ZM22.2586 51.3479H21.8184V50.7941H22.2586L22.2586 51.3479ZM22.2586 52.1052H21.8184V51.552H22.2586L22.2586 52.1052ZM22.2586 52.8631H21.8184V52.3093H22.2586L22.2586 52.8631ZM27.8082 46.802H27.3681V46.2487H27.8081L27.8082 46.802ZM27.8082 47.5594H27.3681V47.0061H27.8081L27.8082 47.5594ZM27.8082 48.3173H27.3681V47.764H27.8081L27.8082 48.3173ZM27.8082 49.0747H27.3681V48.5214H27.8081L27.8082 49.0747ZM27.8082 49.8326H27.3681V49.2788H27.8081L27.8082 49.8326ZM27.8082 50.5899H27.3681V50.0367H27.8081L27.8082 50.5899ZM27.8082 51.3479H27.3681V50.7941H27.8081L27.8082 51.3479ZM27.8082 52.1052H27.3681V51.552H27.8081L27.8082 52.1052ZM27.8082 52.8631H27.3681V52.3093H27.8081L27.8082 52.8631ZM24.8133 41.8676C24.7951 41.866 22.0137 42.0498 22.0137 45.7316H27.6129C27.6129 42.0498 24.8314 41.866 24.8133 41.8676Z" stroke="#14306E" stroke-width="0.15" stroke-miterlimit="10" stroke-linecap="round" stroke-linejoin="round"/>
<path d="M26.3392 53.0366V50.6622C26.3392 50.4827 26.1935 50.3371 26.0137 50.3371C25.9575 50.3371 25.9054 50.353 25.8592 50.3776V49.1474C25.8592 48.528 25.3567 48.0251 24.737 48.0251C24.117 48.0251 23.6146 48.528 23.6146 49.1474V50.3371C23.4346 50.3371 23.2891 50.4827 23.2891 50.6622V53.0366H26.3392Z" stroke="#14306E" stroke-width="0.15" stroke-miterlimit="10" stroke-linecap="round" stroke-linejoin="round"/>
<path d="M33.397 24.0365C33.397 24.229 33.2411 24.3849 33.0486 24.3849H30.1768C29.9846 24.3849 29.8287 24.229 29.8287 24.0365C29.8287 23.844 29.9846 23.6878 30.1768 23.6878H33.0486M33.0486 23.6878C33.2411 23.6878 33.3969 23.844 33.3969 24.0365M33.0486 23.6878H30.177V23.4552C30.177 22.7139 31.6126 20.9639 31.6126 20.9639C31.6126 20.9639 33.0486 22.7139 33.0486 23.4552V23.6878ZM34.0783 32.7469C34.0783 32.899 33.9392 33.0227 33.768 33.0227H29.4573C29.286 33.0227 29.147 32.899 29.147 32.7469C29.147 32.5942 29.286 32.4705 29.4573 32.4705H33.768C33.9392 32.4705 34.0782 32.5942 34.0782 32.7469M24.6075 50.3371V49.1474C24.6075 48.7064 24.8631 48.3255 25.2334 48.1422C25.0837 48.0678 24.9155 48.0251 24.737 48.0251C24.117 48.0251 23.6146 48.528 23.6146 49.1474V50.3371C23.4346 50.3371 23.2891 50.4827 23.2891 50.6622V53.0366H24.2821V50.6622C24.2821 50.4827 24.4281 50.3371 24.6075 50.3371ZM29.4649 33.0227H17.165V33.7122H29.7379L29.4649 33.0227ZM28.4434 36.4194H21.2129V34.9933H28.4433L28.4434 36.4194ZM33.7399 50.3371H29.4858V50.0159H33.7399L33.7399 50.3371ZM33.9005 50.6583H29.3251V50.3371H33.9005V50.6583ZM33.5283 38.165L33.7241 37.2758H33.4555L33.2846 38.165H33.0884L33.2394 37.2758H32.9708L32.8447 38.165H32.6485L32.7548 37.2758H32.2056L32.1508 38.165H31.9545L31.9895 37.2758H31.7209L31.711 38.165H31.5147L31.5047 37.2758H31.2362L31.2712 38.165H31.0749L31.02 37.2758H30.4709L30.5768 38.165H30.3812L30.2551 37.2758H29.9862L30.1373 38.165H29.941L29.7702 37.2758H29.5015L29.6975 38.165H29.5012C29.5012 38.165 29.5656 39.0565 29.5656 39.3903H33.6601C33.6601 38.9454 33.6868 38.5174 33.7186 38.165H33.5283ZM31.9178 26.2446V24.9731C31.9178 24.8045 31.7812 24.6681 31.6126 24.6681C31.4445 24.6681 31.3078 24.8045 31.3078 24.9731V26.2446H31.9178ZM30.8245 26.2446V24.9731C30.8245 24.8045 30.7378 24.6681 30.6309 24.6681C30.524 24.6681 30.4377 24.8045 30.4377 24.9731V26.2446H30.8245ZM32.7879 26.2446V24.9731C32.7879 24.8045 32.7012 24.6681 32.5944 24.6681C32.4875 24.6681 32.4012 24.8045 32.4012 24.9731V26.2446H32.7879ZM33.3172 32.4705H29.9084V31.3213H33.3172V32.4705ZM34.5318 37C34.5318 37.1521 34.3674 37.2758 34.1647 37.2758H29.061C28.8579 37.2758 28.6938 37.1521 28.6938 37C28.6938 36.8473 28.8579 36.7236 29.061 36.7236H34.1647C34.3674 36.7236 34.5318 36.8473 34.5318 37Z" stroke="#14306E" stroke-width="0.15" stroke-miterlimit="10" stroke-linecap="round" stroke-linejoin="round"/>
<path d="M30.1107 33.9119H29.8164L29.4647 33.0227H29.8164L30.1107 33.9119ZM30.7705 33.9119H30.4762L30.2535 33.0227H30.6052L30.7705 33.9119ZM31.4298 33.9119H31.1355L31.0424 33.0227H31.3939L31.4298 33.9119ZM32.0892 33.9119H31.7954L31.8309 33.0227H32.1828L32.0892 33.9119ZM32.749 33.9119H32.4547L32.6198 33.0227H32.9716L32.749 33.9119ZM33.4083 33.9119H33.1141L33.4083 33.0227H33.7605L33.4083 33.9119ZM29.6972 38.165H29.5009L29.2852 37.2758H29.5013L29.6972 38.165ZM30.137 38.165H29.9407L29.7699 37.2758H29.9859L30.137 38.165ZM30.5766 38.165H30.3809L30.2545 37.2758H30.4707L30.5766 38.165ZM31.271 38.165H31.0747L31.0198 37.2758H31.2359L31.271 38.165ZM31.7107 38.165H31.5144L31.5045 37.2758H31.7206L31.7107 38.165ZM32.1505 38.165H31.9542L31.9893 37.2758H32.2053L32.1505 38.165ZM32.8442 38.165H32.6483L32.7544 37.2758H32.9706L32.8442 38.165ZM33.2844 38.165H33.0881L33.2392 37.2758H33.4553L33.2844 38.165ZM33.7239 38.165H33.528L33.7239 37.2758H33.94L33.7239 38.165Z" stroke="#14306E" stroke-width="0.15" stroke-miterlimit="10" stroke-linecap="round" stroke-linejoin="round"/>
<path d="M33.4086 33.9122H33.1143L33.4086 33.0229H32.9719L32.7492 33.9122H32.4549L32.6201 33.0229H32.183L32.0895 33.9122H31.7956L31.8312 33.0229H31.3941L31.4301 33.9122H31.1358L31.0426 33.0229H30.6055L30.7707 33.9122H30.4764L30.2537 33.0229H29.8166L30.111 33.9122H29.8166L29.7882 33.8394V36.7238H33.4375V33.8388L33.4086 33.9122ZM33.3171 27.4609C33.3171 27.5616 33.2353 27.6434 33.1342 27.6434H30.091C29.9903 27.6434 29.9084 27.5616 29.9084 27.4609C29.9084 27.3602 29.9903 27.2783 30.091 27.2783H33.1342C33.2353 27.2783 33.3171 27.3601 33.3171 27.4609ZM33.0486 28.9024H30.177L29.6484 28.1442L33.5772 28.1438L33.0486 28.9024ZM30.9738 50.0161H29.6936V39.3905H30.9738V50.0161ZM32.2566 50.0161H30.9762V39.3905H32.2566V50.0161Z" stroke="#14306E" stroke-width="0.15" stroke-miterlimit="10" stroke-linecap="round" stroke-linejoin="round"/>
<path d="M29.1461 32.7469H17.3714V32.0338H29.9076V32.4705H29.4564C29.2852 32.4705 29.1461 32.5942 29.1461 32.7469ZM29.1461 32.7469H17.0264V33.0227H29.4564C29.2852 33.0227 29.1461 32.899 29.1461 32.7469ZM33.5311 50.0159H32.2509V39.3903H33.5311V50.0159ZM34.1066 50.9949H29.1174V50.6583H34.1066L34.1066 50.9949ZM34.211 52.0729H29.0129L29.2695 50.9949H33.9544L34.211 52.0729ZM34.3659 52.3942H28.858V52.0729H34.3659L34.3659 52.3942ZM34.5739 52.7154H28.6502V52.3942H34.5739V52.7154ZM34.8417 53.0366H28.382V52.7154H34.8417V53.0366ZM33.0478 27.2781V24.3849H30.1761V27.2781L33.0478 27.2781ZM33.0478 27.6433H30.1761V28.144L33.0478 28.1436V27.6433ZM30.1762 31.3213H33.0478V28.9021H30.1761L30.1762 31.3213ZM29.7874 33.8392L29.737 33.7122H16.4746L16.898 34.5402H29.7874V33.8392Z" stroke="#14306E" stroke-width="0.15" stroke-miterlimit="10" stroke-linecap="round" stroke-linejoin="round"/>
<path d="M28.6938 37H16.8989V34.5402H29.7883V36.7236H29.0611C28.858 36.7236 28.6938 36.8473 28.6938 37ZM28.6938 37C28.6938 37.1521 28.858 37.2758 29.0611 37.2758H29.2855L29.3409 37.5051H16.6467C16.5043 37.5051 16.3892 37.3918 16.3892 37.2522C16.3892 37.1127 16.5043 37 16.6467 37H28.6938ZM29.341 37.5051H16.6417V37.7207H29.3933L29.341 37.5051ZM29.6485 39.3903H29.5656C29.5656 39.1473 29.5314 38.6077 29.5129 38.333H15.5555C15.5555 38.333 15.5178 38.7227 15.9706 38.8359C15.9706 38.8359 15.7822 39.2655 16.2347 39.3903C16.2347 39.3903 16.1593 40.0437 16.6499 40.0437H29.6485V39.3903ZM51.3506 52.7154V52.3942H51.1424V52.0729H50.9876L50.731 50.9949L50.8834 50.9796V50.6583H50.6765V50.3371H50.5155V50.0159H50.3079V40.0437H63.3517V53.0366H51.6185V52.7154H51.3506ZM50.3531 38.333H64.4461L64.9365 37.7207H50.3531V38.333Z" stroke="#14306E" stroke-width="0.15" stroke-miterlimit="10" stroke-linecap="round" stroke-linejoin="round"/>
<path d="M62.529 40.0437H62.9739V38.333H62.529V40.0437ZM61.2819 40.0437H61.7273V38.333H61.2819V40.0437ZM60.0354 40.0437H60.4803V38.333H60.0354L60.0354 40.0437ZM58.7885 40.0437H59.2335V38.333H58.7885V40.0437ZM57.5416 40.0437H57.987V38.333H57.5416V40.0437ZM56.2948 40.0437H56.7401V38.333H56.2948V40.0437ZM55.0479 40.0437H55.4932V38.333H55.0479V40.0437ZM53.8014 40.0437H54.2467V38.333H53.8014V40.0437ZM52.5545 40.0437H52.9998V38.333H52.5545V40.0437ZM51.3076 40.0437H51.753V38.333H51.3076V40.0437ZM51.3354 40.5663H59.0389V40.0437H51.3354V40.5663ZM51.558 40.5663H58.8162V40.9674H51.558V40.5663ZM51.8461 40.9674H58.5279V53.0366H51.8461L51.8461 40.9674Z" stroke="#14306E" stroke-width="0.15" stroke-miterlimit="10" stroke-linecap="round" stroke-linejoin="round"/>
<path d="M53.4762 42.672V45.7316M54.1939 42.1669V45.7316M54.9118 41.9108V45.7316M55.6295 41.9519V45.7316M56.3471 42.2578V45.7316M57.0652 42.8439V45.7316M52.4376 44.9168H57.9366M52.5846 44.1994H57.7899M52.8696 43.4814H57.5049M53.3841 42.7634H56.9901M52.9162 53.0366H57.458V46.2487H52.9162V53.0366ZM57.742 46.802H58.1818V46.2487H57.742V46.802ZM57.742 47.5594H58.1818V47.0061H57.742V47.5594ZM57.742 48.3173H58.1818V47.764H57.742V48.3173ZM57.742 49.0747H58.1818V48.5214H57.742V49.0747ZM57.742 49.8326H58.1818V49.2788H57.742V49.8326ZM57.742 50.5899H58.1818V50.0367H57.742V50.5899ZM57.742 51.3479H58.1818V50.7941H57.742V51.3479ZM57.742 52.1052H58.1818V51.552H57.742V52.1052ZM57.742 52.8631H58.1818V52.3093H57.742V52.8631ZM52.1924 46.802H52.6325V46.2487H52.1924V46.802ZM52.1924 47.5594H52.6325V47.0061H52.1924V47.5594ZM52.1924 48.3173H52.6325V47.764H52.1924V48.3173ZM52.1924 49.0747H52.6325V48.5214H52.1924V49.0747ZM52.1924 49.8326H52.6325V49.2788H52.1924V49.8326ZM52.1924 50.5899H52.6325V50.0367H52.1924V50.5899ZM52.1924 51.3479H52.6325V50.7941H52.1924V51.3479ZM52.1924 52.1052H52.6325V51.552H52.1924V52.1052ZM52.1924 52.8631H52.6325V52.3093H52.1924V52.8631ZM55.1873 41.8676C55.2051 41.866 57.9869 42.0498 57.9869 45.7316H52.3873C52.3873 42.0498 55.1691 41.866 55.1873 41.8676Z" stroke="#14306E" stroke-width="0.15" stroke-miterlimit="10" stroke-linecap="round" stroke-linejoin="round"/>
<path d="M53.6621 53.0366V50.6622C53.6621 50.4827 53.8078 50.3371 53.9872 50.3371C54.0437 50.3371 54.0958 50.353 54.1417 50.3776V49.1474C54.1417 48.528 54.6446 48.0251 55.2642 48.0251C55.8839 48.0251 56.3867 48.528 56.3867 49.1474V50.3371C56.5663 50.3371 56.7122 50.4827 56.7122 50.6622V53.0366H53.6621Z" stroke="#14306E" stroke-width="0.15" stroke-miterlimit="10" stroke-linecap="round" stroke-linejoin="round"/>
<path d="M49.8245 23.6878C50.0171 23.6878 50.1729 23.844 50.1729 24.0365C50.1729 24.229 50.0171 24.3849 49.8245 24.3849H46.9527C46.7601 24.3849 46.6046 24.229 46.6046 24.0365C46.6046 23.844 46.7601 23.6878 46.9527 23.6878M49.8245 23.6878H46.9527M49.8245 23.6878V23.4552C49.8245 22.7139 48.3886 20.9639 48.3886 20.9639M46.9527 23.6878V23.4552C46.9527 22.7139 48.3886 20.9639 48.3886 20.9639M45.4697 37C45.4697 37.1521 45.6342 37.2758 45.8369 37.2758H50.9402C51.1433 37.2758 51.3078 37.1521 51.3078 37C51.3078 36.8473 51.1433 36.7236 50.9402 36.7236H45.837C45.6342 36.7236 45.4698 36.8473 45.4698 37M55.3937 50.3371V49.1474C55.3937 48.7064 55.1385 48.3255 54.7682 48.1422C54.9179 48.0678 55.086 48.0251 55.2645 48.0251C55.8842 48.0251 56.387 48.528 56.387 49.1474V50.3371C56.5666 50.3371 56.7125 50.4827 56.7125 50.6622V53.0366H55.7191V50.6622C55.7191 50.4827 55.5735 50.3371 55.3937 50.3371ZM50.5363 33.0227H62.8361V33.7122H50.2637L50.5363 33.0227ZM51.5581 36.4194H58.7887V34.9933H51.5581V36.4194ZM46.2617 50.3371H50.5155V50.0159H46.2617V50.3371ZM46.1011 50.6583H50.6765V50.3371H46.1011V50.6583ZM46.4731 38.165L46.2772 37.2758H46.5457L46.717 38.165H46.913L46.7622 37.2758H47.0307L47.1568 38.165H47.3528L47.2465 37.2758H47.7957L47.8508 38.165H48.0467L48.0118 37.2758H48.2804L48.2906 38.165H48.4865L48.4969 37.2758H48.7654L48.7304 38.165H48.9264L48.9812 37.2758H49.5306L49.4245 38.165H49.6204L49.7465 37.2758H50.015L49.8639 38.165H50.0602L50.2315 37.2758H50.5L50.3038 38.165H50.5C50.5 38.165 50.4356 39.0565 50.4356 39.3903H46.3415C46.3415 38.9454 46.3148 38.5174 46.2826 38.165H46.4731ZM48.0837 26.2446V24.9731C48.0837 24.8045 48.22 24.6681 48.3886 24.6681C48.5571 24.6681 48.6935 24.8045 48.6935 24.9731V26.2446H48.0837ZM49.1771 26.2446V24.9731C49.1771 24.8045 49.2635 24.6681 49.3703 24.6681C49.4772 24.6681 49.5638 24.8045 49.5638 24.9731V26.2446H49.1771ZM47.2137 26.2446V24.9731C47.2137 24.8045 47.3001 24.6681 47.4069 24.6681C47.5137 24.6681 47.6004 24.8045 47.6004 24.9731V26.2446H47.2137ZM46.6841 32.4705H50.0931V31.3213H46.6841V32.4705ZM45.923 32.7469C45.923 32.899 46.062 33.0227 46.2333 33.0227H50.5439C50.7155 33.0227 50.8542 32.899 50.8542 32.7469C50.8542 32.5942 50.7155 32.4705 50.5439 32.4705H46.2333C46.0621 32.4705 45.923 32.5942 45.923 32.7469Z" stroke="#14306E" stroke-width="0.15" stroke-miterlimit="10" stroke-linecap="round" stroke-linejoin="round"/>
<path d="M49.8895 33.9119H50.1838L50.5355 33.0227H50.1838L49.8895 33.9119ZM49.2301 33.9119H49.5244L49.747 33.0227H49.3953L49.2301 33.9119ZM48.5707 33.9119H48.8646L48.9582 33.0227H48.6067L48.5707 33.9119ZM47.9113 33.9119H48.2049L48.1692 33.0227H47.8175L47.9113 33.9119ZM47.2516 33.9119H47.5455L47.3807 33.0227H47.0285L47.2516 33.9119ZM46.5922 33.9119H46.886L46.5922 33.0227H46.24L46.5922 33.9119ZM50.303 38.165H50.4992L50.7154 37.2758H50.4993L50.303 38.165ZM49.8635 38.165H50.0594L50.2307 37.2758H50.0142L49.8635 38.165ZM49.4236 38.165H49.6196L49.7457 37.2758H49.5298L49.4236 38.165ZM48.7297 38.165H48.9256L48.9804 37.2758H48.7646L48.7297 38.165ZM48.2898 38.165H48.4861L48.4961 37.2758H48.2796L48.2898 38.165ZM47.8501 38.165H48.046L48.011 37.2758H47.7948L47.8501 38.165ZM47.156 38.165H47.352L47.2457 37.2758H47.0299L47.156 38.165ZM46.7161 38.165H46.9122L46.7614 37.2758H46.5449L46.7161 38.165ZM46.2763 38.165H46.4722L46.2763 37.2758H46.0605L46.2763 38.165Z" stroke="#14306E" stroke-width="0.15" stroke-miterlimit="10" stroke-linecap="round" stroke-linejoin="round"/>
<path d="M46.5924 33.9122H46.8862L46.5924 33.0229H47.0287L47.2515 33.9122H47.5457L47.3809 33.0229H47.8177L47.9111 33.9122H48.2051L48.1694 33.0229H48.6065L48.5709 33.9122H48.8648L48.958 33.0229H49.3951L49.2304 33.9122H49.5246L49.7472 33.0229H50.184L49.8897 33.9122H50.184L50.2127 33.8394V36.7238H46.5632V33.8388L46.5924 33.9122ZM46.6835 27.4609C46.6835 27.5616 46.7653 27.6434 46.8664 27.6434H49.9099C50.0107 27.6434 50.0925 27.5616 50.0925 27.4609C50.0925 27.3602 50.0107 27.2783 49.9099 27.2783H46.8664C46.7653 27.2783 46.6835 27.3601 46.6835 27.4609ZM46.952 28.9024H49.8239L50.3526 28.1442L46.4238 28.1438L46.952 28.9024ZM49.0272 50.0161H50.3073V39.3905H49.0272V50.0161ZM47.7444 50.0161H49.0244V39.3905H47.7444V50.0161Z" stroke="#14306E" stroke-width="0.15" stroke-miterlimit="10" stroke-linecap="round" stroke-linejoin="round"/>
<path d="M50.5434 32.4705H50.0926V32.0338H62.6288V32.7469H50.8537M50.8537 32.7469C50.8537 32.5942 50.715 32.4705 50.5435 32.4705M50.8537 32.7469H62.9735V33.0227H50.5434C50.715 33.0227 50.8537 32.899 50.8537 32.7469ZM46.4691 50.0159H47.7489V39.3903H46.4691V50.0159ZM45.8936 50.9949H50.8828V50.6583H45.8937L45.8936 50.9949ZM45.7891 52.0729H50.987L50.7304 50.9949H46.0454L45.7891 52.0729ZM45.6343 52.3942H51.1418V52.0729H45.6343V52.3942ZM45.4263 52.7154H51.35V52.3942H45.4263V52.7154ZM45.1582 53.0366H51.618V52.7154H45.1582V53.0366ZM46.9521 27.2781V24.3849H49.824V27.2781L46.9521 27.2781ZM46.9521 27.6433H49.824V28.144L46.9521 28.1436L46.9521 27.6433ZM49.824 31.3213H46.9521V28.9021H49.824V31.3213ZM50.2128 33.8392L50.2632 33.7122H63.5257L63.1021 34.5402H50.2128V33.8392Z" stroke="#14306E" stroke-width="0.15" stroke-miterlimit="10" stroke-linecap="round" stroke-linejoin="round"/>
<path d="M51.307 37H63.1019V34.5402H50.2125V36.7236H50.9394C51.1426 36.7236 51.307 36.8473 51.307 37ZM51.307 37C51.307 37.1521 51.1426 37.2758 50.9394 37.2758H50.7154L50.6596 37.5051M51.307 37H63.3542C63.4964 37 63.6119 37.1127 63.6119 37.2522C63.6119 37.3918 63.4964 37.5051 63.3542 37.5051H50.6596M50.6596 37.5051H63.3591V37.7207H50.6075L50.6596 37.5051ZM50.3524 39.3903H50.4349C50.4349 39.1473 50.4692 38.6077 50.4876 38.333H64.4453C64.4453 38.333 64.4826 38.7227 64.03 38.8359C64.03 38.8359 64.2188 39.2655 63.7657 39.3903C63.7657 39.3903 63.8412 40.0437 63.3509 40.0437H50.3524V39.3903ZM46.3408 39.3903C46.3408 38.9454 46.3141 38.5174 46.2818 38.165H46.2763L46.1421 37.6129H33.8577L33.7233 38.165H33.7179C33.6861 38.5174 33.6593 38.9454 33.6593 39.3903H33.5312V50.0159H33.7392V50.3371H33.8998V50.6583H34.1067V50.9949H33.9545L34.2112 52.0729H34.3661V52.3942H34.574V52.7154H34.8418V53.0366H35.4234H35.4231C35.4231 52.3942 35.0634 52.3942 35.0634 52.3942V46.2487C35.409 46.2487 35.4262 45.9888 35.4245 45.6829H34.4582V45.0738H34.887C35.1309 39.4784 39.9999 38.6909 39.9999 38.6909C39.9999 38.6909 44.8689 39.4784 45.1127 45.0738H45.5416V45.6829H44.5756C44.5735 45.9888 44.591 46.2487 44.9363 46.2487V52.3942C44.9363 52.3942 44.577 52.3942 44.577 53.0366H44.5767H45.158V52.7154H45.4261V52.3942H45.6341V52.0729H45.7889L46.0451 50.9949H45.8934V50.6583H46.1003V50.3371H46.2609V50.0159H46.4689V39.3903H46.3408ZM34.936 36.7236H34.4708V33.9119H34.936V36.7236ZM36.4494 36.7236H35.9842V33.9119H36.4494V36.7236ZM37.9628 36.7236H37.4975V33.9119H37.9627L37.9628 36.7236ZM39.4761 36.7236H39.0106V33.9119H39.4761V36.7236ZM40.9891 36.7236H40.524V33.9119H40.9891V36.7236ZM42.5025 36.7236H42.0373V33.9119H42.5025V36.7236ZM44.0159 36.7236H43.5507V33.9119H44.0159V36.7236ZM45.5293 36.7236H45.0637V33.9119H45.5293V36.7236Z" stroke="#14306E" stroke-width="0.15" stroke-miterlimit="10" stroke-linecap="round" stroke-linejoin="round"/>
<path d="M34.4581 45.074H35.7785C35.7785 45.074 35.7973 45.3892 35.6106 45.3892C35.6106 45.3892 35.6631 45.6831 35.4531 45.6831H34.458L34.4581 45.074ZM45.5415 45.074H44.221C44.221 45.074 44.2024 45.3892 44.3887 45.3892C44.3887 45.3892 44.3364 45.6831 44.5463 45.6831H45.5415V45.074Z" stroke="#14306E" stroke-width="0.15" stroke-miterlimit="10" stroke-linecap="round" stroke-linejoin="round"/>
<path d="M45.1135 45.0737C44.8696 39.4783 40.0006 38.6908 40.0006 38.6908C40.0006 38.6908 35.1316 39.4783 34.8877 45.0737H35.4359C35.6862 40.0928 40.0006 39.3902 40.0006 39.3902C40.0006 39.3902 44.3153 40.0928 44.5657 45.0737H45.1135ZM36.3336 39.1297C36.3336 39.4323 36.0881 39.6786 35.7848 39.6786C35.482 39.6786 35.2364 39.4323 35.2364 39.1297C35.2364 38.8271 35.4821 38.5808 35.7848 38.5808C36.088 38.5808 36.3336 38.8271 36.3336 39.1297Z" stroke="#14306E" stroke-width="0.15" stroke-miterlimit="10" stroke-linecap="round" stroke-linejoin="round"/>
<path d="M44.7643 39.1298C44.7643 39.4325 44.5186 39.6787 44.2154 39.6787C43.9123 39.6787 43.6667 39.4325 43.6667 39.1298C43.6667 38.8272 43.9123 38.581 44.2154 38.581C44.5186 38.581 44.7642 38.8272 44.7642 39.1298M36.0499 39.1298C36.0499 39.2765 35.931 39.3958 35.784 39.3958C35.6374 39.3958 35.5186 39.2765 35.5186 39.1298C35.5186 38.9832 35.6374 38.8639 35.784 38.8639C35.931 38.8639 36.0499 38.9832 36.0499 39.1298Z" stroke="#14306E" stroke-width="0.15" stroke-miterlimit="10" stroke-linecap="round" stroke-linejoin="round"/>
<path d="M46.9518 27.8934H33.0479V27.643H33.1334C33.2346 27.643 33.3164 27.5611 33.3164 27.4604C33.3164 27.3597 33.2346 27.2778 33.1334 27.2778H33.0479V26.4923H46.9518V27.2778H46.8662C46.7651 27.2778 46.6833 27.3597 46.6833 27.4604C46.6833 27.5611 46.7651 27.643 46.8662 27.643H46.9518V27.8934ZM46.9518 27.8934V28.1434H46.4359L46.6877 28.5226H33.3119L33.5764 28.1434H33.2749V27.8934H46.9518ZM46.563 33.9117V36.7234H45.8362H33.4367V33.9117M46.563 33.9117H33.4367M46.563 33.9117V33.8384L46.5921 33.9117L46.24 33.0224H33.76L33.4078 33.9117L33.4367 33.8384L33.4367 33.9117M44.4814 39.1296C44.4814 39.2762 44.3626 39.3955 44.2156 39.3955C44.069 39.3955 43.9498 39.2762 43.9498 39.1296C43.9498 38.9829 44.069 38.8636 44.2156 38.8636C44.3625 38.8636 44.4814 38.9829 44.4814 39.1296ZM33.7672 33.0224H46.2325C46.0613 33.0224 45.9222 32.8988 45.9222 32.7466C45.9222 32.594 46.0612 32.4703 46.2325 32.4703H46.6833V31.3211H46.9518V28.9019L46.6877 28.5227H33.3119L33.0479 28.9019V31.3211H33.3164V32.4703H33.7672C33.9385 32.4703 34.0775 32.594 34.0775 32.7466C34.0775 32.8988 33.9385 33.0224 33.7672 33.0224ZM46.0605 37.2755H45.8362C45.6334 37.2755 45.469 37.1519 45.469 36.9997C45.469 36.847 45.6334 36.7234 45.8362 36.7234H34.1639C34.3666 36.7234 34.5311 36.847 34.5311 36.9997C34.5311 37.1519 34.3666 37.2755 34.1639 37.2755H33.9395L33.929 37.3204H46.0711L46.0605 37.2755Z" stroke="#14306E" stroke-width="0.15" stroke-miterlimit="10" stroke-linecap="round" stroke-linejoin="round"/>
<path d="M46.0719 37.3146H33.9297L33.8584 37.6129H46.1428L46.0719 37.3146ZM35.4238 53.0366C35.4238 52.3942 35.0641 52.3942 35.0641 52.3942V46.2487C35.4097 46.2487 35.4269 45.9888 35.4252 45.6829H34.4589V52.3942H34.527V52.7154H34.7949V53.0366H35.4238ZM44.5763 45.6829C44.5742 45.9888 44.5918 46.2487 44.937 46.2487V52.3942C44.937 52.3942 44.5778 52.3942 44.5778 53.0366H45.111V52.7154H45.379V52.3942H45.5424V45.6829H44.5763ZM34.4589 38.0266V45.0738H34.8877C35.1316 39.4784 40.0006 38.6909 40.0006 38.6909C40.0006 38.6909 44.8696 39.4784 45.1134 45.0738H45.5424V38.0266H34.4589Z" stroke="#14306E" stroke-width="0.15" stroke-miterlimit="10" stroke-linecap="round" stroke-linejoin="round"/>
</svg>
