<svg width="26" height="26" viewBox="0 0 26 26" fill="none" xmlns="http://www.w3.org/2000/svg">
<path d="M25.9418 1.1144C26.0009 0.966748 26.0154 0.805 25.9834 0.649207C25.9515 0.493413 25.8745 0.350424 25.762 0.237968C25.6496 0.125511 25.5066 0.0485319 25.3508 0.0165734C25.195 -0.0153851 25.0333 -0.000917433 24.8856 0.0581829L1.24755 9.51373H1.24593L0.511451 9.80622C0.37234 9.86171 0.251274 9.95457 0.161626 10.0745C0.0719778 10.1945 0.017237 10.3369 0.00345011 10.4861C-0.0103368 10.6352 0.0173668 10.7853 0.0835006 10.9196C0.149634 11.054 0.251625 11.1675 0.378205 11.2475L1.04443 11.67L1.04606 11.6733L9.16265 16.8374L11.7463 20.8965C13.0008 22.7489 13.0008 21.124 13.0008 20.3115C13.0006 19.279 13.219 18.2581 13.6418 17.3161C14.0646 16.3741 14.682 15.5324 15.4535 14.8462C16.2251 14.16 17.1332 13.645 18.118 13.3351C19.1029 13.0251 20.1423 12.9273 21.1677 13.048L25.9418 1.1144ZM22.9633 4.18554L10.786 16.3629L10.4366 15.8136C10.3726 15.7129 10.2872 15.6274 10.1864 15.5634L9.63714 15.214L21.8145 3.0367L23.7287 2.27136L22.9633 4.18554Z" fill="white"/>
<path d="M25.9996 20.3113C25.9996 21.8197 25.4004 23.2663 24.3338 24.3329C23.2673 25.3994 21.8207 25.9986 20.3123 25.9986C18.8039 25.9986 17.3573 25.3994 16.2908 24.3329C15.2242 23.2663 14.625 21.8197 14.625 20.3113C14.625 18.803 15.2242 17.3564 16.2908 16.2898C17.3573 15.2232 18.8039 14.624 20.3123 14.624C21.8207 14.624 23.2673 15.2232 24.3338 16.2898C25.4004 17.3564 25.9996 18.803 25.9996 20.3113ZM22.7611 17.583C22.6696 17.5282 22.5681 17.4919 22.4625 17.4763C22.357 17.4606 22.2494 17.4659 22.1458 17.4919C22.0423 17.5178 21.9449 17.5639 21.8592 17.6275C21.7735 17.6911 21.7012 17.771 21.6464 17.8625L19.7452 21.0312L18.8564 20.1423C18.7038 19.9898 18.4969 19.9041 18.2811 19.9041C18.0654 19.9041 17.8585 19.9898 17.7059 20.1423C17.5533 20.2949 17.4676 20.5018 17.4676 20.7176C17.4676 20.9333 17.5533 21.1402 17.7059 21.2928L18.9636 22.5489C19.0945 22.68 19.2536 22.7796 19.4288 22.84C19.604 22.9005 19.7906 22.9202 19.9746 22.8976C20.1585 22.875 20.3349 22.8108 20.4903 22.7099C20.6456 22.6089 20.776 22.4738 20.8713 22.3149L23.0406 18.6978C23.0954 18.6062 23.1317 18.5048 23.1474 18.3992C23.163 18.2936 23.1577 18.186 23.1318 18.0825C23.1058 17.979 23.0597 17.8816 22.9961 17.7959C22.9325 17.7102 22.8527 17.6379 22.7611 17.583Z" fill="white"/>
</svg>
