<svg width="20" height="16" viewBox="0 0 20 16" fill="none" xmlns="http://www.w3.org/2000/svg">
<path d="M13.2782 3.64479L17.7345 8.04444L13.2782 12.3997V9.24435L11.3683 9.33323C8.27612 9.46655 5.91151 9.77764 4.04711 10.3998C5.68415 8.71105 8.27612 7.37783 11.6411 7.06674L13.2782 6.93342V3.64479ZM11.9594 0.000635607C11.8877 0.00623395 11.8178 0.0256499 11.7538 0.0577651C11.6897 0.0898802 11.6328 0.13406 11.5863 0.18776C11.5398 0.24146 11.5047 0.303619 11.4828 0.370657C11.461 0.437695 11.453 0.508287 11.4592 0.578368V5.2891C4.54732 5.95572 0.0909464 10.5776 0 15.2439C0 15.5105 0.0909463 15.6883 0.272839 15.6883C0.454732 15.6883 0.591151 15.555 0.773044 15.1994C1.8644 12.7996 4.31995 11.422 11.4592 11.1109V15.4216C11.453 15.4917 11.461 15.5623 11.4828 15.6293C11.5047 15.6964 11.5398 15.7585 11.5863 15.8122C11.6328 15.8659 11.6897 15.9101 11.7538 15.9422C11.8178 15.9743 11.8877 15.9938 11.9594 15.9994C12.0307 16.0033 12.1017 15.989 12.1655 15.9578C12.2293 15.9266 12.2837 15.8796 12.3232 15.8216L19.8263 8.48885C19.9382 8.36663 20 8.20841 20 8.04444C20 7.88047 19.9382 7.72225 19.8263 7.60003L12.3232 0.178399C12.2837 0.120351 12.2293 0.0734077 12.1655 0.0422259C12.1017 0.011044 12.0307 -0.00329338 11.9594 0.000635607Z" fill="#003FC8"/>
</svg>
