<svg width="32" height="32" viewBox="0 0 32 32" fill="none" xmlns="http://www.w3.org/2000/svg">
<rect x="0.699951" y="0.699707" width="26" height="26" stroke="#999999"/>
<path d="M30.0585 24.3416C30.1366 24.4197 30.2633 24.4197 30.3414 24.3416L31.6142 23.0688C31.6923 22.9907 31.6923 22.8641 31.6142 22.786C31.5361 22.7079 31.4094 22.7079 31.3313 22.786L30.2 23.9174L29.0686 22.786C28.9905 22.7079 28.8638 22.7079 28.7857 22.786C28.7076 22.8641 28.7076 22.9907 28.7857 23.0688L30.0585 24.3416ZM30.3414 0.058773C30.2633 -0.019331 30.1366 -0.019331 30.0585 0.058773L28.7857 1.33157C28.7076 1.40967 28.7076 1.5363 28.7857 1.61441C28.8638 1.69251 28.9905 1.69251 29.0686 1.61441L30.2 0.483038L31.3313 1.61441C31.4094 1.69251 31.5361 1.69251 31.6142 1.61441C31.6923 1.5363 31.6923 1.40967 31.6142 1.33157L30.3414 0.058773ZM30.2 24.2002H30.4V0.200195H30.2H30V24.2002H30.2Z" fill="#999999"/>
<path d="M0.0585298 30.0583C-0.019575 30.1364 -0.019575 30.263 0.0585298 30.3411L1.33132 31.6139C1.40943 31.692 1.53606 31.692 1.61416 31.6139C1.69227 31.5358 1.69227 31.4092 1.61416 31.3311L0.482794 30.1997L1.61416 29.0683C1.69227 28.9902 1.69227 28.8636 1.61416 28.7855C1.53606 28.7074 1.40943 28.7074 1.33132 28.7855L0.0585298 30.0583ZM24.3414 30.3411C24.4195 30.263 24.4195 30.1364 24.3414 30.0583L23.0686 28.7855C22.9905 28.7074 22.8638 28.7074 22.7857 28.7855C22.7076 28.8636 22.7076 28.9902 22.7857 29.0683L23.9171 30.1997L22.7857 31.3311C22.7076 31.4092 22.7076 31.5358 22.7857 31.6139C22.8638 31.692 22.9905 31.692 23.0686 31.6139L24.3414 30.3411ZM0.199951 30.1997V30.3997H24.2V30.1997V29.9997H0.199951V30.1997Z" fill="#999999"/>
</svg>
