<svg width="31" height="31" viewBox="0 0 31 31" fill="none" xmlns="http://www.w3.org/2000/svg">
<path d="M8.28306 12.3656C9.29447 14.1922 10.4596 15.9449 11.9712 17.5424C13.4877 19.1498 15.3727 20.6118 17.8116 21.8594C17.9924 21.9474 18.1634 21.9471 18.3171 21.8855C18.5489 21.7968 18.7855 21.6026 19.0171 21.3691C19.1975 21.1872 19.4216 20.8973 19.6555 20.5803C20.5912 19.3395 21.7486 17.799 23.3882 18.5669C23.4249 18.5841 23.4518 18.6036 23.4884 18.6183L28.9583 21.7677C28.9754 21.7775 28.9949 21.7947 29.0096 21.8045C29.7307 22.3015 30.0299 23.0691 30.0386 23.9402C30.04 24.8261 29.7169 25.823 29.2421 26.6654C28.6139 27.7781 27.6872 28.5158 26.6185 29.0034C25.601 29.4762 24.4684 29.7308 23.3797 29.8945C21.6708 30.15 20.0687 29.9906 18.4295 29.4878C16.8269 28.9922 15.2115 28.1727 13.4468 27.0811L13.3172 26.9979C12.5082 26.4912 11.6331 25.9503 10.775 25.3112C7.63595 22.9359 4.4341 19.503 2.34515 15.7224C0.594147 12.5498 -0.363682 9.1231 0.151148 5.85603C0.436389 4.06416 1.19804 2.43349 2.52952 1.3565C3.69029 0.412303 5.25465 -0.105556 7.28162 0.0727671C7.51362 0.0895706 7.72139 0.224204 7.8316 0.425252L11.3452 6.37293C11.859 7.03958 11.9236 7.70205 11.6438 8.36508C11.4127 8.90778 10.9447 9.40914 10.3057 9.87643C10.118 10.0387 9.8936 10.2035 9.65702 10.3756C8.87413 10.9487 7.98394 11.6102 8.29042 12.3852L8.28306 12.3656Z" fill="#4C5564"/>
</svg>
