<svg width="35" height="35" viewBox="0 0 35 35" fill="none" xmlns="http://www.w3.org/2000/svg">
<path d="M9.63885 14.3833C10.8152 16.5159 12.171 18.5626 13.9312 20.429C15.6972 22.3068 17.8932 24.0157 20.7359 25.4756C20.9466 25.5786 21.146 25.5786 21.3255 25.5071C21.596 25.404 21.8723 25.1779 22.1429 24.9059C22.3537 24.6941 22.6157 24.3563 22.8892 23.9871C23.9829 22.5415 25.3359 20.7467 27.2471 21.6455C27.2898 21.6656 27.3211 21.6885 27.3639 21.7057L33.7384 25.3897C33.7583 25.4012 33.7811 25.4212 33.7982 25.4326C34.6384 26.0137 34.9859 26.9097 34.9945 27.9259C34.9945 28.9593 34.6157 30.1215 34.0602 31.1033C33.3254 32.4 32.243 33.2588 30.9955 33.8255C29.8077 34.3751 28.4861 34.67 27.2158 34.8589C25.2219 35.1538 23.3535 34.9648 21.4422 34.3751C19.5737 33.7941 17.691 32.8351 15.6345 31.5584L15.4836 31.4611C14.5408 30.8686 13.5211 30.236 12.5213 29.4888C8.86411 26.7122 5.13568 22.7018 2.70607 18.2878C0.669531 14.5837 -0.441309 10.5848 0.16538 6.77476C0.501481 4.68512 1.393 2.78441 2.94818 1.53063C4.30397 0.431422 6.12974 -0.169707 8.49383 0.0421197C8.76442 0.0621573 9.00653 0.219596 9.1347 0.454322L13.222 7.39879C13.8202 8.17739 13.8942 8.95027 13.5667 9.72315C13.2961 10.3558 12.7492 10.9397 12.0029 11.4836C11.7836 11.6725 11.5216 11.8643 11.2453 12.0647C10.331 12.7317 9.29136 13.5017 9.6474 14.4062L9.63885 14.3833Z" fill="white"/>
</svg>
