<svg width="18" height="18" viewBox="0 0 18 18" fill="none" xmlns="http://www.w3.org/2000/svg">
<path d="M15.378 2.61345C13.7558 0.9988 11.515 0 9.0395 0C4.08918 0 0.0753794 3.9946 0.0753794 8.92257C0.0753794 10.5624 0.519816 12.0984 1.29472 13.419L1.2718 13.377L0 18L4.75132 16.7593C5.98814 17.443 7.46377 17.8451 9.03407 17.8451H9.03769C13.988 17.8433 18 13.8481 18 8.92077C18 6.45798 16.9978 4.22869 15.3774 2.61405L15.378 2.61345ZM9.03769 16.3379H9.03467C7.63624 16.3379 6.32705 15.9538 5.20962 15.2857L5.24339 15.3043L4.97142 15.1441L2.15223 15.8806L2.90422 13.1441L2.72693 12.8637C2.01233 11.7461 1.58779 10.3842 1.58779 8.92317C1.58779 4.82833 4.92318 1.5084 9.03709 1.5084C13.151 1.5084 16.4864 4.82833 16.4864 8.92317C16.4864 13.018 13.1522 16.3379 9.03769 16.3379ZM13.1239 10.7851C12.9001 10.6735 11.799 10.1351 11.594 10.06C11.3883 9.98559 11.2388 9.94898 11.0892 10.1723C10.9409 10.395 10.5115 10.8968 10.3806 11.0456C10.2504 11.1951 10.1189 11.2131 9.8952 11.102C9.20171 10.8223 8.60592 10.4496 8.08791 9.9904L8.09394 9.9958C7.61211 9.55162 7.19904 9.04322 6.86556 8.48259L6.84867 8.45138C6.71842 8.22869 6.8348 8.10804 6.94636 7.997C7.04707 7.89736 7.17069 7.7365 7.28225 7.60684C7.3703 7.4994 7.44568 7.37635 7.50296 7.2443L7.50658 7.23409C7.53251 7.18187 7.54759 7.12125 7.54759 7.05642C7.54759 6.97779 7.52528 6.90456 7.48668 6.84214L7.48789 6.84394C7.4312 6.73229 6.98375 5.63505 6.79741 5.18848C6.6153 4.7539 6.43016 4.81333 6.29328 4.80612C6.16302 4.80012 6.01347 4.79892 5.86391 4.79892C5.62572 4.80492 5.41405 4.91177 5.26812 5.07683L5.26751 5.07803C4.78388 5.53481 4.48357 6.17887 4.48357 6.89256C4.48357 6.90816 4.48357 6.92437 4.48417 6.93998V6.93758C4.56317 7.81813 4.89484 8.60864 5.40501 9.2527L5.39777 9.2437C6.36504 10.6717 7.65433 11.8139 9.16734 12.5834L9.22403 12.6092C9.55449 12.7581 9.97782 12.9172 10.4108 13.0534L10.5007 13.078C10.7672 13.1621 11.0741 13.2107 11.3925 13.2107C11.5753 13.2107 11.755 13.1945 11.9286 13.1639L11.9099 13.1663C12.5546 13.0324 13.0895 12.6453 13.4157 12.1164L13.4212 12.1062C13.5207 11.8866 13.5785 11.6303 13.5785 11.3607C13.5785 11.2497 13.5689 11.1411 13.5502 11.0354L13.552 11.0468C13.4965 10.9538 13.347 10.8986 13.1227 10.7863L13.1239 10.7851Z" fill="#0EAB1A"/>
</svg>
