<svg width="64" height="68" viewBox="0 0 64 68" fill="none" xmlns="http://www.w3.org/2000/svg">
<path d="M16.7247 55.1107C18.8614 56.9156 21.3918 58.1842 24.1086 58.8126C24.3686 58.8983 24.5435 58.5554 24.3686 58.3839C18.5494 52.7856 21.7469 46.7268 24.1086 43.9951C25.7924 42.0449 28.1905 38.833 28.0156 34.5259C28.0156 34.0947 28.4529 33.7493 28.7979 34.009C32.0999 35.7313 34.3571 39.5215 34.9645 42.6207C35.9218 41.675 36.2693 40.2099 36.2693 38.9188C36.2693 38.4876 36.7892 38.1421 37.2242 38.4876C40.3512 41.3295 45.7354 50.9751 37.0492 58.5529C36.8767 58.7269 37.0492 59.0723 37.2242 58.9865C39.858 58.2903 42.3349 57.091 44.5206 55.4537C58.6785 44.4288 49.4699 24.8779 43.4758 18.4198C42.6959 17.6431 41.3061 18.1601 41.3061 19.2797C41.2186 21.6072 40.5237 24.1895 38.7014 25.9118C37.3116 20.0564 32.6806 13.4047 26.0791 10.1315C25.2117 9.70029 24.1693 10.3887 24.2568 11.3369C24.4269 19.3483 19.2443 24.4492 14.7275 31.0813C10.7306 37.0225 8.12595 47.9616 16.7247 55.1107Z" fill="#B89C93"/>
</svg>
