<svg width="64" height="68" viewBox="0 0 64 68" fill="none" xmlns="http://www.w3.org/2000/svg">
<path d="M11.2627 33.3633L11.1914 33.6699L5.19824 59.4688H10.4141L14.6699 33.5723L14.7041 33.3633H17.5439L17.4961 33.6533L15.7334 44.3887H30.6035V33.3633H33.3984V44.3887H48.2676L46.5049 33.6533L46.457 33.3633H49.2969L49.3311 33.5723L53.5938 59.4688H58.8037L52.8066 33.6699L52.7354 33.3633H55.6074L55.6523 33.5566L62.2432 61.9434L62.3145 62.25H1.68555L1.75684 61.9434L8.34375 33.5566L8.38867 33.3633H11.2627ZM13.248 59.4688H50.7539L48.7324 47.1689H15.2695L13.248 59.4688ZM55.582 27.2803V31.582H8.41895V27.2803H55.582ZM49.4365 6.75L49.4814 6.94336L53.7139 25.1924L53.7852 25.499H50.9131L50.8682 25.3057L47.2031 9.53125H45.376L47.9551 25.208L48.002 25.499H45.1621L45.1279 25.2891L43.875 17.6416H33.3984V25.499H30.6035V17.6416H20.127L18.873 25.2891L18.8389 25.499H15.999L16.0469 25.208L18.625 9.53125H16.7979L13.1328 25.3057L13.0879 25.499H10.2139L10.2842 25.1924L14.5195 6.94336L14.5645 6.75H49.4365ZM20.5791 14.8604H43.4219L42.5371 9.53125H21.4639L20.5791 14.8604Z" fill="#30C5D2" stroke="black" stroke-width="0.5"/>
</svg>
