<svg width="64" height="68" viewBox="0 0 64 68" fill="none" xmlns="http://www.w3.org/2000/svg">
<path d="M56.6237 51.1429C60.0645 46.2143 62 40.4286 62 34C62 28.2143 60.2796 22.8571 57.4839 18.3571C57.4839 18.1429 57.2688 18.1429 57.2688 17.9286C51.8925 9.57143 42.6452 4 31.8925 4C21.1398 4 11.6774 9.57143 6.51613 18.1429C6.51613 18.3571 6.30108 18.3571 6.30108 18.5714C3.50538 23.0714 2 28.4286 2 34.2143C2 40.6429 3.93548 46.4286 7.37634 51.3571L7.5914 51.5714C12.7527 59.0714 21.7849 64 31.8925 64C42 64 50.8172 59.0714 56.4086 51.5714C56.4086 51.3571 56.4086 51.3571 56.6237 51.1429ZM53.3979 47.9286L45.6559 49L42.6452 46L46.9462 33.5714L53.6129 30.3571L57.914 32.9286C57.914 33.3571 57.914 33.7857 57.914 34.4286C57.6989 39.1429 56.1936 44.0714 53.3979 47.9286ZM53.1828 19.6429L51.4624 26.0714L44.5806 29.5L34.043 22.2143V13.8571L41.3548 10.2143C46.3011 12.1429 50.3871 15.3571 53.1828 19.6429ZM22.2151 10.2143L29.7419 13.8571V22.2143L19.2043 29.7143L12.1075 26.2857L10.3871 19.6429C13.3979 15.3571 17.4839 12.1429 22.2151 10.2143ZM6.08602 32.5L10.3871 29.9286L17.0538 33.3571L21.3548 45.7857L18.3441 48.7857L10.3871 47.9286C7.5914 43.8571 6.08602 39.1429 6.08602 34C6.08602 33.5714 6.08602 32.9286 6.08602 32.5ZM25.2258 58.8571L21.5699 51.5714L24.1505 49H39.6344L42.2151 51.5714L38.5591 58.8571C36.4086 59.5 34.2581 59.7143 31.8925 59.7143C29.5269 59.7143 27.3763 59.2857 25.2258 58.8571Z" fill="#696EFF"/>
</svg>
