<svg width="64" height="68" viewBox="0 0 64 68" fill="none" xmlns="http://www.w3.org/2000/svg">
<path fill-rule="evenodd" clip-rule="evenodd" d="M32 12.4884C20.1195 12.4884 10.4884 22.1195 10.4884 34C10.4884 45.8805 20.1195 55.5116 32 55.5116C43.8805 55.5116 53.5116 45.8805 53.5116 34C53.5116 22.1195 43.8805 12.4884 32 12.4884ZM7 34C7 20.1929 18.1929 9 32 9C45.8072 9 57 20.1929 57 34C57 47.8072 45.8072 59 32 59C18.1929 59 7 47.8072 7 34ZM32 24.1163C30.5551 24.1163 29.3837 25.2876 29.3837 26.7326C29.3837 27.6958 28.6028 28.4767 27.6395 28.4767C26.6763 28.4767 25.8953 27.6958 25.8953 26.7326C25.8953 23.361 28.6286 20.6279 32 20.6279C35.3714 20.6279 38.1047 23.361 38.1047 26.7326C38.1047 28.9729 36.8967 30.9293 35.1053 31.9893C34.6477 32.26 34.27 32.5556 34.024 32.8456C33.7849 33.127 33.7442 33.3107 33.7442 33.4186V36.3256C33.7442 37.2888 32.9633 38.0698 32 38.0698C31.0367 38.0698 30.2558 37.2888 30.2558 36.3256V33.4186C30.2558 32.2421 30.7709 31.2874 31.3642 30.5884C31.9502 29.8977 32.6812 29.3702 33.3291 28.987C34.1033 28.5288 34.6163 27.6897 34.6163 26.7326C34.6163 25.2876 33.4449 24.1163 32 24.1163ZM32 45.6279C33.2844 45.6279 34.3256 44.5867 34.3256 43.3023C34.3256 42.0179 33.2844 40.9767 32 40.9767C30.7156 40.9767 29.6744 42.0179 29.6744 43.3023C29.6744 44.5867 30.7156 45.6279 32 45.6279Z" fill="#BEB15B"/>
</svg>
