<svg width="64" height="68" viewBox="0 0 64 68" fill="none" xmlns="http://www.w3.org/2000/svg">
<path d="M42.4553 20.25C43.9811 18.5622 46.1986 17.5 48.6667 17.5C53.2692 17.5 57 21.1937 57 25.75C57 30.3065 53.2692 34 48.6667 34H7M22.3035 13.8333C23.3208 12.7081 24.7991 12 26.4444 12C29.5128 12 32 14.4624 32 17.5C32 20.5376 29.5128 23 26.4444 23H7M30.6369 54.1666C31.6542 55.2919 33.1325 56 34.7778 56C37.8461 56 40.3333 53.5376 40.3333 50.5C40.3333 47.4624 37.8461 45 34.7778 45H7" stroke="#07F49E" stroke-width="5" stroke-linecap="round" stroke-linejoin="round"/>
</svg>
