<svg width="64" height="68" viewBox="0 0 64 68" fill="none" xmlns="http://www.w3.org/2000/svg">
<path d="M25.8193 53.8535C26.3308 56.8359 28.8973 59.0002 31.9219 59.0002C34.9473 59.0002 37.5146 56.8359 38.026 53.8535L38.0572 53.6719H25.7881L25.8193 53.8535Z" fill="#ECA0FF"/>
<path d="M52.7999 45.3262C52.2993 44.8254 51.7893 44.402 51.2958 43.9921C49.2204 42.2687 47.4278 40.7804 47.4278 34.6007V29.6989C47.4278 22.4911 42.3636 16.1665 35.3565 14.5808C35.6374 14.03 35.7798 13.4511 35.7798 12.8566C35.7798 10.7303 34.0494 9 31.9223 9C29.7957 9 28.0656 10.7303 28.0656 12.8566C28.0656 13.4515 28.2078 14.0303 28.4889 14.5808C21.4815 16.1665 16.4176 22.4911 16.4176 29.6989V34.6007C16.4176 40.7804 14.625 42.2687 12.5496 43.9921C12.0562 44.4019 11.5461 44.8254 11.0455 45.3262L11 45.3717V50.2348H52.8453V45.3717L52.7999 45.3262Z" fill="#ECA0FF"/>
</svg>
