<svg width="64" height="68" viewBox="0 0 64 68" fill="none" xmlns="http://www.w3.org/2000/svg">
<path d="M52.2304 44.2016C50.5447 34.1157 40.8588 25.9155 30.63 25.9155C19.5154 25.9155 9.74381 34.9157 8.80093 46.0016C8.42949 50.2874 9.80095 54.3446 12.6296 57.4018C15.4296 60.459 19.3726 62.1448 23.6584 62.1448H37.0301C41.8588 62.1448 46.0874 60.259 48.9732 56.859C51.859 53.4589 53.0018 48.9445 52.2304 44.2016Z" fill="#32C4C0"/>
<path d="M27.0854 21.7432C31.7089 21.7432 35.457 17.9951 35.457 13.3716C35.457 8.7481 31.7089 5 27.0854 5C22.4619 5 18.7139 8.7481 18.7139 13.3716C18.7139 17.9951 22.4619 21.7432 27.0854 21.7432Z" fill="#32C4C0"/>
<path d="M46.1151 25.0818C49.9655 25.0818 53.0867 21.9605 53.0867 18.1102C53.0867 14.2599 49.9655 11.1387 46.1151 11.1387C42.2648 11.1387 39.1436 14.2599 39.1436 18.1102C39.1436 21.9605 42.2648 25.0818 46.1151 25.0818Z" fill="#32C4C0"/>
<path d="M56.428 36.2331C59.5052 36.2331 61.9995 33.7384 61.9995 30.6612C61.9995 27.5843 59.5052 25.0898 56.428 25.0898C53.3511 25.0898 50.8564 27.5843 50.8564 30.6612C50.8564 33.7384 53.3511 36.2331 56.428 36.2331Z" fill="#32C4C0"/>
<path d="M8.97157 30.662C12.8218 30.662 15.9431 27.5406 15.9431 23.6903C15.9431 19.84 12.8218 16.7188 8.97157 16.7188C5.12129 16.7188 2 19.84 2 23.6903C2 27.5406 5.12129 30.662 8.97157 30.662Z" fill="#32C4C0"/>
</svg>
