<svg width="64" height="68" viewBox="0 0 64 68" fill="none" xmlns="http://www.w3.org/2000/svg">
<path d="M23 28H23.03M41 28H41.03M21.6055 40C23.6803 43.5868 27.5585 46 32 46C36.4418 46 40.3199 43.5868 42.3947 40M32 58C43.1831 58 52.5797 50.3515 55.244 40H56C59.3138 40 62 37.3138 62 34C62 30.6862 59.3138 28 56 28H55.244C52.5797 17.6487 43.1831 10 32 10C20.817 10 11.4204 17.6487 8.75612 28H8C4.68629 28 2 30.6862 2 34C2 37.3138 4.68629 40 8 40H8.75612C11.4204 50.3515 20.817 58 32 58Z" stroke="#F89B29" stroke-width="4" stroke-linecap="round" stroke-linejoin="round"/>
</svg>
