<svg width="64" height="68" viewBox="0 0 64 68" fill="none" xmlns="http://www.w3.org/2000/svg">
<path d="M20.9223 18.7693H43.0761C43.8229 18.7693 44.4958 18.3197 44.7819 17.6302C45.0681 16.9397 44.9102 16.1468 44.3813 15.6179L33.3044 4.54092C32.9435 4.18 32.4718 4 31.9992 4C31.5266 4 31.0549 4.18 30.6939 4.54092L19.617 15.6179C19.089 16.1459 18.9312 16.9397 19.2164 17.6302C19.5026 18.3197 20.1755 18.7693 20.9223 18.7693Z" fill="#BEB15B"/>
<path d="M17.2309 29.8463H46.7693C47.5161 29.8463 48.189 29.3967 48.4751 28.7072C48.7613 28.0167 48.6035 27.2238 48.0745 26.6949L42.033 20.6533H21.9672L15.9256 26.6949C15.3976 27.2229 15.2398 28.0167 15.525 28.7072C15.8112 29.3967 16.4841 29.8463 17.2309 29.8463Z" fill="#BEB15B"/>
<path d="M28.3076 62.1539C28.3076 62.6644 28.7202 63.077 29.2307 63.077H34.7692C35.2796 63.077 35.6922 62.6644 35.6922 62.1539V53.8462H28.3076V62.1539Z" fill="#BEB15B"/>
<path d="M55.459 48.8489L49.3796 42.7695H14.6202L8.54086 48.8489C8.01286 49.3769 7.85502 50.1708 8.14025 50.8612C8.4264 51.5508 9.09932 52.0003 9.84609 52.0003H54.1538C54.9005 52.0003 55.5734 51.5508 55.8596 50.8612C56.1448 50.1708 55.987 49.3769 55.459 48.8489Z" fill="#BEB15B"/>
<path d="M13.5385 40.9232H50.4615C51.2083 40.9232 51.8812 40.4736 52.1674 39.7841C52.4535 39.0936 52.2957 38.3007 51.7668 37.7718L45.6874 31.6924H18.3126L12.2332 37.7718C11.7052 38.2998 11.5474 39.0936 11.8326 39.7841C12.1188 40.4736 12.7917 40.9232 13.5385 40.9232Z" fill="#BEB15B"/>
</svg>
