<svg width="64" height="68" viewBox="0 0 64 68" fill="none" xmlns="http://www.w3.org/2000/svg">
<path fill-rule="evenodd" clip-rule="evenodd" d="M20.5425 6H18.5486C13.6439 6 11.1916 6 9.38581 7.3505C7.58003 8.70104 6.90631 11.039 5.55891 15.7148L3.53356 22.7432H17.3762L20.5425 6ZM2 29.1865C2.00777 29.2424 2.01739 29.2979 2.02894 29.3533C2.19687 30.1594 2.74505 30.8238 3.84141 32.1522L23.2475 55.6689L17.4607 29.4404H3.29232C2.83455 29.4404 2.39809 29.3502 2 29.1865ZM40.7526 55.6689L60.1587 32.1522C61.255 30.8238 61.8031 30.1594 61.971 29.3533C61.9824 29.2979 61.9922 29.2424 62 29.1865C61.6018 29.3502 61.1655 29.4404 60.7075 29.4404H46.5391L40.7526 55.6689ZM60.4663 22.7432L58.4409 15.7148C57.0937 11.039 56.4199 8.70104 54.614 7.3505C52.8085 6 50.3562 6 45.4512 6H43.4575L46.6238 22.7432H60.4663ZM36.5849 6H27.415L24.2486 22.7432H39.7512L36.5849 6ZM31.9998 64L24.3752 29.4404H39.6249L31.9998 64Z" fill="#F2C1EA"/>
</svg>
