<svg width="64" height="68" viewBox="0 0 64 68" fill="none" xmlns="http://www.w3.org/2000/svg">
<path d="M62 46.3462C58.5283 45.0083 55.6035 45.8823 51.541 47.103C50.4814 47.4204 49.3291 47.7671 48.2891 48.0405C47.3613 48.2846 45.9355 47.7573 44.4414 47.2055C42.5762 46.5171 40.6328 45.8042 38.3037 45.8628C36.5459 45.9067 35.0664 46.7124 33.5723 47.5278C32.6348 48.0405 31.6826 48.5581 31.1553 48.5776C30.5498 48.5971 29.6514 48.0698 28.7529 47.5425C27.2881 46.6782 25.8232 45.8139 23.7871 45.7456C21.5996 45.6723 19.9053 46.4243 18.2256 47.1714C17.2686 47.5962 16.3164 48.021 15.5205 48.0796C14.7686 48.1382 13.7627 47.4936 12.7861 46.8735C11.4287 46.0044 10.0957 45.1548 8.34278 44.9594C6.25782 44.73 3.98243 45.7114 2.04883 46.5415L2 46.5659C2 48.5434 2 50.5259 2 52.5034C2.41504 52.3813 2.84473 52.2153 3.28907 52.0346C3.59668 51.9077 3.91407 51.771 4.23633 51.6343C5.55957 51.0678 7.11719 50.394 7.73731 50.4624C8.23536 50.5161 9.02149 51.019 9.82227 51.5317C10.1152 51.7173 10.4131 51.9077 10.7109 52.0932C12.1953 52.9966 13.8066 53.768 15.9307 53.6069C17.6592 53.4751 19.0654 52.8501 20.4766 52.2202L20.5986 52.1665C21.6533 51.6977 22.7129 51.2436 23.6113 51.2729C24.1631 51.2925 24.9541 51.7368 25.7549 52.2055L25.9404 52.313C27.5273 53.2505 29.1191 54.188 31.3506 54.105C33.1719 54.0366 34.7051 53.2065 36.2139 52.3813L36.4043 52.2788C37.2441 51.8198 38.0498 51.3999 38.4355 51.3901C39.6172 51.3608 40.9795 51.8344 42.3027 52.3227L42.5322 52.4057C44.8467 53.2602 47.0537 54.0708 49.6709 53.3872C51.0771 53.021 52.1416 52.6987 53.1182 52.4057L53.1475 52.396C56.6875 51.3315 58.9971 50.6479 61.7656 52.4594C61.8389 52.5083 61.917 52.5571 61.9951 52.6108V52.4594V46.3462H62ZM19.0752 22.3325L12.1611 21.2827C7.85938 20.6382 9.15332 12.894 14.666 14.1343L30.3447 16.7221C32.0439 17.0005 34.959 17.2153 36.2285 18.3481C36.9561 18.9975 37.2588 19.9009 37.0928 21.0288C36.8584 22.6255 35.5254 24.6274 34.7246 26.0776L32.7861 29.5639C31.375 32.0981 30.6182 32.3423 33.2305 33.7436L51.0381 43.2944L49.7344 43.6802L45.8232 43.7387C45.3789 43.5923 44.915 43.4214 44.4414 43.2456C42.5762 42.5571 40.6328 41.8442 38.3037 41.9028C36.5459 41.9468 35.0664 42.7524 33.5723 43.5678L32.8984 43.9292L29.4512 43.9829C29.2217 43.8559 28.9873 43.7192 28.7578 43.5825C27.293 42.7182 25.8281 41.854 23.792 41.7856C21.6045 41.7124 19.9102 42.4643 18.2305 43.2114C17.2734 43.6362 16.3213 44.061 15.5254 44.1196C15.3447 44.1343 15.1494 44.105 14.9443 44.0512L24.0166 27.9184C24.7881 26.5464 26.1748 24.813 25.9746 23.768C25.9063 23.4165 25.4375 23.2749 24.8662 23.187C22.9326 22.9087 21.0088 22.6255 19.0752 22.3325ZM11.6045 25.9262C7.81055 25.9262 4.73438 29.0024 4.73438 32.7964C4.73438 36.5903 7.81055 39.6665 11.6045 39.6665C15.3984 39.6665 18.4746 36.5903 18.4746 32.7964C18.4697 28.9975 15.3984 25.9262 11.6045 25.9262Z" fill="#1C90BF"/>
</svg>
