<svg width="64" height="68" viewBox="0 0 64 68" fill="none" xmlns="http://www.w3.org/2000/svg">
<path d="M25.635 62.573C29.1567 62.573 31.9995 59.7302 31.9995 56.2086V27.2148H26.3422L19.2705 56.2086C19.2705 59.7302 22.1133 62.573 25.635 62.573Z" stroke="#ECA0FF" stroke-width="5" stroke-miterlimit="2" stroke-linecap="round" stroke-linejoin="round"/>
<path d="M26.3428 27.2148H20.6855L7.50382 53.9456C5.93391 57.637 8.18271 62.0639 12.1711 62.5306C12.4116 62.5589 12.6521 62.573 12.9066 62.573C16.4283 62.573 19.2711 59.7302 19.2711 56.2086" stroke="#ECA0FF" stroke-width="5" stroke-miterlimit="2" stroke-linecap="round" stroke-linejoin="round"/>
<path d="M38.3645 62.573C34.8428 62.573 32 59.7302 32 56.2086V27.2148H37.6573L44.729 56.2086C44.729 59.7302 41.8862 62.573 38.3645 62.573Z" stroke="#ECA0FF" stroke-width="5" stroke-miterlimit="2" stroke-linecap="round" stroke-linejoin="round"/>
<path d="M37.6572 27.2148H43.3146L56.4961 53.9456C58.0661 57.637 55.8173 62.0639 51.8288 62.5306C51.5884 62.5589 51.348 62.573 51.0934 62.573C47.5717 62.573 44.7289 59.7302 44.7289 56.2086" stroke="#ECA0FF" stroke-width="5" stroke-miterlimit="2" stroke-linecap="round" stroke-linejoin="round"/>
<path d="M20.7704 18.7289C20.7138 18.2622 20.6855 17.7955 20.6855 17.3146C20.6855 11.0633 25.7489 6 32.0002 6C38.2516 6 43.3149 11.0633 43.3149 17.3146C43.3149 17.7955 43.2866 18.2622 43.23 18.7289H20.7704Z" fill="#2F88FF" stroke="#ECA0FF" stroke-width="5" stroke-miterlimit="2" stroke-linecap="round" stroke-linejoin="round"/>
</svg>
