<svg width="64" height="68" viewBox="0 0 64 68" fill="none" xmlns="http://www.w3.org/2000/svg">
<path fill-rule="evenodd" clip-rule="evenodd" d="M49.907 28.1685C49.907 37.5885 42.629 45.241 33.404 46H30.401C21.179 45.241 13.907 37.6323 13.907 28.2153C13.907 28.0923 13.925 28 13.925 28H49.889C49.889 28 49.907 28.0485 49.907 28.1685ZM59 22H44V7C44 5.341 42.659 4 41 4C39.344 4 38 5.341 38 7V22H26V7C26 5.341 24.659 4 23 4C21.344 4 20 5.341 20 7V22H5C3.344 22 2 23.341 2 25C2 26.656 3.344 28 5 28H7.925C7.925 28 7.955 28.0485 7.955 28.1685C7.955 40.4055 17 50.4012 29 51.8682V64H35V51.8682C47 50.4072 55.955 40.4523 55.955 28.2153C55.955 28.0923 55.892 28 55.892 28H59C60.659 28 62 26.656 62 25C62 23.341 60.659 22 59 22Z" fill="#60EFFF"/>
</svg>
