<svg width="64" height="68" viewBox="0 0 64 68" fill="none" xmlns="http://www.w3.org/2000/svg">
<path d="M42.1604 27.7475H20.8377C17.8208 27.7475 16.7726 25.7277 18.5367 23.2733L29.198 8.34226C30.4508 6.55258 32.5473 6.55258 33.8 8.34226L44.4614 23.2733C46.2255 25.7277 45.1773 27.7475 42.1604 27.7475Z" fill="#57EBDE"/>
<path d="M45.7919 48.0433H17.2081C13.1686 48.0433 11.7879 45.3587 14.1657 42.0862L24.3669 27.7432H38.6332L48.8344 42.0862C51.2121 45.3587 49.8315 48.0433 45.7919 48.0433Z" fill="#57EBDE"/>
<path d="M33.4185 48.0469V58.2736C33.4185 59.3219 32.5493 60.1911 31.501 60.1911C30.4528 60.1911 29.5835 59.3219 29.5835 58.2736V48.0469H33.4185Z" fill="#57EBDE"/>
</svg>
