<svg width="60" height="46" viewBox="0 0 60 46" fill="none" xmlns="http://www.w3.org/2000/svg">
<path d="M0.908449 11.0247C-0.213905 12.0213 -0.309417 13.7319 0.695122 14.8455C1.69963 15.959 3.42381 16.0538 4.54614 15.0572L0.908449 11.0247ZM55.4539 15.0572C56.5762 16.0538 58.3004 15.959 59.3048 14.8455C60.3095 13.7319 60.2138 12.0213 59.0915 11.0247L55.4539 15.0572ZM30 40.5882C28.4937 40.5882 27.2727 41.7997 27.2727 43.2941C27.2727 44.7886 28.4937 46 30 46V40.5882ZM30.0273 46C31.5336 46 32.7546 44.7886 32.7546 43.2941C32.7546 41.7997 31.5336 40.5882 30.0273 40.5882V46ZM37.3377 35.2847C38.4518 36.2902 40.1768 36.2093 41.1903 35.104C42.204 33.9983 42.1222 32.2871 41.0081 31.2814L37.3377 35.2847ZM46.5106 25.2738C47.6247 26.2793 49.3497 26.1984 50.3632 25.0927C51.3766 23.9874 51.2951 22.2759 50.181 21.2704L46.5106 25.2738ZM18.992 31.2814C17.8777 32.2871 17.7961 33.9983 18.8097 35.104C19.8232 36.2093 21.5481 36.2902 22.6623 35.2847L18.992 31.2814ZM9.81913 21.2704C8.7049 22.2759 8.62324 23.9874 9.63678 25.0927C10.6503 26.1984 12.3752 26.2793 13.4894 25.2738L9.81913 21.2704ZM4.54614 15.0572C11.303 9.05702 20.2192 5.41176 30 5.41176V0C18.8257 0 8.62671 4.17079 0.908449 11.0247L4.54614 15.0572ZM30 5.41176C39.7808 5.41176 48.6971 9.05702 55.4539 15.0572L59.0915 11.0247C51.3734 4.17079 41.1742 0 30 0V5.41176ZM30 46H30.0273V40.5882H30V46ZM30 32.4706C32.8274 32.4706 35.3981 33.5343 37.3377 35.2847L41.0081 31.2814C38.1035 28.6602 34.2371 27.0588 30 27.0588V32.4706ZM30 18.9412C36.3597 18.9412 42.1489 21.3372 46.5106 25.2738L50.181 21.2704C44.8544 16.4631 37.7692 13.5294 30 13.5294V18.9412ZM22.6623 35.2847C24.6019 33.5343 27.1726 32.4706 30 32.4706V27.0588C25.7629 27.0588 21.8965 28.6602 18.992 31.2814L22.6623 35.2847ZM13.4894 25.2738C17.8512 21.3372 23.6404 18.9412 30 18.9412V13.5294C22.2307 13.5294 15.1458 16.4631 9.81913 21.2704L13.4894 25.2738Z" fill="#30C5D2"/>
</svg>
