<svg width="30" height="30" viewBox="0 0 30 30" fill="none" xmlns="http://www.w3.org/2000/svg">
<g clip-path="url(#clip0_240_2325)">
<path d="M29.8612 25.4028C29.8612 24.3542 29.2707 23.5041 28.5421 23.5041H27.8657C27.8565 22.8243 27.6315 22.2216 27.2853 21.8296C27.5357 21.8166 27.7361 21.5213 27.7361 21.1575C27.7361 20.8791 27.6186 20.6403 27.4515 20.5377C28.5239 19.7717 28.5544 17.7331 28.0532 15.5183L27.0698 10.9025H27.2683C27.5266 10.9025 27.7361 10.601 27.7361 10.2294C27.7361 9.90925 27.5807 9.64179 27.3726 9.57344C27.7311 9.14801 27.9596 8.50392 27.9596 7.78313C27.9596 6.93935 27.6456 6.20297 27.1776 5.79707H28.5421C29.2707 5.79707 29.8612 4.94701 29.8612 3.89842C29.8612 2.84994 29.2707 2 28.5421 2H1.45794C0.729414 2 0.138759 2.85006 0.138759 3.89842C0.138759 4.94701 0.729414 5.79707 1.45794 5.79707H2.82251C2.35446 6.20297 2.04044 6.93935 2.04044 7.78313C2.04044 8.50392 2.26893 9.14801 2.62746 9.57344C2.4194 9.64179 2.26416 9.90925 2.26416 10.2294C2.26416 10.601 2.47352 10.9025 2.73189 10.9025H2.93018L1.94691 15.5183C1.44558 17.7334 1.47619 19.7718 2.54871 20.5378C2.38136 20.6404 2.26416 20.8791 2.26416 21.1575C2.26416 21.5213 2.46439 21.8166 2.71477 21.8296C2.36868 22.2216 2.14366 22.8245 2.13437 23.5041H1.45794C0.729414 23.5041 0.138759 24.3542 0.138759 25.4028L0 27H30L29.8612 25.4028ZM8.20246 20.5377C8.03511 20.6403 7.91791 20.879 7.91791 21.1574C7.91791 21.5212 8.11806 21.8164 8.36852 21.8295C8.02243 22.2215 7.79741 22.8243 7.78812 23.504H5.16995C5.16074 22.8242 4.93572 22.2215 4.58963 21.8295C4.84001 21.8164 5.0404 21.5212 5.0404 21.1574C5.0404 20.879 4.92304 20.6402 4.75577 20.5376C5.82821 19.7716 5.85882 17.733 5.35749 15.5181L4.37414 10.9024H4.57259C4.83089 10.9024 5.0404 10.6009 5.0404 10.2293C5.0404 9.90914 4.885 9.64167 4.67694 9.57332C5.03539 9.14789 5.26396 8.50381 5.26396 7.78301C5.26396 6.93923 4.94994 6.20286 4.48189 5.79695H8.47626C8.00821 6.20286 7.69419 6.93923 7.69419 7.78301C7.69419 8.50381 7.92268 9.14789 8.28113 9.57332C8.07307 9.64167 7.91783 9.90914 7.91783 10.2293C7.91783 10.6009 8.12718 10.9024 8.38556 10.9024H8.58384L7.60058 15.5181C7.09925 17.7333 7.12986 19.7717 8.20246 20.5377ZM13.8562 20.5377C13.6889 20.6403 13.5717 20.879 13.5717 21.1574C13.5717 21.5212 13.7719 21.8164 14.0223 21.8295C13.6762 22.2215 13.4512 22.8243 13.4419 23.504H10.8237C10.8145 22.8242 10.5895 22.2215 10.2433 21.8295C10.4937 21.8164 10.6941 21.5212 10.6941 21.1574C10.6941 20.879 10.5767 20.6402 10.4094 20.5376C11.4819 19.7716 11.5125 17.733 11.0112 15.5181L10.0278 10.9024H10.2263C10.4846 10.9024 10.6941 10.6009 10.6941 10.2293C10.6941 9.90914 10.5387 9.64167 10.3306 9.57332C10.6891 9.14789 10.9176 8.50381 10.9176 7.78301C10.9176 6.93923 10.6036 6.20286 10.1356 5.79695H14.1299C13.6619 6.20286 13.3479 6.93923 13.3479 7.78301C13.3479 8.50381 13.5763 9.14789 13.9349 9.57332C13.7268 9.64167 13.5716 9.90914 13.5716 10.2293C13.5716 10.6009 13.7809 10.9024 14.0393 10.9024H14.2376L13.2543 15.5181C12.753 17.7333 12.7836 19.7717 13.8562 20.5377ZM19.51 20.5377C19.3426 20.6403 19.2254 20.879 19.2254 21.1574C19.2254 21.5212 19.4256 21.8164 19.676 21.8295C19.3299 22.2215 19.1049 22.8243 19.0956 23.504H16.4774C16.4682 22.8242 16.2432 22.2215 15.897 21.8295C16.1474 21.8164 16.3478 21.5212 16.3478 21.1574C16.3478 20.879 16.2305 20.6402 16.0632 20.5376C17.1356 19.7716 17.1662 17.733 16.6649 15.5181L15.6816 10.9024H15.88C16.1383 10.9024 16.3478 10.6009 16.3478 10.2293C16.3478 9.90914 16.1924 9.64167 15.9844 9.57332C16.3429 9.14789 16.5714 8.50381 16.5714 7.78301C16.5714 6.93923 16.2574 6.20286 15.7893 5.79695H19.7837C19.3156 6.20286 19.0016 6.93923 19.0016 7.78301C19.0016 8.50381 19.2301 9.14789 19.5886 9.57332C19.3806 9.64167 19.2253 9.90914 19.2253 10.2293C19.2253 10.6009 19.4347 10.9024 19.6931 10.9024H19.8913L18.9081 15.5181C18.4067 17.7333 18.4374 19.7717 19.51 20.5377ZM25.2445 20.5377C25.0771 20.6403 24.9599 20.879 24.9599 21.1574C24.9599 21.5212 25.1601 21.8164 25.4105 21.8295C25.0644 22.2215 24.8394 22.8243 24.8301 23.504H22.1312C22.122 22.8242 21.897 22.2215 21.5508 21.8295C21.8012 21.8164 22.0016 21.5212 22.0016 21.1574C22.0016 20.879 21.8841 20.6402 21.7169 20.5376C22.7894 19.7716 22.8199 17.733 22.3187 15.5181L21.3353 10.9024H21.5338C21.792 10.9024 22.0016 10.6009 22.0016 10.2293C22.0016 9.90914 21.8462 9.64167 21.6381 9.57332C21.9966 9.14789 22.2251 8.50381 22.2251 7.78301C22.2251 6.93923 21.9111 6.20286 21.4431 5.79695H25.5182C25.0501 6.20286 24.7361 6.93923 24.7361 7.78301C24.7361 8.50381 24.9646 9.14789 25.3231 9.57332C25.1151 9.64167 24.9598 9.90914 24.9598 10.2293C24.9598 10.6009 25.1692 10.9024 25.4276 10.9024H25.6259L24.6425 15.5181C24.1413 17.7333 24.1719 19.7717 25.2445 20.5377Z" fill="#999999"/>
</g>
<defs>
<clipPath id="clip0_240_2325">
<rect width="30" height="30" fill="white"/>
</clipPath>
</defs>
</svg>
