<svg width="30" height="23" viewBox="0 0 30 23" fill="none" xmlns="http://www.w3.org/2000/svg">
<g clip-path="url(#clip0_240_2372)">
<path fill-rule="evenodd" clip-rule="evenodd" d="M0 7.27621L7.05811 2.29174L14.1528 7.27621H0ZM6.27441 18.5016L10.7813 17.3521L9.93408 18.7592C11.4893 20.1833 13.1348 20.6159 15.0098 19.9063C13.1616 22.5626 10.4614 22.7643 8.24463 21.5661L7.38037 23L6.27441 18.5016ZM15.8447 11.4417L22.9028 6.45721L29.9976 11.4417H15.8447ZM16.2744 19.5903V17.9572H16.7603L17.2241 17.5951V13.2522H16.2769V12.2121H29.5313V13.2522H28.5864V17.5951L29.0503 17.9572H29.5459V19.5903H16.2744ZM19.4312 17.9548H19.9658L20.4297 17.5927V13.2522H18.9697V17.5951L19.4312 17.9548ZM22.6367 17.9548H23.1714L23.6353 17.5927V13.2522H22.1753V17.5951L22.6367 17.9548ZM25.8423 17.9548H26.377L26.8408 17.5927V13.2522H25.3809V17.5951L25.8423 17.9548ZM20.9912 4.54702L16.4307 5.47538L17.3462 4.112C15.8618 2.61253 14.2407 2.09975 12.334 2.71703C14.3115 0.155537 17.019 0.0850592 19.1724 1.39254L20.105 0L20.9912 4.54702ZM0.429688 15.4249V13.7917H0.915527L1.37939 13.4296V9.08675H0.432129V8.0466H13.6865V9.08675H12.7417V13.4272L13.2056 13.7893H13.7012V15.4224H0.429688V15.4249ZM3.58643 13.7893H4.12109L4.58496 13.4272V9.08675H3.125V13.4272L3.58643 13.7893ZM6.79199 13.7893H7.32666L7.79053 13.4272V9.08675H6.33057V13.4272L6.79199 13.7893ZM9.99756 13.7893H10.5322L10.9961 13.4272V9.08675H9.53613V13.4272L9.99756 13.7893Z" fill="#999999"/>
</g>
<defs>
<clipPath id="clip0_240_2372">
<rect width="30" height="23" fill="white"/>
</clipPath>
</defs>
</svg>
