<svg width="30" height="18" viewBox="0 0 30 18" fill="none" xmlns="http://www.w3.org/2000/svg">
<path d="M24.3375 2.99531L22.1063 0.764063C21.6124 0.274604 20.9453 -5.43093e-06 20.25 0H9.61875C8.925 0 8.25469 0.276563 7.7625 0.764063L5.53125 2.99531H0V14.9813H3C3.825 14.9813 4.49062 14.3156 4.49531 13.4953H4.92188L8.8875 17.0766C10.3359 18.2531 12.3469 18.2812 13.8375 17.2547C14.4234 17.7609 15.0562 18 15.7641 18C16.6172 18 17.4188 17.6531 18.0516 16.875C19.0875 17.2828 20.3109 16.9969 21.0516 16.0875L22.2797 14.5734C22.5422 14.25 22.7063 13.8797 22.7906 13.4953H25.5047C25.5094 14.3156 26.1797 14.9813 27 14.9813H30V2.99531H24.3375ZM2.25 13.4813C1.8375 13.4813 1.5 13.1438 1.5 12.7313C1.5 12.3188 1.8375 11.9813 2.25 11.9813C2.6625 11.9813 3 12.3188 3 12.7313C3 13.1484 2.6625 13.4813 2.25 13.4813ZM20.5312 13.1578L19.3078 14.6672C19.1766 14.8266 18.9422 14.8547 18.7781 14.7234L17.6578 13.8141L16.2516 15.525C15.9703 15.8672 15.5484 15.75 15.4078 15.6375L13.6828 14.1609L12.9516 15.0609C12.3 15.8625 11.1141 15.9844 10.3594 15.3703L5.79844 11.2453H4.5V5.24063H6.46406L9.35625 2.35312C9.45 2.31562 9.52969 2.28281 9.62344 2.24531H12.2812L10.4672 3.90937C9.08906 5.17031 9.00937 7.29844 10.2609 8.65781C10.9547 9.41719 13.1297 10.5891 15.0187 8.86406L15.4031 8.5125L20.475 12.6281C20.6344 12.7594 20.6578 12.9984 20.5312 13.1578ZM25.5 11.2453H22.2562C22.1484 11.1141 22.0266 10.9922 21.8953 10.8844L17.0812 6.975L17.6672 6.44062C17.9719 6.15937 17.9953 5.68594 17.7141 5.38125L17.2031 4.83281C16.9219 4.52813 16.4484 4.50938 16.1437 4.78594L13.5563 7.15781C13.1109 7.56562 12.3516 7.59844 11.9344 7.15781C11.4984 6.69375 11.5359 5.98125 11.9906 5.56875L15.0656 2.75156C15.4125 2.43281 15.8625 2.25937 16.3312 2.25937L20.2547 2.25C20.3531 2.25 20.4469 2.2875 20.5125 2.35781L23.4047 5.24531H25.5V11.2453ZM27.75 13.4813C27.3375 13.4813 27 13.1438 27 12.7313C27 12.3188 27.3375 11.9813 27.75 11.9813C28.1625 11.9813 28.5 12.3188 28.5 12.7313C28.5 13.1484 28.1625 13.4813 27.75 13.4813Z" fill="#999999"/>
</svg>
