<svg width="30" height="25" viewBox="0 0 30 25" fill="none" xmlns="http://www.w3.org/2000/svg">
<path d="M8.80046 2.2997H2.48872V7.25759H8.80259L8.80046 2.2997ZM9.56706 1.4585H27.0095C27.1096 1.4585 27.2054 1.47811 27.2927 1.51734C27.3822 1.55656 27.4652 1.61323 27.5334 1.68296L27.5376 1.68732C27.6058 1.75706 27.6611 1.84205 27.6973 1.93358C27.7335 2.02293 27.7548 2.121 27.7548 2.22343V7.33822C27.7548 7.44065 27.7357 7.53872 27.6973 7.63025C27.659 7.72396 27.6036 7.80677 27.5355 7.87869L27.527 7.88522C27.4588 7.95278 27.38 8.00726 27.2927 8.04431C27.2054 8.08136 27.1096 8.10315 27.0095 8.10315H19.9908C19.9589 8.10315 19.9354 8.077 19.9354 8.04649V2.2997H16.3707V3.80341L18.9899 6.85224C19.0645 6.93941 19.0986 7.04838 19.0922 7.15734C19.0858 7.26413 19.0389 7.36873 18.9537 7.44719L18.9495 7.44937C18.9112 7.48206 18.8707 7.50821 18.826 7.52346C18.7813 7.5409 18.7323 7.54961 18.6854 7.54961H10.8171C10.7042 7.54961 10.5999 7.50167 10.5275 7.42539C10.4529 7.34912 10.4061 7.24451 10.4061 7.12901C10.4061 7.06799 10.4188 7.01133 10.4423 6.95903C10.4657 6.90454 10.4998 6.8566 10.5424 6.81737L13.2383 3.80123V2.2997H9.62456V8.03995C9.62456 8.07264 9.59901 8.09661 9.56919 8.09661H2.41206C2.31198 8.09661 2.21615 8.077 2.12884 8.03777C2.03728 7.99855 1.95636 7.94189 1.88608 7.87215C1.81794 7.80241 1.76257 7.71742 1.72424 7.62371C1.68591 7.53654 1.66675 7.43847 1.66675 7.33604V2.22125C1.66675 2.11882 1.68591 2.02075 1.72424 1.92922C1.76044 1.83551 1.81581 1.7527 1.88608 1.68296C1.88821 1.6786 1.89034 1.67643 1.89247 1.67643C1.96061 1.60887 2.0394 1.55438 2.12671 1.51734C2.21615 1.47811 2.31198 1.4585 2.41206 1.4585H9.56706ZM2.41206 12.8627H27.0883C27.1884 12.8627 27.2842 12.8845 27.3715 12.9216C27.4631 12.9608 27.544 13.0175 27.6143 13.0872L27.6164 13.0894C27.6846 13.1591 27.7378 13.2419 27.7761 13.3335C27.8123 13.4228 27.8336 13.5209 27.8336 13.6255V22.9223C27.8336 23.0248 27.8123 23.1228 27.7761 23.2122C27.7399 23.3015 27.6867 23.3822 27.6228 23.4519C27.6207 23.4541 27.6185 23.4584 27.6164 23.4606L27.6143 23.4628C27.5461 23.5325 27.4652 23.5892 27.3737 23.6262C27.2863 23.6633 27.1905 23.6851 27.0904 23.6851H20.4039C20.3869 23.6894 20.3698 23.6938 20.3507 23.6982C20.3294 23.7025 20.3081 23.7025 20.2868 23.7025C20.2655 23.7025 20.2442 23.7003 20.2229 23.6982C20.2037 23.696 20.1867 23.6916 20.1697 23.6851H9.33069C9.31366 23.6894 9.29662 23.6938 9.27746 23.6982C9.25616 23.7025 9.23487 23.7025 9.21357 23.7025C9.19228 23.7025 9.17098 23.7003 9.14969 23.6982C9.13052 23.696 9.11349 23.6916 9.09645 23.6851H2.41206C2.31198 23.6851 2.21615 23.6655 2.12884 23.6262C2.04153 23.5892 1.96061 23.5347 1.8946 23.4671C1.89034 23.465 1.88821 23.4628 1.88608 23.4584C1.81794 23.3887 1.76257 23.3037 1.72424 23.2122C1.68591 23.1228 1.66675 23.0248 1.66675 22.9223V13.6255C1.66675 13.523 1.68591 13.425 1.72424 13.3335C1.76257 13.2397 1.81794 13.1569 1.88608 13.085C1.88821 13.0828 1.89034 13.0807 1.8946 13.0785C1.96274 13.0109 2.04153 12.9564 2.12884 12.9194C2.21615 12.8823 2.31198 12.8627 2.41206 12.8627ZM27.0116 13.7039H20.6978V22.8439H27.0116V13.7039ZM19.8758 13.7039H9.62456V15.7394H19.8758V13.7039ZM8.80259 13.7039H2.48872V22.8439H8.80259V13.7039ZM9.62456 22.8417H19.8758V16.5828H9.62456V22.8417ZM15.5487 2.2997H14.0602V3.96032C14.0602 3.96468 14.0602 3.96904 14.0581 3.97558C14.056 4.02134 14.0475 4.06929 14.0304 4.11287C14.0134 4.16082 13.9857 4.2044 13.9516 4.24363L11.7476 6.70841H17.774L15.6595 4.24799C15.6254 4.21094 15.5956 4.16517 15.5764 4.11723C15.5573 4.06929 15.5466 4.0148 15.5466 3.96032V2.2997H15.5487ZM21.6795 14.1747C21.7391 14.1747 21.7966 14.1877 21.8477 14.2095L21.8498 14.2117C21.9031 14.2335 21.9499 14.2684 21.9904 14.3076C22.0308 14.349 22.0628 14.3991 22.0862 14.4536C22.1075 14.5059 22.1203 14.5647 22.1203 14.6258C22.1203 14.6868 22.1075 14.7435 22.0862 14.7979C22.0628 14.8524 22.0308 14.9025 21.9904 14.9439L21.9861 14.9461C21.9456 14.9854 21.8988 15.018 21.8456 15.0398C21.7945 15.0616 21.737 15.0747 21.6773 15.0747C21.6177 15.0747 21.5602 15.0616 21.5091 15.0398C21.458 15.018 21.4111 14.9854 21.3707 14.9461L21.3643 14.9418C21.3238 14.9004 21.2919 14.8502 21.2706 14.7958L21.2685 14.7936C21.2472 14.7413 21.2365 14.6846 21.2365 14.6236C21.2365 14.5626 21.2493 14.5037 21.2706 14.4514C21.2919 14.3969 21.326 14.3468 21.3664 14.3054C21.4069 14.264 21.4559 14.2313 21.5091 14.2073L21.5112 14.2052C21.5666 14.1856 21.622 14.1747 21.6795 14.1747ZM6.37074 2.72248C6.43036 2.72248 6.48786 2.73556 6.53896 2.75735C6.5922 2.77915 6.64118 2.81401 6.68164 2.85542C6.7221 2.89683 6.75617 2.94695 6.77746 3.00143C6.79876 3.05374 6.81154 3.11258 6.81154 3.1736C6.81154 3.23462 6.79876 3.29346 6.77746 3.34576C6.75617 3.40024 6.72423 3.44819 6.6859 3.48742L6.67951 3.49395C6.63905 3.53318 6.5922 3.56587 6.53896 3.58766C6.48786 3.60946 6.43036 3.62253 6.37074 3.62253C6.31111 3.62253 6.25575 3.60946 6.20251 3.58766C6.14927 3.56587 6.10029 3.531 6.05983 3.48959L6.05558 3.48524C6.01725 3.44383 5.9853 3.39589 5.96401 3.34358C5.94271 3.29128 5.92994 3.23244 5.92994 3.17142C5.92994 3.1104 5.94271 3.05156 5.96401 2.99925L5.96614 2.99708C5.98743 2.94259 6.0215 2.89465 6.05983 2.85324C6.10029 2.81184 6.14927 2.77915 6.20251 2.75517L6.20464 2.75299C6.25788 2.73556 6.31324 2.72248 6.37074 2.72248ZM20.7851 2.2997H20.7574V7.25759H26.935V2.2997H20.7851ZM22.7442 2.85106C22.7847 2.81184 22.8315 2.77915 22.8847 2.75735C22.9358 2.73556 22.9933 2.72248 23.053 2.72248C23.1126 2.72248 23.1701 2.73556 23.2212 2.75735L23.2233 2.75953C23.2766 2.78133 23.3234 2.81619 23.3639 2.85542C23.4043 2.89683 23.4363 2.94695 23.4597 3.00143C23.481 3.05374 23.4938 3.11258 23.4938 3.1736C23.4938 3.23462 23.481 3.29346 23.4597 3.34576L23.4576 3.34794C23.4363 3.40024 23.4043 3.44819 23.366 3.48742L23.3596 3.49395C23.3192 3.53318 23.2723 3.56587 23.2212 3.58766C23.1701 3.60946 23.1126 3.62253 23.053 3.62253C22.9933 3.62253 22.9358 3.60946 22.8847 3.58766C22.8315 3.56587 22.7825 3.531 22.7421 3.48959C22.7016 3.44819 22.6697 3.39806 22.6462 3.34358C22.6249 3.29128 22.6122 3.23244 22.6122 3.17142C22.6122 3.1104 22.6249 3.05374 22.6462 2.99925C22.6697 2.94477 22.7016 2.89465 22.7421 2.85324L22.7442 2.85106ZM7.72508 14.1747C7.7847 14.1747 7.8422 14.1877 7.8933 14.2095L7.89543 14.2117C7.94867 14.2357 7.99552 14.2684 8.03598 14.3076L8.03811 14.312C8.07644 14.3534 8.10838 14.4013 8.12968 14.4536L8.1318 14.4558C8.1531 14.5081 8.16375 14.5647 8.16375 14.6258C8.16375 14.6868 8.15097 14.7435 8.12968 14.7979C8.10625 14.8524 8.07431 14.9025 8.03385 14.9439L8.02959 14.9461C7.98913 14.9854 7.94228 15.018 7.88905 15.0398C7.83794 15.0616 7.78044 15.0747 7.72082 15.0747C7.66119 15.0747 7.6037 15.0616 7.55259 15.0398C7.49935 15.018 7.45038 14.9832 7.40992 14.9418C7.36946 14.9004 7.33751 14.8502 7.31409 14.7958L7.31196 14.7936C7.29067 14.7413 7.28002 14.6846 7.28002 14.6236C7.28002 14.5626 7.2928 14.5037 7.31409 14.4514C7.33538 14.3969 7.36946 14.3468 7.40992 14.3054C7.45038 14.264 7.49935 14.2313 7.55259 14.2073C7.61009 14.1877 7.66545 14.1747 7.72508 14.1747Z" fill="#999999"/>
</svg>
