<svg width="30" height="30" viewBox="0 0 30 30" fill="none" xmlns="http://www.w3.org/2000/svg">
<path fill-rule="evenodd" clip-rule="evenodd" d="M22.5712 2.19353C22.2416 1.96382 21.8681 1.86363 21.4872 1.93938C21.1063 2.01514 20.784 2.22041 20.5545 2.54054L19.2678 4.35625C18.8112 4.15342 18.3351 3.99946 17.8273 3.87239C17.3194 3.74531 16.8433 3.64268 16.3355 3.56692L15.9277 1.1916C15.8545 0.783489 15.6494 0.487795 15.3515 0.258083C15.0219 0.0283705 14.6727 -0.0473857 14.2674 0.0283705L11.2936 0.563552C10.9127 0.639308 10.6148 0.817701 10.3609 1.14761C10.1314 1.47751 10.0313 1.82697 10.107 2.23263L10.4879 4.40268C10.0045 4.60551 9.5552 4.83523 9.12305 5.10648C8.69089 5.36063 8.26849 5.6661 7.88517 5.96179L5.86843 4.5713C5.53881 4.34159 5.18967 4.24139 4.80878 4.31715C4.4279 4.39291 4.10561 4.59818 3.8761 4.92809L2.15967 7.38161C1.93017 7.71152 1.83006 8.08541 1.90575 8.46664C1.98144 8.87474 2.18653 9.17044 2.51614 9.40015L4.33024 10.688C4.12758 11.145 3.97376 11.6215 3.8468 12.1298C3.71984 12.6381 3.6173 13.1146 3.54161 13.6229L1.17084 14.0311C-0.841021 14.4098 0.296753 17.2959 0.543352 18.6693C0.619041 19.0505 0.797276 19.3487 1.11956 19.6028C1.44918 19.8325 1.79832 19.9327 2.20362 19.857L4.37174 19.4757C4.57439 19.9596 4.8039 20.4092 5.07492 20.8418C5.32884 21.2743 5.63404 21.6971 5.92947 22.1052L4.54021 24.0993C4.3107 24.4292 4.2106 24.7787 4.28629 25.1599C4.36198 25.5411 4.56463 25.8637 4.88691 26.0934L7.36023 27.8309C7.68984 28.0606 8.0634 28.1364 8.44429 28.0606C8.82517 27.9849 9.14746 27.8065 9.40139 27.4839L10.6905 25.6437C11.1471 25.8466 11.6232 26.0005 12.1311 26.1276C12.6389 26.2547 13.1126 26.3573 13.6229 26.4331L14.0306 28.8084C14.1063 29.2165 14.3114 29.5122 14.6068 29.7419C14.9364 29.9716 15.2856 30.0474 15.6909 29.9716L18.6647 29.4364C19.0456 29.3607 19.3435 29.1823 19.5974 28.8597C19.8269 28.5298 19.927 28.1804 19.8513 27.7747L19.4704 25.6046C19.9539 25.4018 20.4031 25.1721 20.8353 24.9009C21.2674 24.6467 21.6923 24.3486 22.0976 24.0455L24.0899 25.436C24.4195 25.6657 24.7687 25.7659 25.174 25.6902C25.5817 25.6144 25.8771 25.4091 26.1066 25.089L27.8426 22.6111C28.0721 22.2812 28.1478 21.9073 28.0721 21.526C27.9964 21.1448 27.8182 20.8222 27.4886 20.5681L25.6476 19.3047C25.8503 18.8477 26.0041 18.3712 26.1311 17.8629C26.258 17.3546 26.3606 16.878 26.4363 16.3697L28.8095 15.9616C29.2172 15.8859 29.5126 15.6806 29.7421 15.3776C29.9717 15.0477 30.0473 14.6982 29.9717 14.2925L29.4369 11.316C29.3613 10.9348 29.183 10.6367 28.8607 10.3825C28.5311 10.1528 28.182 10.0526 27.7767 10.1284L25.6086 10.5096C25.4059 10.0526 25.1764 9.60298 24.9054 9.14355C24.6515 8.68657 24.3463 8.28824 24.0508 7.90457L25.4401 5.88604C25.6696 5.55613 25.7697 5.20668 25.694 4.82545C25.6183 4.44423 25.4132 4.12165 25.0934 3.89194L22.6396 2.16665L22.5712 2.19353ZM11.9919 12.7285L14.1087 14.7446L17.754 11.0399C18.1154 10.6733 18.34 10.3776 18.7868 10.8371L20.2298 12.3155C20.7059 12.7847 20.679 13.0584 20.2322 13.4934L14.934 18.6986C13.9915 19.6224 14.1576 19.6786 13.2005 18.7304L9.56253 15.1136C9.36476 14.8986 9.38429 14.6811 9.60159 14.4636L11.2765 12.7236C11.528 12.4622 11.7306 12.4793 11.9919 12.7285ZM14.9999 5.78584C20.0833 5.78584 24.2071 9.91089 24.2071 15.0012C24.2071 20.0891 20.0857 24.2166 14.9999 24.2166C9.91412 24.2166 5.79274 20.0891 5.79274 14.9988C5.79274 9.91089 9.91656 5.78584 14.9999 5.78584Z" fill="#999999"/>
</svg>
