<svg width="25" height="25" viewBox="0 0 25 25" fill="none" xmlns="http://www.w3.org/2000/svg">
<path d="M24.9736 24.1279V5.82715C24.9736 4.76648 24.7235 3.78427 24.2246 2.87988C23.7258 1.97577 23.0242 1.27421 22.1201 0.775391C21.2157 0.276478 20.2335 0.0263672 19.1729 0.0263672H11.6543C10.5935 0.0263672 9.62685 0.276566 8.75391 0.775391C7.88108 1.27417 7.1797 1.97539 6.64941 2.87988C6.11926 3.78427 5.85352 4.76667 5.85352 5.82715V5.85352H4.13574C3.01516 5.85352 2.04989 6.25773 1.24023 7.06738C0.430606 7.87703 0.0263672 8.84233 0.0263672 9.96289V12.5C0.0263672 12.7445 0.102993 12.9408 0.253906 13.0918C0.404841 13.2427 0.601212 13.3193 0.845703 13.3193H12.5C12.7446 13.3193 12.9408 13.2428 13.0918 13.0918C13.2428 12.9408 13.3193 12.7446 13.3193 12.5V9.96289C13.3193 8.84231 12.9151 7.87704 12.1055 7.06738C11.2959 6.25785 10.3313 5.85361 9.21094 5.85352H7.49219V5.82715C7.49219 4.69209 7.90226 3.71395 8.72168 2.89453C9.54067 2.07556 10.518 1.63438 11.6523 1.57129H19.1748C20.3091 1.6344 21.2865 2.07555 22.1055 2.89453C22.9244 3.71351 23.3656 4.69085 23.4287 5.8252V24.1279H24.9736ZM1.57129 9.96289C1.57129 9.26637 1.82448 8.67907 2.33105 8.2041C2.83727 7.72953 3.43977 7.49219 4.13574 7.49219H9.11621C9.81219 7.49219 10.4147 7.72953 10.9209 8.2041C11.4274 8.67906 11.6807 9.26639 11.6807 9.96289V11.6807H1.57129V9.96289ZM12.4736 18.3008V15.9102H10.835V18.3008H12.4736ZM9.08984 19.9922V15.9102H7.5459V19.9922H9.08984ZM5.80078 18.3008V15.9102H4.16211V18.3008H5.80078ZM2.41699 21.6836V15.9102H0.87207V21.6836H2.41699ZM12.4736 24.9736V20.0459H10.835V24.9736H12.4736ZM5.80078 24.1279V20.8916H4.16211V24.1279H5.80078ZM9.08984 23.2812V21.7373H7.5459V23.2812H9.08984Z" fill="#999999" stroke="#999999" stroke-width="0.0533333"/>
</svg>
